{
.appVersion = "3180";
.formatVersion = 3;
axes = (
{
name = Weight;
tag = wght;
}
);
customParameters = (
{
name = "Use Typo Metrics";
value = 1;
},
{
name = "Write lastChange";
value = 0;
}
);
date = "2022-04-03 17:04:08 +0000";
familyName = "Noto Sans Kawi";
featurePrefixes = (
{
automatic = 1;
code = "languagesystem DFLT dflt;

languagesystem kawi dflt;
";
name = Languagesystems;
}
);
features = (
{
automatic = 1;
code = "feature blws;
feature pstf;
feature pref;
";
tag = aalt;
},
{
code = "#lookup belowForm {
#	sub virama-kawi ka-kawi by ka-kawi.below;
#	sub virama-kawi la-kawi by la-kawi.below;
#	sub virama-kawi ta-kawi by ta-kawi.below;
#} belowForm;
#
#lookup belowForm2 {
#	sub [la-kawi.below ta-kawi.below] la-kawi.below' by la-kawi.below2;
#} belowForm2;
#
#lookup belowFormVowel {
#	sub [la-kawi.below ta-kawi.below la-kawi.below2] vowelU-kawi' by vowelU-kawi.below;
#} belowFormVowel;
#
#script kawi;
#lookup belowForm;
#lookup belowForm2;
#lookup belowFormVowel;
";
tag = blws;
},
{
code = "#lookup postForms {
#	sub virama-kawi ssa-kawi by ssa-kawi.post;
#} postForms;
#
#script kawi;
#lookup postForms;
";
tag = pstf;
},
{
code = "#lookup raConjunct {
#	sub virama-kawi ra-kawi by ra-kawi.post;
#} raConjunct;
#
#script kawi;
#lookup raConjunct;
";
tag = pref;
}
);
fontMaster = (
{
axesValues = (
400
);
customParameters = (
{
name = "Preview Ascender";
value = 1000;
},
{
name = "Preview Descender";
value = 1000;
}
);
guides = (
{
locked = 1;
pos = (183,-86);
},
{
locked = 1;
pos = (183,-550);
},
{
locked = 1;
pos = (183,544);
},
{
locked = 1;
pos = (183,554);
},
{
locked = 1;
pos = (183,615);
},
{
locked = 1;
pos = (183,929);
},
{
locked = 1;
pos = (183,939);
},
{
locked = 1;
pos = (183,605);
},
{
locked = 1;
pos = (183,-76);
},
{
locked = 1;
pos = (183,-560);
}
);
id = m01;
metricValues = (
{
over = 16;
pos = 800;
},
{
over = 16;
pos = 700;
},
{
over = 16;
pos = 500;
},
{
over = -16;
},
{
over = -16;
pos = -200;
},
{
over = -16;
}
);
name = Regular;

glyphs = (
{
glyphname = "a-kawi";
layers = (
{
anchors = (
{
name = top;
pos = (414,544);
},
{
name = topright;
pos = (618,544);
}
);
background = {
shapes = (
{
closed = 1;
nodes = (
(329,-10,o),
(413,37,o),
(413,146,cs),
(413,245,o),
(343,291,o),
(237,291,c),
(237,275,l),
(343,275,o),
(398,324,o),
(398,409,cs),
(398,489,o),
(350,554,o),
(224,554,cs),
(141,554,o),
(84,524,o),
(54,460,c),
(126,423,l),
(145,465,o),
(182,478,o),
(221,478,cs),
(277,478,o),
(306,453,o),
(306,400,cs),
(306,337,o),
(266,321,o),
(232,321,cs),
(171,321,l),
(171,245,l),
(232,245,ls),
(272,245,o),
(321,222,o),
(321,156,cs),
(321,95,o),
(279,66,o),
(226,66,cs),
(180,66,o),
(135,87,o),
(116,131,c),
(44,94,l),
(77,23,o),
(145,-10,o),
(229,-10,cs)
);
},
{
closed = 1;
nodes = (
(620,208,l),
(620,284,l),
(291,284,l),
(341,208,l)
);
},
{
closed = 1;
nodes = (
(661,0,l),
(661,369,ls),
(661,442,o),
(627,488,o),
(554,488,c),
(480,468,l),
(569,468,o),
(574,426,o),
(574,369,cs),
(574,0,l)
);
},
{
closed = 1;
nodes = (
(722,468,l),
(722,544,l),
(480,544,l),
(480,468,l)
);
}
);
};
layerId = m01;
shapes = (
{
closed = 1;
nodes = (
(329,-10,o),
(413,37,o),
(413,146,cs),
(413,245,o),
(343,291,o),
(237,291,c),
(237,275,l),
(343,275,o),
(398,324,o),
(398,408,cs),
(398,489,o),
(347,554,o),
(233,554,cs),
(142,554,o),
(93,513,o),
(63,449,c),
(119,418,l),
(145,464,o),
(180,478,o),
(221,478,cs),
(277,478,o),
(306,453,o),
(306,400,cs),
(306,337,o),
(266,321,o),
(232,321,cs),
(171,321,l),
(171,245,l),
(232,245,ls),
(272,245,o),
(321,222,o),
(321,156,cs),
(321,95,o),
(279,66,o),
(226,66,cs),
(180,66,o),
(135,87,o),
(113,141,c),
(47,108,l),
(82,24,o),
(148,-10,o),
(229,-10,cs)
);
},
{
closed = 1;
nodes = (
(620,208,l),
(620,284,l),
(291,284,l),
(341,208,l)
);
},
{
closed = 1;
nodes = (
(661,0,l),
(661,369,ls),
(661,442,o),
(627,488,o),
(554,488,c),
(480,468,l),
(569,468,o),
(574,426,o),
(574,369,cs),
(574,0,l)
);
},
{
closed = 1;
nodes = (
(722,468,l),
(722,544,l),
(480,544,l),
(480,468,l)
);
}
);
width = 757;
},
{
anchors = (
{
name = top;
pos = (414,544);
},
{
name = topright;
pos = (618,544);
}
);
background = {
shapes = (
{
closed = 1;
nodes = (
(335,-10,o),
(433,37,o),
(433,146,cs),
(433,245,o),
(355,291,o),
(237,291,c),
(237,275,l),
(356,275,o),
(418,324,o),
(418,410,cs),
(418,489,o),
(366,554,o),
(236,554,cs),
(147,554,o),
(76,524,o),
(34,440,c),
(136,383,l),
(152,417,o),
(185,428,o),
(213,428,cs),
(247,428,o),
(266,412,o),
(266,385,cs),
(266,354,o),
(241,342,o),
(218,342,cs),
(171,342,l),
(171,216,l),
(222,216,ls),
(259,216,o),
(281,200,o),
(281,167,cs),
(281,133,o),
(253,116,o),
(217,116,cs),
(175,116,o),
(151,138,o),
(136,170,c),
(24,113,l),
(63,26,o),
(131,-10,o),
(228,-10,cs)
);
},
{
closed = 1;
nodes = (
(640,193,l),
(640,309,l),
(291,309,l),
(341,193,l)
);
},
{
closed = 1;
nodes = (
(701,0,l),
(701,304,ls),
(701,381,o),
(679,438,o),
(560,438,c),
(488,418,l),
(538,418,o),
(554,402,o),
(554,344,cs),
(554,0,l)
);
},
{
closed = 1;
nodes = (
(742,418,l),
(742,544,l),
(480,544,l),
(480,418,l)
);
}
);
};
layerId = "FD202070-6699-4318-8E83-95414ED89137";
shapes = (
{
closed = 1;
nodes = (
(339,-10,o),
(433,37,o),
(433,147,cs),
(433,245,o),
(355,291,o),
(237,291,c),
(237,275,l),
(356,275,o),
(418,324,o),
(418,410,cs),
(418,489,o),
(365,554,o),
(240,554,cs),
(148,554,o),
(78,519,o),
(38,427,c),
(130,378,l),
(153,418,o),
(179,428,o),
(210,428,cs),
(247,428,o),
(266,412,o),
(266,385,cs),
(266,354,o),
(241,342,o),
(218,342,cs),
(171,342,l),
(171,216,l),
(222,216,ls),
(259,216,o),
(281,200,o),
(281,167,cs),
(281,133,o),
(253,116,o),
(217,116,cs),
(173,116,o),
(148,139,o),
(132,176,c),
(30,126,l),
(68,29,o),
(138,-10,o),
(234,-10,cs)
);
},
{
closed = 1;
nodes = (
(640,193,l),
(640,309,l),
(291,309,l),
(341,193,l)
);
},
{
closed = 1;
nodes = (
(701,0,l),
(701,304,ls),
(701,381,o),
(679,438,o),
(560,438,c),
(488,418,l),
(538,418,o),
(554,402,o),
(554,344,cs),
(554,0,l)
);
},
{
closed = 1;
nodes = (
(742,418,l),
(742,544,l),
(480,544,l),
(480,418,l)
);
}
);
width = 777;
},
{
associatedMasterId = m01;
background = {
shapes = (
{
closed = 1;
nodes = (
(329,-10,o),
(413,37,o),
(413,146,cs),
(413,245,o),
(343,291,o),
(237,291,c),
(237,275,l),
(343,275,o),
(398,324,o),
(398,409,cs),
(398,489,o),
(350,554,o),
(224,554,cs),
(141,554,o),
(84,524,o),
(54,460,c),
(126,423,l),
(145,465,o),
(182,478,o),
(221,478,cs),
(277,478,o),
(306,453,o),
(306,400,cs),
(306,337,o),
(266,321,o),
(232,321,cs),
(171,321,l),
(171,245,l),
(232,245,ls),
(272,245,o),
(321,222,o),
(321,156,cs),
(321,95,o),
(279,66,o),
(226,66,cs),
(180,66,o),
(135,87,o),
(116,131,c),
(44,94,l),
(77,23,o),
(145,-10,o),
(229,-10,cs)
);
},
{
closed = 1;
nodes = (
(620,208,l),
(620,284,l),
(291,284,l),
(341,208,l)
);
},
{
closed = 1;
nodes = (
(661,0,l),
(661,384,l),
(554,488,l),
(480,468,l),
(574,374,l),
(574,0,l)
);
},
{
closed = 1;
nodes = (
(722,468,l),
(722,544,l),
(480,544,l),
(480,468,l)
);
}
);
};
layerId = "5CB73C68-DB72-4862-A9E4-E3A224B11D59";
name = "10 Feb 23 02.34";
shapes = (
{
closed = 1;
nodes = (
(329,-10,o),
(413,37,o),
(413,146,cs),
(413,245,o),
(343,291,o),
(237,291,c),
(237,275,l),
(343,275,o),
(398,324,o),
(398,409,cs),
(398,489,o),
(350,554,o),
(224,554,cs),
(141,554,o),
(84,524,o),
(54,460,c),
(126,423,l),
(145,465,o),
(182,478,o),
(221,478,cs),
(277,478,o),
(306,453,o),
(306,400,cs),
(306,337,o),
(266,321,o),
(232,321,cs),
(171,321,l),
(171,245,l),
(232,245,ls),
(272,245,o),
(321,222,o),
(321,156,cs),
(321,95,o),
(279,66,o),
(226,66,cs),
(180,66,o),
(135,87,o),
(116,131,c),
(44,94,l),
(77,23,o),
(145,-10,o),
(229,-10,cs)
);
},
{
closed = 1;
nodes = (
(620,208,l),
(620,284,l),
(291,284,l),
(341,208,l)
);
},
{
closed = 1;
nodes = (
(661,0,l),
(661,384,l),
(554,488,l),
(480,468,l),
(574,374,l),
(574,0,l)
);
},
{
closed = 1;
nodes = (
(722,468,l),
(722,544,l),
(480,544,l),
(480,468,l)
);
}
);
width = 757;
},
{
associatedMasterId = m01;
background = {
shapes = (
{
closed = 1;
nodes = (
(329,-10,o),
(413,37,o),
(413,146,cs),
(413,245,o),
(343,291,o),
(237,291,c),
(237,275,l),
(343,275,o),
(398,324,o),
(398,409,cs),
(398,489,o),
(350,554,o),
(224,554,cs),
(141,554,o),
(84,524,o),
(54,460,c),
(126,423,l),
(145,465,o),
(182,478,o),
(221,478,cs),
(277,478,o),
(306,453,o),
(306,400,cs),
(306,337,o),
(266,321,o),
(232,321,cs),
(171,321,l),
(171,245,l),
(232,245,ls),
(272,245,o),
(321,222,o),
(321,156,cs),
(321,95,o),
(279,66,o),
(226,66,cs),
(180,66,o),
(135,87,o),
(116,131,c),
(44,94,l),
(77,23,o),
(145,-10,o),
(229,-10,cs)
);
},
{
closed = 1;
nodes = (
(620,208,l),
(620,284,l),
(291,284,l),
(341,208,l)
);
},
{
closed = 1;
nodes = (
(661,0,l),
(661,384,l),
(554,488,l),
(480,468,l),
(574,374,l),
(574,0,l)
);
},
{
closed = 1;
nodes = (
(722,468,l),
(722,544,l),
(480,544,l),
(480,468,l)
);
}
);
};
layerId = "0C7C04F9-C635-46DF-9D5B-0B39EABEB215";
name = "23 Feb 23 15.04";
shapes = (
{
closed = 1;
nodes = (
(329,-10,o),
(413,37,o),
(413,146,cs),
(413,245,o),
(343,291,o),
(237,291,c),
(237,275,l),
(343,275,o),
(398,324,o),
(398,409,cs),
(398,489,o),
(350,554,o),
(224,554,cs),
(141,554,o),
(84,524,o),
(54,460,c),
(126,423,l),
(145,465,o),
(182,478,o),
(221,478,cs),
(277,478,o),
(306,453,o),
(306,400,cs),
(306,337,o),
(266,321,o),
(232,321,cs),
(171,321,l),
(171,245,l),
(232,245,ls),
(272,245,o),
(321,222,o),
(321,156,cs),
(321,95,o),
(279,66,o),
(226,66,cs),
(180,66,o),
(135,87,o),
(116,131,c),
(44,94,l),
(77,23,o),
(145,-10,o),
(229,-10,cs)
);
},
{
closed = 1;
nodes = (
(620,208,l),
(620,284,l),
(291,284,l),
(341,208,l)
);
},
{
closed = 1;
nodes = (
(661,0,l),
(661,369,ls),
(661,442,o),
(627,488,o),
(554,488,c),
(480,468,l),
(569,468,o),
(574,426,o),
(574,369,cs),
(574,0,l)
);
},
{
closed = 1;
nodes = (
(722,468,l),
(722,544,l),
(480,544,l),
(480,468,l)
);
}
);
width = 757;
},
{
associatedMasterId = "FD202070-6699-4318-8E83-95414ED89137";
background = {
shapes = (
{
closed = 1;
nodes = (
(671,0,l),
(671,304,ls),
(671,381,o),
(649,438,o),
(530,438,c),
(458,418,l),
(508,418,o),
(524,402,o),
(524,344,cs),
(524,0,l)
);
},
{
closed = 1;
nodes = (
(732,418,l),
(732,544,l),
(430,544,l),
(430,418,l)
);
},
{
closed = 1;
nodes = (
(319,-10,o),
(403,37,o),
(403,146,cs),
(403,245,o),
(333,291,o),
(227,291,c),
(227,275,l),
(333,275,o),
(388,324,o),
(388,409,cs),
(388,489,o),
(340,554,o),
(214,554,cs),
(131,554,o),
(74,524,o),
(44,460,c),
(116,423,l),
(135,465,o),
(172,478,o),
(211,478,cs),
(267,478,o),
(296,453,o),
(296,400,cs),
(296,337,o),
(256,321,o),
(222,321,cs),
(161,321,l),
(161,245,l),
(222,245,ls),
(262,245,o),
(311,222,o),
(311,156,cs),
(311,95,o),
(269,66,o),
(216,66,cs),
(170,66,o),
(125,87,o),
(106,131,c),
(34,94,l),
(67,23,o),
(135,-10,o),
(219,-10,cs)
);
},
{
closed = 1;
nodes = (
(610,208,l),
(610,284,l),
(281,284,l),
(331,208,l)
);
}
);
};
layerId = "6C222C4D-38F6-48D9-970F-A3BDB799EED2";
name = "23 Feb 23 15.04";
shapes = (
{
closed = 1;
nodes = (
(325,-10,o),
(423,37,o),
(423,146,cs),
(423,245,o),
(345,291,o),
(227,291,c),
(227,275,l),
(346,275,o),
(408,324,o),
(408,410,cs),
(408,489,o),
(356,554,o),
(226,554,cs),
(137,554,o),
(66,524,o),
(24,440,c),
(126,383,l),
(142,417,o),
(175,428,o),
(203,428,cs),
(237,428,o),
(256,412,o),
(256,385,cs),
(256,354,o),
(231,342,o),
(208,342,cs),
(161,342,l),
(161,216,l),
(212,216,ls),
(249,216,o),
(271,200,o),
(271,167,cs),
(271,133,o),
(243,116,o),
(207,116,cs),
(165,116,o),
(141,138,o),
(126,170,c),
(14,113,l),
(53,26,o),
(121,-10,o),
(218,-10,cs)
);
},
{
closed = 1;
nodes = (
(630,193,l),
(630,309,l),
(281,309,l),
(331,193,l)
);
},
{
closed = 1;
nodes = (
(691,0,l),
(691,304,ls),
(691,381,o),
(669,438,o),
(550,438,c),
(478,418,l),
(528,418,o),
(544,402,o),
(544,344,cs),
(544,0,l)
);
},
{
closed = 1;
nodes = (
(732,418,l),
(732,544,l),
(470,544,l),
(470,418,l)
);
}
);
width = 766;
}
);
metricRight = "ra-kawi";
unicode = 73476;
},
{
glyphname = "aa-kawi";
layers = (
{
anchors = (
{
name = top;
pos = (464,544);
},
{
name = topright;
pos = (781,544);
}
);
layerId = m01;
shapes = (
{
closed = 1;
nodes = (
(868,0,l),
(868,396,ls),
(868,491,o),
(812,544,o),
(698,544,cs),
(483,544,l),
(483,468,l),
(703,468,ls),
(753,468,o),
(781,440,o),
(781,390,cs),
(781,0,l)
);
},
{
closed = 1;
nodes = (
(329,-10,o),
(413,37,o),
(413,146,cs),
(413,245,o),
(343,291,o),
(237,291,c),
(237,275,l),
(343,275,o),
(398,324,o),
(398,408,cs),
(398,489,o),
(347,554,o),
(233,554,cs),
(142,554,o),
(93,513,o),
(63,449,c),
(119,418,l),
(145,464,o),
(180,478,o),
(221,478,cs),
(277,478,o),
(306,453,o),
(306,400,cs),
(306,337,o),
(266,321,o),
(232,321,cs),
(171,321,l),
(171,245,l),
(232,245,ls),
(272,245,o),
(321,222,o),
(321,156,cs),
(321,95,o),
(279,66,o),
(226,66,cs),
(180,66,o),
(135,87,o),
(113,141,c),
(47,108,l),
(82,24,o),
(148,-10,o),
(229,-10,cs)
);
},
{
closed = 1;
nodes = (
(623,208,l),
(623,284,l),
(294,284,l),
(344,208,l)
);
},
{
closed = 1;
nodes = (
(664,0,l),
(664,369,ls),
(664,442,o),
(630,488,o),
(557,488,c),
(483,468,l),
(572,468,o),
(577,426,o),
(577,369,cs),
(577,0,l)
);
}
);
width = 953;
},
{
anchors = (
{
name = top;
pos = (414,544);
},
{
name = topright;
pos = (800,544);
}
);
layerId = "FD202070-6699-4318-8E83-95414ED89137";
shapes = (
{
closed = 1;
nodes = (
(947,0,l),
(947,359,ls),
(947,478,o),
(882,544,o),
(750,544,cs),
(480,544,l),
(480,418,l),
(735,418,ls),
(777,418,o),
(800,395,o),
(800,353,cs),
(800,0,l)
);
},
{
closed = 1;
nodes = (
(339,-10,o),
(433,37,o),
(433,147,cs),
(433,245,o),
(355,291,o),
(237,291,c),
(237,275,l),
(356,275,o),
(418,324,o),
(418,410,cs),
(418,489,o),
(365,554,o),
(240,554,cs),
(148,554,o),
(78,519,o),
(38,427,c),
(130,378,l),
(153,418,o),
(179,428,o),
(210,428,cs),
(247,428,o),
(266,412,o),
(266,385,cs),
(266,354,o),
(241,342,o),
(218,342,cs),
(171,342,l),
(171,216,l),
(222,216,ls),
(259,216,o),
(281,200,o),
(281,167,cs),
(281,133,o),
(253,116,o),
(217,116,cs),
(173,116,o),
(148,139,o),
(132,176,c),
(30,126,l),
(68,29,o),
(138,-10,o),
(234,-10,cs)
);
},
{
closed = 1;
nodes = (
(640,193,l),
(640,309,l),
(291,309,l),
(341,193,l)
);
},
{
closed = 1;
nodes = (
(701,0,l),
(701,304,ls),
(701,381,o),
(679,438,o),
(560,438,c),
(488,418,l),
(538,418,o),
(554,402,o),
(554,344,cs),
(554,0,l)
);
}
);
width = 1012;
}
);
metricLeft = "a-kawi";
metricRight = "ka-kawi";
unicode = 73477;
},
{
glyphname = "ai-kawi";
layers = (
{
background = {
shapes = (
{
closed = 1;
nodes = (
(280,-580,o),
(342,-527,o),
(362,-412,c),
(321,-414,l),
(335,-528,o),
(390,-580,o),
(478,-580,cs),
(581,-580,o),
(625,-508,o),
(625,-426,cs),
(625,-346,o),
(584,-298,o),
(507,-274,c),
(480,-330,l),
(513,-350,o),
(536,-372,o),
(536,-421,cs),
(536,-461,o),
(520,-499,o),
(468,-499,cs),
(421,-499,o),
(395,-467,o),
(381,-370,c),
(303,-370,l),
(291,-458,o),
(266,-499,o),
(214,-499,cs),
(175,-499,o),
(147,-476,o),
(147,-410,cs),
(147,-387,ls),
(147,-75,o),
(610,-267,o),
(610,118,cs),
(610,404,ls),
(610,499,o),
(564,554,o),
(473,554,cs),
(388,554,o),
(337,506,o),
(320,396,c),
(347,401,l),
(342,510,o),
(282,554,o),
(202,554,cs),
(105,554,o),
(64,489,o),
(64,404,cs),
(64,145,ls),
(64,35,o),
(113,7,o),
(189,-10,c),
(218,64,l),
(172,79,o),
(151,93,o),
(151,143,cs),
(151,405,ls),
(151,451,o),
(170,473,o),
(211,473,cs),
(258,473,o),
(288,441,o),
(297,344,c),
(375,344,l),
(388,432,o),
(415,473,o),
(463,473,cs),
(497,473,o),
(523,457,o),
(523,405,cs),
(523,118,ls),
(523,-193,o),
(60,-17,o),
(60,-387,cs),
(60,-410,ls),
(60,-508,o),
(103,-580,o),
(198,-580,cs)
);
}
);
};
layerId = m01;
shapes = (
{
closed = 1;
nodes = (
(280,-560,o),
(342,-507,o),
(362,-392,c),
(321,-394,l),
(335,-508,o),
(390,-560,o),
(478,-560,cs),
(581,-560,o),
(625,-488,o),
(625,-406,cs),
(625,-326,o),
(584,-278,o),
(507,-254,c),
(480,-310,l),
(513,-330,o),
(536,-352,o),
(536,-401,cs),
(536,-441,o),
(520,-479,o),
(468,-479,cs),
(421,-479,o),
(395,-447,o),
(381,-350,c),
(303,-350,l),
(291,-438,o),
(266,-479,o),
(214,-479,cs),
(175,-479,o),
(147,-456,o),
(147,-390,cs),
(147,-367,ls),
(147,-64,o),
(610,-252,o),
(610,88,cs),
(610,404,ls),
(610,499,o),
(564,554,o),
(473,554,cs),
(388,554,o),
(337,506,o),
(320,396,c),
(347,401,l),
(342,510,o),
(282,554,o),
(202,554,cs),
(105,554,o),
(64,489,o),
(64,404,cs),
(64,145,ls),
(64,35,o),
(113,7,o),
(189,-10,c),
(218,64,l),
(172,79,o),
(151,93,o),
(151,143,cs),
(151,405,ls),
(151,451,o),
(170,473,o),
(211,473,cs),
(258,473,o),
(288,441,o),
(297,344,c),
(375,344,l),
(388,432,o),
(415,473,o),
(463,473,cs),
(497,473,o),
(523,457,o),
(523,405,cs),
(523,88,ls),
(523,-174,o),
(60,-3,o),
(60,-367,cs),
(60,-390,ls),
(60,-488,o),
(103,-560,o),
(198,-560,cs)
);
}
);
width = 690;
},
{
background = {
shapes = (
{
closed = 1;
nodes = (
(302,-580,o),
(370,-531,o),
(392,-417,c),
(345,-422,l),
(358,-521,o),
(406,-580,o),
(499,-580,cs),
(608,-580,o),
(664,-498,o),
(664,-400,cs),
(664,-311,o),
(617,-255,o),
(521,-221,c),
(464,-320,l),
(505,-338,o),
(525,-358,o),
(525,-398,cs),
(525,-427,o),
(514,-449,o),
(482,-449,cs),
(445,-449,o),
(425,-421,o),
(418,-345,c),
(314,-345,l),
(305,-419,o),
(286,-449,o),
(249,-449,cs),
(224,-449,o),
(206,-433,o),
(206,-386,cs),
(206,-376,ls),
(206,-98,o),
(648,-249,o),
(648,128,cs),
(648,388,ls),
(648,490,o),
(605,554,o),
(498,554,cs),
(400,554,o),
(348,496,o),
(327,362,c),
(400,362,l),
(382,496,o),
(335,554,o),
(235,554,cs),
(133,554,o),
(81,490,o),
(81,388,cs),
(81,145,ls),
(81,51,o),
(115,24,o),
(199,-10,c),
(267,97,l),
(234,115,o),
(227,131,o),
(227,170,cs),
(227,362,ls),
(227,410,o),
(239,428,o),
(264,428,cs),
(295,428,o),
(305,406,o),
(312,340,c),
(415,340,l),
(422,408,o),
(436,428,o),
(462,428,cs),
(486,428,o),
(501,411,o),
(501,362,cs),
(501,128,ls),
(501,-130,o),
(69,-18,o),
(69,-377,cs),
(69,-400,ls),
(69,-509,o),
(129,-580,o),
(223,-580,cs)
);
}
);
};
layerId = "FD202070-6699-4318-8E83-95414ED89137";
shapes = (
{
closed = 1;
nodes = (
(302,-560,o),
(370,-516,o),
(392,-397,c),
(345,-402,l),
(358,-501,o),
(406,-560,o),
(499,-560,cs),
(608,-560,o),
(664,-478,o),
(664,-380,cs),
(664,-291,o),
(617,-235,o),
(521,-201,c),
(464,-300,l),
(505,-318,o),
(525,-338,o),
(525,-378,cs),
(525,-407,o),
(514,-429,o),
(482,-429,cs),
(445,-429,o),
(425,-401,o),
(418,-325,c),
(314,-325,l),
(305,-399,o),
(286,-429,o),
(249,-429,cs),
(224,-429,o),
(206,-413,o),
(206,-366,cs),
(206,-356,ls),
(206,-88,o),
(648,-242,o),
(648,98,cs),
(648,388,ls),
(648,490,o),
(605,554,o),
(498,554,cs),
(400,554,o),
(348,496,o),
(327,362,c),
(400,362,l),
(382,496,o),
(335,554,o),
(235,554,cs),
(133,554,o),
(81,490,o),
(81,388,cs),
(81,145,ls),
(81,51,o),
(115,24,o),
(199,-10,c),
(267,97,l),
(234,115,o),
(227,131,o),
(227,170,cs),
(227,362,ls),
(227,410,o),
(239,428,o),
(264,428,cs),
(295,428,o),
(305,406,o),
(312,340,c),
(415,340,l),
(422,408,o),
(436,428,o),
(462,428,cs),
(486,428,o),
(501,411,o),
(501,362,cs),
(501,98,ls),
(501,-124,o),
(69,6,o),
(69,-357,cs),
(69,-380,ls),
(69,-489,o),
(128,-560,o),
(225,-560,cs)
);
}
);
width = 711;
},
{
associatedMasterId = m01;
layerId = "343D0C24-164B-41FF-B370-DA1FADF4337D";
name = "25 Feb 23 00.11";
shapes = (
{
closed = 1;
nodes = (
(275,-580,o),
(332,-531,o),
(352,-422,c),
(325,-427,l),
(338,-536,o),
(392,-580,o),
(475,-580,cs),
(583,-580,o),
(625,-507,o),
(625,-426,cs),
(625,-346,o),
(584,-298,o),
(507,-274,c),
(480,-330,l),
(513,-350,o),
(536,-372,o),
(536,-421,cs),
(536,-461,o),
(521,-499,o),
(466,-499,cs),
(416,-499,o),
(385,-467,o),
(369,-370,c),
(315,-370,l),
(301,-458,o),
(272,-499,o),
(216,-499,cs),
(175,-499,o),
(147,-477,o),
(147,-410,cs),
(147,-387,ls),
(147,-75,o),
(610,-267,o),
(610,118,cs),
(610,426,ls),
(610,507,o),
(570,554,o),
(494,554,cs),
(417,554,o),
(358,506,o),
(324,396,c),
(351,401,l),
(340,504,o),
(283,554,o),
(202,554,cs),
(105,554,o),
(64,483,o),
(64,388,cs),
(64,145,ls),
(64,35,o),
(113,7,o),
(189,-10,c),
(218,64,l),
(172,79,o),
(151,93,o),
(151,143,cs),
(151,388,ls),
(151,441,o),
(170,473,o),
(213,473,cs),
(259,473,o),
(292,435,o),
(307,344,c),
(361,344,l),
(388,432,o),
(420,473,o),
(472,473,cs),
(503,473,o),
(523,460,o),
(523,417,cs),
(523,118,ls),
(523,-193,o),
(60,-17,o),
(60,-387,cs),
(60,-410,ls),
(60,-518,o),
(106,-580,o),
(195,-580,cs)
);
}
);
width = 690;
},
{
associatedMasterId = "FD202070-6699-4318-8E83-95414ED89137";
background = {
shapes = (
{
closed = 1;
nodes = (
(283,-580,o),
(343,-529,o),
(364,-417,c),
(317,-422,l),
(331,-535,o),
(387,-580,o),
(480,-580,cs),
(606,-580,o),
(657,-498,o),
(657,-403,cs),
(657,-311,o),
(607,-255,o),
(504,-221,c),
(447,-320,l),
(488,-338,o),
(508,-358,o),
(508,-398,cs),
(508,-427,o),
(497,-449,o),
(465,-449,cs),
(431,-449,o),
(408,-423,o),
(396,-345,c),
(292,-345,l),
(283,-416,o),
(265,-449,o),
(225,-449,cs),
(200,-449,o),
(179,-433,o),
(179,-386,cs),
(179,-376,ls),
(179,-98,o),
(648,-249,o),
(648,128,cs),
(648,388,ls),
(648,498,o),
(588,554,o),
(494,554,cs),
(396,554,o),
(337,489,o),
(307,338,c),
(377,338,l),
(360,503,o),
(297,554,o),
(210,554,cs),
(111,554,o),
(58,483,o),
(58,388,cs),
(58,145,ls),
(58,51,o),
(95,24,o),
(177,-10,c),
(243,97,l),
(212,115,o),
(204,132,o),
(204,170,cs),
(204,372,ls),
(204,411,o),
(218,428,o),
(241,428,cs),
(272,428,o),
(283,400,o),
(293,316,c),
(393,316,l),
(403,395,o),
(422,428,o),
(456,428,cs),
(481,428,o),
(501,415,o),
(501,360,cs),
(501,128,ls),
(501,-130,o),
(32,-18,o),
(32,-377,cs),
(32,-400,ls),
(32,-509,o),
(89,-580,o),
(193,-580,cs)
);
}
);
};
layerId = "19F2AC28-19F4-4BCB-886A-EDDA589091F9";
name = "25 Feb 23 00.20";
shapes = (
{
closed = 1;
nodes = (
(283,-580,o),
(343,-529,o),
(364,-417,c),
(317,-422,l),
(331,-535,o),
(387,-580,o),
(480,-580,cs),
(606,-580,o),
(657,-498,o),
(657,-403,cs),
(657,-311,o),
(607,-255,o),
(504,-221,c),
(447,-320,l),
(488,-338,o),
(508,-358,o),
(508,-398,cs),
(508,-427,o),
(497,-449,o),
(465,-449,cs),
(431,-449,o),
(408,-423,o),
(396,-345,c),
(292,-345,l),
(283,-416,o),
(265,-449,o),
(225,-449,cs),
(200,-449,o),
(179,-433,o),
(179,-386,cs),
(179,-376,ls),
(179,-98,o),
(648,-249,o),
(648,128,cs),
(648,388,ls),
(648,498,o),
(588,554,o),
(494,554,cs),
(396,554,o),
(337,489,o),
(307,338,c),
(377,338,l),
(360,503,o),
(297,554,o),
(210,554,cs),
(111,554,o),
(58,483,o),
(58,388,cs),
(58,145,ls),
(58,51,o),
(100,24,o),
(188,-10,c),
(252,97,l),
(216,115,o),
(205,131,o),
(205,170,cs),
(204,372,ls),
(204,411,o),
(218,428,o),
(241,428,cs),
(272,428,o),
(283,400,o),
(293,316,c),
(393,316,l),
(403,395,o),
(422,428,o),
(456,428,cs),
(481,428,o),
(501,415,o),
(501,360,cs),
(501,128,ls),
(501,-130,o),
(32,-18,o),
(32,-377,cs),
(32,-400,ls),
(32,-509,o),
(89,-580,o),
(193,-580,cs)
);
}
);
width = 711;
},
{
associatedMasterId = "FD202070-6699-4318-8E83-95414ED89137";
background = {
shapes = (
{
closed = 1;
nodes = (
(283,-580,o),
(343,-529,o),
(364,-417,c),
(317,-422,l),
(331,-535,o),
(387,-580,o),
(480,-580,cs),
(606,-580,o),
(657,-498,o),
(657,-403,cs),
(657,-311,o),
(607,-255,o),
(504,-221,c),
(447,-320,l),
(488,-338,o),
(508,-358,o),
(508,-398,cs),
(508,-427,o),
(497,-449,o),
(465,-449,cs),
(431,-449,o),
(408,-423,o),
(396,-345,c),
(292,-345,l),
(283,-416,o),
(265,-449,o),
(225,-449,cs),
(200,-449,o),
(179,-433,o),
(179,-386,cs),
(179,-376,ls),
(179,-98,o),
(648,-249,o),
(648,128,cs),
(648,388,ls),
(648,498,o),
(588,554,o),
(494,554,cs),
(396,554,o),
(337,489,o),
(307,338,c),
(377,338,l),
(360,503,o),
(297,554,o),
(210,554,cs),
(111,554,o),
(58,483,o),
(58,388,cs),
(58,145,ls),
(58,51,o),
(100,24,o),
(188,-10,c),
(252,97,l),
(216,115,o),
(205,131,o),
(205,170,cs),
(204,372,ls),
(204,411,o),
(218,428,o),
(241,428,cs),
(272,428,o),
(283,400,o),
(293,316,c),
(393,316,l),
(403,395,o),
(422,428,o),
(456,428,cs),
(481,428,o),
(501,415,o),
(501,360,cs),
(501,128,ls),
(501,-130,o),
(32,-18,o),
(32,-377,cs),
(32,-400,ls),
(32,-509,o),
(89,-580,o),
(193,-580,cs)
);
}
);
};
layerId = "19F9BC2F-64D4-47A9-9E7A-307786198AAB";
name = "6 Mar 23 01.59";
shapes = (
{
closed = 1;
nodes = (
(302,-580,o),
(370,-531,o),
(392,-417,c),
(345,-422,l),
(358,-521,o),
(406,-580,o),
(499,-580,cs),
(608,-580,o),
(664,-498,o),
(664,-400,cs),
(664,-311,o),
(617,-255,o),
(521,-221,c),
(464,-320,l),
(505,-338,o),
(525,-358,o),
(525,-398,cs),
(525,-427,o),
(514,-449,o),
(482,-449,cs),
(445,-449,o),
(425,-421,o),
(418,-345,c),
(314,-345,l),
(305,-419,o),
(286,-449,o),
(249,-449,cs),
(224,-449,o),
(206,-433,o),
(206,-386,cs),
(206,-376,ls),
(206,-98,o),
(648,-249,o),
(648,128,cs),
(648,388,ls),
(648,490,o),
(605,554,o),
(498,554,cs),
(400,554,o),
(348,496,o),
(327,362,c),
(400,362,l),
(382,496,o),
(335,554,o),
(235,554,cs),
(133,554,o),
(81,490,o),
(81,388,cs),
(81,145,ls),
(81,51,o),
(115,24,o),
(199,-10,c),
(267,97,l),
(234,115,o),
(227,131,o),
(227,170,cs),
(227,362,ls),
(227,410,o),
(239,428,o),
(264,428,cs),
(295,428,o),
(305,406,o),
(312,340,c),
(415,340,l),
(422,408,o),
(436,428,o),
(462,428,cs),
(486,428,o),
(501,411,o),
(501,362,cs),
(501,128,ls),
(501,-130,o),
(69,-18,o),
(69,-377,cs),
(69,-400,ls),
(69,-509,o),
(129,-580,o),
(223,-580,cs)
);
}
);
width = 711;
},
{
associatedMasterId = m01;
background = {
shapes = (
{
closed = 1;
nodes = (
(275,-580,o),
(332,-531,o),
(352,-422,c),
(325,-427,l),
(338,-536,o),
(392,-580,o),
(475,-580,cs),
(583,-580,o),
(625,-507,o),
(625,-426,cs),
(625,-346,o),
(584,-298,o),
(507,-274,c),
(480,-330,l),
(513,-350,o),
(536,-372,o),
(536,-421,cs),
(536,-461,o),
(521,-499,o),
(466,-499,cs),
(416,-499,o),
(385,-467,o),
(369,-370,c),
(315,-370,l),
(301,-458,o),
(272,-499,o),
(216,-499,cs),
(175,-499,o),
(147,-477,o),
(147,-410,cs),
(147,-387,ls),
(147,-75,o),
(610,-267,o),
(610,118,cs),
(610,426,ls),
(610,507,o),
(570,554,o),
(494,554,cs),
(417,554,o),
(358,506,o),
(324,396,c),
(351,401,l),
(340,504,o),
(283,554,o),
(202,554,cs),
(105,554,o),
(64,483,o),
(64,388,cs),
(64,145,ls),
(64,35,o),
(113,7,o),
(189,-10,c),
(218,64,l),
(172,79,o),
(151,93,o),
(151,143,cs),
(151,388,ls),
(151,441,o),
(170,473,o),
(213,473,cs),
(259,473,o),
(292,435,o),
(307,344,c),
(361,344,l),
(388,432,o),
(420,473,o),
(472,473,cs),
(503,473,o),
(523,460,o),
(523,417,cs),
(523,118,ls),
(523,-193,o),
(60,-17,o),
(60,-387,cs),
(60,-410,ls),
(60,-518,o),
(106,-580,o),
(195,-580,cs)
);
}
);
};
layerId = "02A36A75-9CCB-4719-BFE2-D25B5DA94AAF";
name = "6 Mar 23 02.00";
shapes = (
{
closed = 1;
nodes = (
(280,-580,o),
(342,-527,o),
(362,-412,c),
(321,-414,l),
(335,-528,o),
(390,-580,o),
(478,-580,cs),
(581,-580,o),
(625,-508,o),
(625,-426,cs),
(625,-346,o),
(584,-298,o),
(507,-274,c),
(480,-330,l),
(513,-350,o),
(536,-372,o),
(536,-421,cs),
(536,-461,o),
(520,-499,o),
(468,-499,cs),
(421,-499,o),
(395,-467,o),
(381,-370,c),
(303,-370,l),
(291,-458,o),
(266,-499,o),
(214,-499,cs),
(175,-499,o),
(147,-476,o),
(147,-410,cs),
(147,-387,ls),
(147,-75,o),
(610,-267,o),
(610,118,cs),
(610,404,ls),
(610,499,o),
(564,554,o),
(473,554,cs),
(388,554,o),
(337,506,o),
(320,396,c),
(347,401,l),
(342,510,o),
(282,554,o),
(202,554,cs),
(105,554,o),
(64,489,o),
(64,404,cs),
(64,145,ls),
(64,35,o),
(113,7,o),
(189,-10,c),
(218,64,l),
(172,79,o),
(151,93,o),
(151,143,cs),
(151,405,ls),
(151,451,o),
(170,473,o),
(211,473,cs),
(258,473,o),
(288,441,o),
(297,344,c),
(375,344,l),
(388,432,o),
(415,473,o),
(463,473,cs),
(497,473,o),
(523,457,o),
(523,405,cs),
(523,118,ls),
(523,-193,o),
(60,-17,o),
(60,-387,cs),
(60,-410,ls),
(60,-508,o),
(103,-580,o),
(198,-580,cs)
);
}
);
width = 690;
}
);
unicode = 73487;
},
{
glyphname = "ba-kawi";
layers = (
{
anchors = (
{
name = bottom;
pos = (645,0);
},
{
name = top;
pos = (374,544);
},
{
name = topright;
pos = (639,544);
}
);
background = {
shapes = (
{
closed = 1;
nodes = (
(381,383,l),
(368,513,o),
(305,554,o),
(226,554,cs),
(123,554,o),
(74,483,o),
(74,388,cs),
(74,148,ls),
(74,53,o),
(130,0,o),
(244,0,cs),
(413,0,ls),
(551,0,o),
(685,60,o),
(685,300,cs),
(685,469,o),
(618,554,o),
(515,554,cs),
(436,554,o),
(379,505,o),
(341,380,c)
);
},
{
closed = 1;
nodes = (
(417,436,o),
(450,478,o),
(499,478,cs),
(544,478,o),
(593,444,o),
(593,300,cs),
(593,116,o),
(513,76,o),
(418,76,cs),
(239,76,ls),
(189,76,o),
(161,104,o),
(161,154,cs),
(161,397,ls),
(161,456,o),
(184,478,o),
(230,478,cs),
(282,478,o),
(315,449,o),
(334,344,c),
(388,344,l)
);
}
);
};
layerId = m01;
shapes = (
{
closed = 1;
nodes = (
(413,0,ls),
(551,0,o),
(685,60,o),
(685,300,cs),
(685,461,o),
(627,554,o),
(507,554,cs),
(418,554,o),
(362,502,o),
(345,396,c),
(372,401,l),
(367,506,o),
(309,554,o),
(223,554,cs),
(122,554,o),
(74,489,o),
(74,404,cs),
(74,148,ls),
(74,53,o),
(130,0,o),
(244,0,cs)
);
},
{
closed = 1;
nodes = (
(189,76,o),
(161,104,o),
(161,154,cs),
(161,405,ls),
(161,451,o),
(188,473,o),
(232,473,cs),
(284,473,o),
(312,441,o),
(322,344,c),
(400,344,l),
(414,432,o),
(446,473,o),
(499,473,cs),
(553,473,o),
(593,432,o),
(593,300,cs),
(593,116,o),
(513,76,o),
(418,76,cs),
(239,76,ls)
);
}
);
width = 727;
},
{
anchors = (
{
name = bottom;
pos = (635,0);
},
{
name = top;
pos = (364,544);
},
{
name = topright;
pos = (629,544);
}
);
layerId = "FD202070-6699-4318-8E83-95414ED89137";
shapes = (
{
closed = 1;
nodes = (
(444,0,ls),
(581,0,o),
(711,68,o),
(711,295,cs),
(711,461,o),
(642,554,o),
(525,554,cs),
(441,554,o),
(362,507,o),
(340,367,c),
(400,367,l),
(385,507,o),
(322,554,o),
(229,554,cs),
(113,554,o),
(55,482,o),
(55,388,cs),
(55,168,ls),
(55,50,o),
(121,0,o),
(255,0,cs)
);
},
{
closed = 1;
nodes = (
(216,126,o),
(202,145,o),
(202,179,cs),
(202,372,ls),
(202,412,o),
(219,428,o),
(249,428,cs),
(287,428,o),
(307,406,o),
(319,329,c),
(422,329,l),
(437,399,o),
(464,428,o),
(498,428,cs),
(531,428,o),
(559,399,o),
(559,297,cs),
(559,163,o),
(510,126,o),
(449,126,cs),
(254,126,ls)
);
}
);
width = 757;
},
{
associatedMasterId = m01;
background = {
shapes = (
{
closed = 1;
nodes = (
(407,0,ls),
(550,0,o),
(662,76,o),
(662,303,cs),
(662,433,o),
(625,554,o),
(491,554,cs),
(414,554,o),
(338,514,o),
(338,358,c),
(400,358,l),
(400,460,o),
(448,478,o),
(483,478,cs),
(551,478,o),
(570,399,o),
(570,303,cs),
(570,95,o),
(479,76,o),
(412,76,cs),
(243,76,ls),
(193,76,o),
(165,104,o),
(165,154,cs),
(165,397,ls),
(165,453,o),
(192,478,o),
(239,478,cs),
(279,478,o),
(320,460,o),
(338,358,c),
(388,358,l),
(375,521,o),
(306,554,o),
(234,554,cs),
(128,554,o),
(78,483,o),
(78,388,cs),
(78,148,ls),
(78,53,o),
(134,0,o),
(248,0,cs)
);
}
);
};
layerId = "FAF141F9-3205-4875-8D86-271C40D79808";
name = "8 Feb 23 01.17";
shapes = (
{
closed = 1;
nodes = (
(407,0,ls),
(550,0,o),
(662,76,o),
(662,303,cs),
(662,433,o),
(625,554,o),
(491,554,cs),
(414,554,o),
(338,514,o),
(338,358,c),
(400,358,l),
(400,460,o),
(448,478,o),
(483,478,cs),
(551,478,o),
(570,399,o),
(570,303,cs),
(570,95,o),
(479,76,o),
(412,76,cs),
(243,76,ls),
(193,76,o),
(165,104,o),
(165,154,cs),
(165,397,ls),
(165,453,o),
(192,478,o),
(239,478,cs),
(279,478,o),
(320,460,o),
(338,358,c),
(388,358,l),
(375,521,o),
(306,554,o),
(234,554,cs),
(128,554,o),
(78,483,o),
(78,388,cs),
(78,148,ls),
(78,53,o),
(134,0,o),
(248,0,cs)
);
}
);
width = 700;
},
{
associatedMasterId = m01;
background = {
shapes = (
{
closed = 1;
nodes = (
(407,0,ls),
(550,0,o),
(662,76,o),
(662,303,cs),
(662,433,o),
(625,554,o),
(491,554,cs),
(414,554,o),
(338,514,o),
(338,358,c),
(400,358,l),
(400,460,o),
(448,478,o),
(483,478,cs),
(551,478,o),
(570,399,o),
(570,303,cs),
(570,95,o),
(479,76,o),
(412,76,cs),
(243,76,ls),
(193,76,o),
(165,104,o),
(165,154,cs),
(165,397,ls),
(165,453,o),
(192,478,o),
(239,478,cs),
(279,478,o),
(320,460,o),
(338,358,c),
(388,358,l),
(375,521,o),
(306,554,o),
(234,554,cs),
(128,554,o),
(78,483,o),
(78,388,cs),
(78,148,ls),
(78,53,o),
(134,0,o),
(248,0,cs)
);
}
);
};
layerId = "1D292864-30A3-4751-A6A7-201A2AA6D1DE";
name = "10 Feb 23 02.04";
shapes = (
{
closed = 1;
nodes = (
(417,0,ls),
(555,0,o),
(669,72,o),
(669,298,cs),
(669,438,o),
(625,554,o),
(492,554,cs),
(419,554,o),
(348,520,o),
(348,388,c),
(374,388,l),
(374,520,o),
(303,554,o),
(231,554,cs),
(127,554,o),
(78,483,o),
(78,388,cs),
(78,148,ls),
(78,53,o),
(134,0,o),
(248,0,cs)
);
},
{
closed = 1;
nodes = (
(193,76,o),
(165,104,o),
(165,154,cs),
(165,397,ls),
(165,454,o),
(192,478,o),
(239,478,cs),
(283,478,o),
(323,457,o),
(323,388,cs),
(323,339,l),
(400,339,l),
(400,388,ls),
(400,448,o),
(438,478,o),
(484,478,cs),
(551,478,o),
(577,414,o),
(577,300,cs),
(577,126,o),
(516,76,o),
(422,76,cs),
(243,76,ls)
);
}
);
width = 731;
},
{
associatedMasterId = m01;
background = {
shapes = (
{
closed = 1;
nodes = (
(413,0,ls),
(551,0,o),
(665,72,o),
(665,298,cs),
(665,438,o),
(621,554,o),
(488,554,cs),
(415,554,o),
(344,520,o),
(344,388,c),
(370,388,l),
(370,520,o),
(299,554,o),
(227,554,cs),
(123,554,o),
(74,483,o),
(74,388,cs),
(74,148,ls),
(74,53,o),
(130,0,o),
(244,0,cs)
);
},
{
closed = 1;
nodes = (
(189,76,o),
(161,104,o),
(161,154,cs),
(161,397,ls),
(161,454,o),
(188,478,o),
(235,478,cs),
(279,478,o),
(319,457,o),
(319,388,cs),
(319,339,l),
(396,339,l),
(396,388,ls),
(396,448,o),
(434,478,o),
(480,478,cs),
(547,478,o),
(573,414,o),
(573,300,cs),
(573,126,o),
(512,76,o),
(418,76,cs),
(239,76,ls)
);
}
);
};
layerId = "EB594F5A-0111-4C07-BA0A-16E1D93A28D8";
name = "5 Mar 23 22.39";
shapes = (
{
closed = 1;
nodes = (
(381,383,l),
(368,513,o),
(305,554,o),
(226,554,cs),
(123,554,o),
(74,483,o),
(74,388,cs),
(74,148,ls),
(74,53,o),
(130,0,o),
(244,0,cs),
(413,0,ls),
(551,0,o),
(685,60,o),
(685,300,cs),
(685,469,o),
(618,554,o),
(515,554,cs),
(436,554,o),
(379,505,o),
(341,380,c)
);
},
{
closed = 1;
nodes = (
(417,436,o),
(450,478,o),
(499,478,cs),
(544,478,o),
(593,444,o),
(593,300,cs),
(593,116,o),
(513,76,o),
(418,76,cs),
(239,76,ls),
(189,76,o),
(161,104,o),
(161,154,cs),
(161,397,ls),
(161,456,o),
(184,478,o),
(230,478,cs),
(282,478,o),
(315,449,o),
(334,344,c),
(388,344,l)
);
}
);
width = 727;
}
);
metricLeft = "ka-kawi";
unicode = 73512;
},
{
glyphname = "bha-kawi";
layers = (
{
anchors = (
{
name = bottom;
pos = (431,0);
},
{
name = top;
pos = (314,544);
},
{
name = topright;
pos = (425,544);
}
);
background = {
shapes = (
{
closed = 1;
nodes = (
(161,0,l),
(161,379,ls),
(161,436,o),
(189,468,o),
(239,468,cs),
(359,468,ls),
(413,468,o),
(436,453,o),
(462,419,c),
(524,466,l),
(490,516,o),
(451,544,o),
(359,544,cs),
(233,544,ls),
(131,544,o),
(74,488,o),
(74,374,cs),
(74,0,l)
);
},
{
closed = 1;
nodes = (
(156,143,l),
(206,184,o),
(261,198,o),
(305,198,cs),
(362,198,o),
(388,170,o),
(388,120,cs),
(388,0,l),
(475,0,l),
(475,126,ls),
(475,221,o),
(420,274,o),
(322,274,cs),
(251,274,o),
(196,249,o),
(141,197,c)
);
}
);
};
layerId = m01;
shapes = (
{
closed = 1;
nodes = (
(161,0,l),
(161,379,ls),
(161,436,o),
(189,468,o),
(239,468,cs),
(359,468,ls),
(413,468,o),
(436,453,o),
(462,419,c),
(524,466,l),
(490,516,o),
(451,544,o),
(359,544,cs),
(233,544,ls),
(131,544,o),
(74,488,o),
(74,374,cs),
(74,0,l)
);
},
{
closed = 1;
nodes = (
(478,117,ls),
(478,265,o),
(411,314,o),
(230,328,c),
(219,264,l),
(349,251,o),
(386,218,o),
(386,118,cs),
(386,0,l),
(478,0,l)
);
}
);
width = 560;
},
{
anchors = (
{
name = bottom;
pos = (455,0);
},
{
name = top;
pos = (330,544);
},
{
name = topright;
pos = (449,544);
}
);
layerId = "FD202070-6699-4318-8E83-95414ED89137";
shapes = (
{
closed = 1;
nodes = (
(202,0,l),
(202,354,ls),
(202,395,o),
(222,418,o),
(258,418,cs),
(368,418,ls),
(406,418,o),
(425,404,o),
(441,373,c),
(559,425,l),
(520,513,o),
(462,544,o),
(370,544,cs),
(257,544,ls),
(128,544,o),
(55,485,o),
(55,364,cs),
(55,0,l)
);
},
{
closed = 1;
nodes = (
(525,117,ls),
(525,258,o),
(478,303,o),
(268,328,c),
(237,214,l),
(350,197,o),
(378,178,o),
(378,118,cs),
(378,0,l),
(525,0,l)
);
}
);
width = 584;
}
);
metricLeft = "ka-kawi";
metricRight = "na-kawi";
unicode = 73513;
},
{
glyphname = "ca-kawi";
layers = (
{
anchors = (
{
name = bottom;
pos = (504,0);
},
{
name = top;
pos = (303,544);
},
{
name = topright;
pos = (498,544);
}
);
background = {
shapes = (
{
closed = 1;
nodes = (
(355,0,ls),
(490,0,o),
(549,73,o),
(549,169,cs),
(549,314,o),
(416,341,o),
(299,349,c),
(286,292,l),
(400,284,o),
(457,255,o),
(457,174,cs),
(457,104,o),
(415,76,o),
(349,76,cs),
(19,76,l),
(19,0,l)
);
},
{
closed = 1;
nodes = (
(205,56,o),
(240,110,o),
(240,190,cs),
(240,374,ls),
(240,442,o),
(213,488,o),
(154,488,c),
(80,468,l),
(150,468,o),
(153,426,o),
(153,364,cs),
(153,200,ls),
(153,126,o),
(147,76,o),
(58,76,c),
(132,56,l)
);
},
{
closed = 1;
nodes = (
(528,466,l),
(494,516,o),
(455,544,o),
(363,544,cs),
(80,544,l),
(80,468,l),
(363,468,ls),
(417,468,o),
(440,453,o),
(466,419,c)
);
}
);
};
layerId = m01;
shapes = (
{
closed = 1;
nodes = (
(205,56,o),
(240,110,o),
(240,190,cs),
(240,524,l),
(193,468,l),
(373,468,ls),
(427,468,o),
(450,453,o),
(476,419,c),
(538,466,l),
(504,516,o),
(465,544,o),
(373,544,cs),
(153,544,l),
(153,200,ls),
(153,126,o),
(148,76,o),
(78,76,c),
(132,56,l)
);
},
{
closed = 1;
nodes = (
(355,0,ls),
(490,0,o),
(549,73,o),
(549,169,cs),
(549,309,o),
(425,340,o),
(299,349,c),
(289,282,l),
(397,275,o),
(457,249,o),
(457,171,cs),
(457,105,o),
(415,76,o),
(349,76,cs),
(39,76,l),
(39,0,l)
);
}
);
width = 600;
},
{
anchors = (
{
name = bottom;
pos = (455,0);
},
{
name = top;
pos = (284,544);
},
{
name = topright;
pos = (449,544);
}
);
background = {
shapes = (
{
closed = 1;
nodes = (
(345,0,ls),
(480,0,o),
(539,73,o),
(539,169,cs),
(539,309,o),
(415,340,o),
(289,349,c),
(279,282,l),
(387,275,o),
(447,249,o),
(447,171,cs),
(447,105,o),
(405,76,o),
(339,76,cs),
(29,76,l),
(29,0,l)
);
},
{
closed = 1;
nodes = (
(195,56,o),
(230,110,o),
(230,190,cs),
(230,544,l),
(143,544,l),
(143,200,ls),
(143,126,o),
(138,76,o),
(68,76,c),
(122,56,l)
);
},
{
closed = 1;
nodes = (
(528,466,l),
(494,516,o),
(455,544,o),
(363,544,cs),
(143,544,l),
(143,468,l),
(363,468,ls),
(417,468,o),
(440,453,o),
(466,419,c)
);
}
);
};
layerId = "FD202070-6699-4318-8E83-95414ED89137";
shapes = (
{
closed = 1;
nodes = (
(208,86,o),
(260,138,o),
(260,215,cs),
(260,474,l),
(183,418,l),
(361,418,ls),
(399,418,o),
(418,404,o),
(434,373,c),
(552,425,l),
(515,513,o),
(460,544,o),
(372,544,cs),
(113,544,l),
(113,225,ls),
(113,166,o),
(109,126,o),
(48,126,c),
(102,86,l)
);
},
{
closed = 1;
nodes = (
(345,0,ls),
(483,0,o),
(544,74,o),
(544,172,cs),
(544,300,o),
(441,333,o),
(330,349,c),
(299,232,l),
(359,224,o),
(392,210,o),
(392,174,cs),
(392,143,o),
(372,126,o),
(339,126,cs),
(29,126,l),
(29,0,l)
);
}
);
width = 585;
},
{
associatedMasterId = m01;
layerId = "A7970482-13CB-411B-90FC-491DB68747F5";
name = "8 Feb 23 02.14";
shapes = (
{
closed = 1;
nodes = (
(487,-10,o),
(549,70,o),
(549,179,cs),
(549,345,o),
(407,359,o),
(341,359,cs),
(203,359,l),
(203,283,l),
(341,283,ls),
(397,283,o),
(457,262,o),
(457,177,cs),
(457,103,o),
(413,66,o),
(348,66,cs),
(301,66,o),
(269,86,o),
(246,144,c),
(194,117,l),
(227,28,o),
(272,-10,o),
(360,-10,cs)
);
},
{
closed = 1;
nodes = (
(192,0,o),
(248,61,o),
(248,156,cs),
(248,520,l),
(161,520,l),
(161,162,ls),
(161,105,o),
(133,76,o),
(81,76,c),
(81,0,l)
);
},
{
closed = 1;
nodes = (
(558,466,l),
(524,516,o),
(485,544,o),
(393,544,cs),
(94,544,l),
(94,468,l),
(393,468,ls),
(447,468,o),
(470,453,o),
(496,419,c)
);
}
);
width = 600;
},
{
associatedMasterId = m01;
background = {
shapes = (
{
closed = 1;
nodes = (
(467,-10,o),
(529,70,o),
(529,179,cs),
(529,345,o),
(387,359,o),
(321,359,cs),
(183,359,l),
(183,283,l),
(321,283,ls),
(377,283,o),
(437,262,o),
(437,177,cs),
(437,103,o),
(393,66,o),
(328,66,cs),
(281,66,o),
(249,86,o),
(226,144,c),
(174,117,l),
(207,28,o),
(252,-10,o),
(340,-10,cs)
);
},
{
closed = 1;
nodes = (
(172,0,o),
(228,61,o),
(228,156,cs),
(228,520,l),
(141,520,l),
(141,162,ls),
(141,105,o),
(113,76,o),
(61,76,c),
(61,0,l)
);
},
{
closed = 1;
nodes = (
(513,544,l),
(141,544,l),
(141,468,l),
(513,468,l)
);
}
);
};
layerId = "69FC7F42-0A4F-4C55-90B8-2C40ED28C8C5";
name = "8 Feb 23 02.18";
shapes = (
{
closed = 1;
nodes = (
(490,-10,o),
(549,67,o),
(549,167,cs),
(549,331,o),
(391,359,o),
(251,368,c),
(235,292,l),
(381,283,o),
(457,260,o),
(457,168,cs),
(457,100,o),
(415,66,o),
(343,66,cs),
(284,66,o),
(238,89,o),
(206,157,c),
(154,130,l),
(194,32,o),
(255,-10,o),
(355,-10,cs)
);
},
{
closed = 1;
nodes = (
(129,153,ls),
(118,105,o),
(103,76,o),
(51,76,c),
(51,0,l),
(160,0,o),
(197,62,o),
(216,147,cs),
(275,409,ls),
(282,440,o),
(295,468,o),
(339,468,cs),
(393,468,ls),
(447,468,o),
(470,453,o),
(496,419,c),
(558,466,l),
(524,516,o),
(485,544,o),
(393,544,cs),
(344,544,ls),
(237,544,o),
(205,490,o),
(188,415,cs)
);
}
);
width = 600;
},
{
associatedMasterId = m01;
background = {
shapes = (
{
closed = 1;
nodes = (
(490,-10,o),
(549,67,o),
(549,167,cs),
(549,331,o),
(391,359,o),
(251,368,c),
(235,292,l),
(381,283,o),
(457,260,o),
(457,168,cs),
(457,100,o),
(415,66,o),
(343,66,cs),
(284,66,o),
(238,89,o),
(206,157,c),
(154,130,l),
(194,32,o),
(255,-10,o),
(355,-10,cs)
);
},
{
closed = 1;
nodes = (
(129,153,ls),
(118,105,o),
(103,76,o),
(51,76,c),
(51,0,l),
(160,0,o),
(197,62,o),
(216,147,cs),
(275,409,ls),
(282,440,o),
(295,468,o),
(339,468,cs),
(393,468,ls),
(447,468,o),
(470,453,o),
(496,419,c),
(558,466,l),
(524,516,o),
(485,544,o),
(393,544,cs),
(344,544,ls),
(237,544,o),
(205,490,o),
(188,415,cs)
);
}
);
};
layerId = "50CA73F2-AFF8-4A82-BDB1-00850000DBEE";
name = "9 Feb 23 21.09";
shapes = (
{
closed = 1;
nodes = (
(490,-10,o),
(549,67,o),
(549,167,cs),
(549,331,o),
(391,359,o),
(251,368,c),
(235,292,l),
(381,283,o),
(457,260,o),
(457,168,cs),
(457,100,o),
(415,66,o),
(343,66,cs),
(284,66,o),
(238,89,o),
(206,157,c),
(154,130,l),
(194,32,o),
(255,-10,o),
(355,-10,cs)
);
},
{
closed = 1;
nodes = (
(129,153,ls),
(118,105,o),
(103,76,o),
(51,76,c),
(51,0,l),
(160,0,o),
(197,62,o),
(216,147,cs),
(275,409,ls),
(282,440,o),
(295,468,o),
(339,468,cs),
(543,468,l),
(543,544,l),
(344,544,ls),
(237,544,o),
(205,490,o),
(188,415,cs)
);
}
);
width = 600;
},
{
associatedMasterId = m01;
background = {
shapes = (
{
closed = 1;
nodes = (
(490,-10,o),
(549,67,o),
(549,167,cs),
(549,331,o),
(391,359,o),
(251,368,c),
(235,292,l),
(381,283,o),
(457,260,o),
(457,168,cs),
(457,100,o),
(415,66,o),
(343,66,cs),
(284,66,o),
(238,89,o),
(206,157,c),
(154,130,l),
(194,32,o),
(255,-10,o),
(355,-10,cs)
);
},
{
closed = 1;
nodes = (
(129,153,ls),
(118,105,o),
(103,76,o),
(51,76,c),
(51,0,l),
(160,0,o),
(197,62,o),
(216,147,cs),
(275,409,ls),
(282,440,o),
(295,468,o),
(339,468,cs),
(543,468,l),
(543,544,l),
(344,544,ls),
(237,544,o),
(205,490,o),
(188,415,cs)
);
}
);
};
layerId = "9D605323-AC8A-4FA5-9DF9-C5EEB98C7864";
name = "10 Feb 23 01.51";
shapes = (
{
closed = 1;
nodes = (
(160,0,o),
(197,62,o),
(216,147,cs),
(296,500,l),
(277,468,l),
(543,468,l),
(543,544,l),
(213,544,l),
(129,153,ls),
(117,99,o),
(103,66,o),
(41,66,c),
(41,0,l)
);
},
{
closed = 1;
nodes = (
(490,-10,o),
(549,67,o),
(549,167,cs),
(549,331,o),
(391,359,o),
(251,368,c),
(235,292,l),
(381,283,o),
(457,260,o),
(457,168,cs),
(457,100,o),
(415,66,o),
(343,66,cs),
(285,66,o),
(231,85,o),
(219,167,c),
(167,150,l),
(187,25,o),
(257,-10,o),
(355,-10,cs)
);
}
);
width = 600;
},
{
associatedMasterId = m01;
background = {
shapes = (
{
closed = 1;
nodes = (
(160,0,o),
(197,62,o),
(216,147,cs),
(296,500,l),
(277,468,l),
(543,468,l),
(543,544,l),
(213,544,l),
(129,153,ls),
(117,99,o),
(103,66,o),
(41,66,c),
(41,0,l)
);
},
{
closed = 1;
nodes = (
(490,-10,o),
(549,67,o),
(549,167,cs),
(549,331,o),
(391,359,o),
(251,368,c),
(235,292,l),
(381,283,o),
(457,260,o),
(457,168,cs),
(457,100,o),
(415,66,o),
(343,66,cs),
(285,66,o),
(231,85,o),
(219,167,c),
(167,150,l),
(187,25,o),
(257,-10,o),
(355,-10,cs)
);
}
);
};
layerId = "18416CCD-CFA0-41CB-8ECD-615778B05A98";
name = "10 Feb 23 01.51";
shapes = (
{
closed = 1;
nodes = (
(160,0,o),
(197,62,o),
(216,147,cs),
(296,500,l),
(277,468,l),
(543,468,l),
(543,544,l),
(213,544,l),
(129,153,ls),
(117,99,o),
(103,66,o),
(41,66,c),
(41,0,l)
);
},
{
closed = 1;
nodes = (
(490,-10,o),
(549,67,o),
(549,167,cs),
(549,331,o),
(391,359,o),
(251,368,c),
(235,292,l),
(381,283,o),
(457,260,o),
(457,168,cs),
(457,100,o),
(415,66,o),
(343,66,cs),
(285,66,o),
(231,85,o),
(219,167,c),
(167,150,l),
(187,25,o),
(257,-10,o),
(355,-10,cs)
);
}
);
width = 600;
},
{
associatedMasterId = m01;
background = {
shapes = (
{
closed = 1;
nodes = (
(160,0,o),
(197,62,o),
(216,147,cs),
(296,500,l),
(277,468,l),
(543,468,l),
(543,544,l),
(213,544,l),
(129,153,ls),
(117,99,o),
(103,66,o),
(41,66,c),
(41,0,l)
);
},
{
closed = 1;
nodes = (
(490,-10,o),
(549,67,o),
(549,167,cs),
(549,331,o),
(391,359,o),
(251,368,c),
(235,292,l),
(381,283,o),
(457,260,o),
(457,168,cs),
(457,100,o),
(415,66,o),
(343,66,cs),
(285,66,o),
(231,85,o),
(219,167,c),
(167,150,l),
(187,25,o),
(257,-10,o),
(355,-10,cs)
);
}
);
};
layerId = "44910E3D-D12A-494A-8069-6B0723D34EB7";
name = "10 Feb 23 01.54";
shapes = (
{
closed = 1;
nodes = (
(355,0,ls),
(490,0,o),
(549,73,o),
(549,169,cs),
(549,314,o),
(416,341,o),
(299,349,c),
(286,292,l),
(400,284,o),
(457,255,o),
(457,174,cs),
(457,104,o),
(415,76,o),
(349,76,cs),
(19,76,l),
(19,0,l)
);
},
{
closed = 1;
nodes = (
(205,56,o),
(240,110,o),
(240,190,cs),
(240,374,ls),
(240,442,o),
(213,488,o),
(154,488,c),
(80,468,l),
(150,468,o),
(153,426,o),
(153,364,cs),
(153,200,ls),
(153,126,o),
(147,76,o),
(58,76,c),
(132,56,l)
);
},
{
closed = 1;
nodes = (
(528,466,l),
(494,516,o),
(455,544,o),
(363,544,cs),
(80,544,l),
(80,468,l),
(363,468,ls),
(417,468,o),
(440,453,o),
(466,419,c)
);
}
);
width = 600;
}
);
unicode = 73495;
},
{
glyphname = "cha-kawi";
layers = (
{
anchors = (
{
name = bottom;
pos = (628,0);
},
{
name = top;
pos = (377,544);
},
{
name = topright;
pos = (622,544);
}
);
background = {
shapes = (
{
closed = 1;
nodes = (
(298,-10,o),
(348,70,o),
(365,250,cs),
(389,501,l),
(354,468,l),
(503,468,ls),
(557,468,o),
(580,453,o),
(606,419,c),
(668,466,l),
(634,516,o),
(595,544,o),
(503,544,cs),
(306,544,l),
(277,250,ls),
(264,117,o),
(248,65,o),
(185,65,cs),
(130,65,o),
(111,104,o),
(111,147,cs),
(111,196,o),
(136,234,o),
(189,234,cs),
(230,234,o),
(258,212,o),
(285,172,c),
(302,224,l),
(279,274,o),
(235,303,o),
(175,303,cs),
(78,303,o),
(26,231,o),
(26,145,cs),
(26,53,o),
(86,-10,o),
(182,-10,cs)
);
},
{
closed = 1;
nodes = (
(618,-10,o),
(679,67,o),
(679,167,cs),
(679,309,o),
(555,340,o),
(429,349,c),
(419,282,l),
(527,275,o),
(587,250,o),
(587,167,cs),
(587,101,o),
(550,70,o),
(489,70,cs),
(414,70,o),
(383,116,o),
(351,177,c),
(310,144,l),
(350,52,o),
(399,-10,o),
(503,-10,cs)
);
}
);
};
layerId = m01;
shapes = (
{
closed = 1;
nodes = (
(297,-10,o),
(348,70,o),
(365,250,cs),
(389,501,l),
(354,468,l),
(503,468,ls),
(557,468,o),
(580,453,o),
(606,419,c),
(668,466,l),
(634,516,o),
(595,544,o),
(503,544,cs),
(306,544,l),
(277,250,ls),
(264,117,o),
(248,65,o),
(185,65,cs),
(130,65,o),
(111,104,o),
(111,147,cs),
(111,196,o),
(136,234,o),
(189,234,cs),
(230,234,o),
(261,209,o),
(282,162,c),
(302,234,l),
(279,278,o),
(237,303,o),
(177,303,cs),
(76,303,o),
(26,232,o),
(26,144,cs),
(26,53,o),
(85,-10,o),
(185,-10,cs)
);
},
{
closed = 1;
nodes = (
(618,-10,o),
(679,67,o),
(679,167,cs),
(679,309,o),
(555,340,o),
(429,349,c),
(419,282,l),
(527,275,o),
(587,250,o),
(587,167,cs),
(587,101,o),
(550,70,o),
(489,70,cs),
(414,70,o),
(383,116,o),
(351,177,c),
(310,124,l),
(350,48,o),
(399,-10,o),
(503,-10,cs)
);
}
);
width = 727;
},
{
anchors = (
{
name = bottom;
pos = (612,0);
},
{
name = top;
pos = (371,544);
},
{
name = topright;
pos = (606,544);
}
);
background = {
shapes = (
{
closed = 1;
nodes = (
(314,-10,o),
(378,70,o),
(395,250,cs),
(419,501,l),
(343,418,l),
(521,418,ls),
(559,418,o),
(578,404,o),
(594,373,c),
(712,425,l),
(675,513,o),
(620,544,o),
(532,544,cs),
(276,544,l),
(245,230,ls),
(237,153,o),
(231,115,o),
(184,115,cs),
(153,115,o),
(141,133,o),
(141,153,cs),
(141,176,o),
(156,194,o),
(189,194,cs),
(218,194,o),
(238,179,o),
(257,149,c),
(282,254,l),
(261,288,o),
(226,313,o),
(171,313,cs),
(72,313,o),
(16,241,o),
(16,151,cs),
(16,58,o),
(78,-10,o),
(189,-10,cs)
);
},
{
closed = 1;
nodes = (
(620,-10,o),
(689,61,o),
(689,172,cs),
(689,320,o),
(565,351,o),
(464,359,c),
(435,247,l),
(500,242,o),
(537,227,o),
(537,177,cs),
(537,143,o),
(520,120,o),
(481,120,cs),
(425,120,o),
(390,171,o),
(369,204,c),
(327,92,l),
(364,36,o),
(409,-10,o),
(503,-10,cs)
);
}
);
};
layerId = "FD202070-6699-4318-8E83-95414ED89137";
shapes = (
{
closed = 1;
nodes = (
(316,-10,o),
(390,92,o),
(406,260,cs),
(429,501,l),
(353,418,l),
(531,418,ls),
(569,418,o),
(588,404,o),
(604,373,c),
(722,425,l),
(685,513,o),
(630,544,o),
(542,544,cs),
(286,544,l),
(255,230,ls),
(247,146,o),
(234,105,o),
(188,105,cs),
(155,105,o),
(141,127,o),
(141,154,cs),
(141,182,o),
(158,204,o),
(194,204,cs),
(225,204,o),
(247,186,o),
(267,149,c),
(292,254,l),
(271,288,o),
(236,313,o),
(179,313,cs),
(83,313,o),
(26,241,o),
(26,153,cs),
(26,58,o),
(91,-10,o),
(192,-10,cs)
);
},
{
closed = 1;
nodes = (
(630,-10,o),
(699,61,o),
(699,172,cs),
(699,320,o),
(575,351,o),
(474,359,c),
(445,247,l),
(510,242,o),
(547,227,o),
(547,177,cs),
(547,143,o),
(530,120,o),
(491,120,cs),
(435,120,o),
(400,171,o),
(379,204,c),
(337,92,l),
(374,36,o),
(419,-10,o),
(513,-10,cs)
);
}
);
width = 720;
},
{
associatedMasterId = m01;
layerId = "5A6FCD6C-AAA3-4192-B80A-7D46FF5C018B";
name = "19 Feb 23 00.32";
shapes = (
{
closed = 1;
nodes = (
(545,70,o),
(587,101,o),
(587,171,cs),
(587,249,o),
(527,275,o),
(419,282,c),
(429,349,l),
(555,340,o),
(679,309,o),
(679,169,cs),
(679,67,o),
(620,-10,o),
(499,-10,cs),
(324,-10,o),
(318,230,o),
(191,230,cs),
(138,230,o),
(116,192,o),
(116,142,cs),
(116,106,o),
(129,70,o),
(185,70,cs),
(255,70,o),
(264,121,o),
(283,310,cs),
(306,544,l),
(393,544,l),
(370,300,ls),
(348,70,o),
(308,-10,o),
(178,-10,cs),
(87,-10,o),
(36,51,o),
(36,138,cs),
(36,230,o),
(97,303,o),
(190,303,cs),
(381,303,o),
(368,70,o),
(503,70,cs)
);
},
{
closed = 1;
nodes = (
(668,466,l),
(634,516,o),
(595,544,o),
(503,544,cs),
(306,544,l),
(341,468,l),
(503,468,ls),
(557,468,o),
(580,453,o),
(606,419,c)
);
}
);
width = 730;
},
{
associatedMasterId = "FD202070-6699-4318-8E83-95414ED89137";
layerId = "F7B71278-CE0B-472A-947D-F17F10488E12";
name = "23 Feb 23 20.43";
shapes = (
{
closed = 1;
nodes = (
(314,-10,o),
(378,70,o),
(395,250,cs),
(419,501,l),
(343,418,l),
(521,418,ls),
(559,418,o),
(578,404,o),
(594,373,c),
(712,425,l),
(675,513,o),
(620,544,o),
(532,544,cs),
(276,544,l),
(245,230,ls),
(237,153,o),
(231,115,o),
(184,115,cs),
(153,115,o),
(141,133,o),
(141,153,cs),
(141,176,o),
(156,194,o),
(189,194,cs),
(218,194,o),
(238,179,o),
(257,149,c),
(282,254,l),
(261,288,o),
(226,313,o),
(171,313,cs),
(72,313,o),
(16,241,o),
(16,151,cs),
(16,58,o),
(78,-10,o),
(189,-10,cs)
);
},
{
closed = 1;
nodes = (
(620,-10,o),
(689,61,o),
(689,172,cs),
(689,320,o),
(565,351,o),
(464,359,c),
(435,247,l),
(500,242,o),
(537,227,o),
(537,177,cs),
(537,143,o),
(520,120,o),
(481,120,cs),
(425,120,o),
(390,171,o),
(369,204,c),
(327,92,l),
(364,36,o),
(409,-10,o),
(503,-10,cs)
);
}
);
width = 720;
},
{
associatedMasterId = m01;
background = {
shapes = (
{
closed = 1;
nodes = (
(545,70,o),
(587,101,o),
(587,171,cs),
(587,249,o),
(527,275,o),
(419,282,c),
(429,349,l),
(555,340,o),
(679,309,o),
(679,169,cs),
(679,67,o),
(620,-10,o),
(499,-10,cs),
(324,-10,o),
(318,230,o),
(191,230,cs),
(138,230,o),
(116,192,o),
(116,142,cs),
(116,106,o),
(129,70,o),
(185,70,cs),
(255,70,o),
(264,121,o),
(283,310,cs),
(306,544,l),
(393,544,l),
(370,300,ls),
(348,70,o),
(308,-10,o),
(178,-10,cs),
(87,-10,o),
(36,51,o),
(36,138,cs),
(36,230,o),
(97,303,o),
(190,303,cs),
(381,303,o),
(368,70,o),
(503,70,cs)
);
},
{
closed = 1;
nodes = (
(668,466,l),
(634,516,o),
(595,544,o),
(503,544,cs),
(306,544,l),
(341,468,l),
(503,468,ls),
(557,468,o),
(580,453,o),
(606,419,c)
);
}
);
};
layerId = "5C796681-7DC2-41BA-B7DF-9D2CEC34BF31";
name = "6 Mar 23 01.15";
shapes = (
{
closed = 1;
nodes = (
(298,-10,o),
(348,70,o),
(365,250,cs),
(389,501,l),
(354,468,l),
(503,468,ls),
(557,468,o),
(580,453,o),
(606,419,c),
(668,466,l),
(634,516,o),
(595,544,o),
(503,544,cs),
(306,544,l),
(277,250,ls),
(264,117,o),
(248,65,o),
(185,65,cs),
(130,65,o),
(111,104,o),
(111,147,cs),
(111,196,o),
(136,234,o),
(189,234,cs),
(230,234,o),
(258,212,o),
(285,172,c),
(302,224,l),
(279,274,o),
(235,303,o),
(175,303,cs),
(78,303,o),
(26,231,o),
(26,145,cs),
(26,53,o),
(86,-10,o),
(182,-10,cs)
);
},
{
closed = 1;
nodes = (
(618,-10,o),
(679,67,o),
(679,167,cs),
(679,309,o),
(555,340,o),
(429,349,c),
(419,282,l),
(527,275,o),
(587,250,o),
(587,167,cs),
(587,101,o),
(550,70,o),
(489,70,cs),
(414,70,o),
(383,116,o),
(351,177,c),
(310,144,l),
(350,52,o),
(399,-10,o),
(503,-10,cs)
);
}
);
width = 727;
}
);
unicode = 73496;
},
{
glyphname = "da-kawi";
layers = (
{
anchors = (
{
name = bottom;
pos = (515,0);
},
{
name = top;
pos = (310,544);
},
{
name = topright;
pos = (509,544);
}
);
background = {
shapes = (
{
closed = 1;
nodes = (
(554,-2,l),
(544,114,o),
(495,168,o),
(416,168,cs),
(310,168,o),
(301,71,o),
(218,71,cs),
(176,71,o),
(149,95,o),
(149,159,cs),
(149,193,ls),
(149,374,o),
(206,467,o),
(356,467,cs),
(416,467,o),
(449,452,o),
(481,415,c),
(542,465,l),
(503,515,o),
(449,543,o),
(356,543,cs),
(159,543,o),
(62,419,o),
(62,198,cs),
(62,159,ls),
(62,55,o),
(119,-11,o),
(215,-11,cs),
(331,-11,o),
(344,89,o),
(414,89,cs),
(444,89,o),
(473,69,o),
(483,-12,c)
);
}
);
};
layerId = m01;
shapes = (
{
closed = 1;
nodes = (
(560,-2,l),
(550,114,o),
(498,172,o),
(416,172,cs),
(308,172,o),
(289,71,o),
(214,71,cs),
(178,71,o),
(149,94,o),
(149,159,cs),
(149,379,ls),
(149,436,o),
(177,468,o),
(227,468,cs),
(390,468,ls),
(444,468,o),
(467,453,o),
(493,419,c),
(555,466,l),
(521,516,o),
(482,544,o),
(390,544,cs),
(221,544,ls),
(119,544,o),
(62,488,o),
(62,374,cs),
(62,159,ls),
(62,45,o),
(119,-11,o),
(209,-11,cs),
(330,-11,o),
(345,89,o),
(414,89,cs),
(444,89,o),
(473,69,o),
(483,-12,c)
);
}
);
width = 600;
},
{
anchors = (
{
name = bottom;
pos = (515,0);
},
{
name = top;
pos = (317,544);
},
{
name = topright;
pos = (509,544);
}
);
layerId = "FD202070-6699-4318-8E83-95414ED89137";
shapes = (
{
closed = 1;
nodes = (
(578,17,l),
(565,132,o),
(505,190,o),
(422,190,cs),
(330,190,o),
(293,121,o),
(243,121,cs),
(219,121,o),
(206,137,o),
(206,163,cs),
(206,354,ls),
(206,395,o),
(224,418,o),
(256,418,cs),
(392,418,ls),
(430,418,o),
(449,404,o),
(465,373,c),
(583,425,l),
(546,513,o),
(491,544,o),
(403,544,cs),
(258,544,ls),
(131,544,o),
(59,485,o),
(59,364,cs),
(59,159,ls),
(59,55,o),
(118,-11,o),
(216,-11,cs),
(322,-11,o),
(344,67,o),
(402,67,cs),
(427,67,o),
(453,53,o),
(463,-12,c)
);
}
);
width = 608;
},
{
associatedMasterId = m01;
background = {
shapes = (
{
closed = 1;
nodes = (
(64,49,o),
(120,-10,o),
(213,-10,cs),
(334,-10,o),
(341,90,o),
(417,90,cs),
(452,90,o),
(475,70,o),
(485,-11,c),
(556,-1,l),
(546,115,o),
(502,169,o),
(422,169,cs),
(315,169,o),
(310,72,o),
(223,72,cs),
(180,72,o),
(151,96,o),
(151,160,cs),
(151,194,ls),
(151,375,o),
(210,468,o),
(360,468,cs),
(420,468,o),
(451,453,o),
(483,416,c),
(544,466,l),
(505,516,o),
(453,544,o),
(360,544,cs),
(163,544,o),
(64,420,o),
(64,199,cs),
(64,160,ls)
);
}
);
};
layerId = "6FEA8CD2-3342-4DA6-ACFF-9B68C9B1B0B2";
name = "19 Feb 23 00.37";
shapes = (
{
closed = 1;
nodes = (
(554,-2,l),
(544,114,o),
(495,168,o),
(416,168,cs),
(310,168,o),
(301,71,o),
(218,71,cs),
(176,71,o),
(149,95,o),
(149,159,cs),
(149,193,ls),
(149,374,o),
(206,467,o),
(356,467,cs),
(416,467,o),
(449,452,o),
(481,415,c),
(542,465,l),
(503,515,o),
(449,543,o),
(356,543,cs),
(159,543,o),
(62,419,o),
(62,198,cs),
(62,159,ls),
(62,55,o),
(119,-11,o),
(215,-11,cs),
(331,-11,o),
(344,89,o),
(414,89,cs),
(444,89,o),
(473,69,o),
(483,-12,c)
);
}
);
width = 600;
}
);
unicode = 73507;
},
{
glyphname = "dda-kawi";
layers = (
{
anchors = (
{
name = bottom;
pos = (612,0);
},
{
name = top;
pos = (361,544);
},
{
name = topright;
pos = (606,544);
}
);
background = {
shapes = (
{
closed = 1;
nodes = (
(291,-10,o),
(355,39,o),
(377,148,c),
(350,143,l),
(363,34,o),
(419,-10,o),
(505,-10,cs),
(615,-10,o),
(659,62,o),
(659,145,cs),
(659,224,o),
(619,273,o),
(543,297,c),
(516,241,l),
(549,218,o),
(570,198,o),
(570,151,cs),
(570,108,o),
(553,71,o),
(496,71,cs),
(443,71,o),
(411,103,o),
(394,200,c),
(340,200,l),
(323,112,o),
(291,71,o),
(226,71,cs),
(189,71,o),
(161,85,o),
(161,132,cs),
(161,379,ls),
(161,436,o),
(189,468,o),
(239,468,cs),
(489,468,ls),
(543,468,o),
(566,453,o),
(592,419,c),
(654,466,l),
(620,516,o),
(581,544,o),
(489,544,cs),
(233,544,ls),
(131,544,o),
(74,488,o),
(74,374,cs),
(74,136,ls),
(74,44,o),
(118,-10,o),
(207,-10,cs)
);
}
);
};
layerId = m01;
shapes = (
{
closed = 1;
nodes = (
(309,-10,o),
(367,38,o),
(372,143,c),
(345,148,l),
(362,42,o),
(417,-10,o),
(505,-10,cs),
(615,-10,o),
(659,62,o),
(659,145,cs),
(659,224,o),
(619,273,o),
(543,297,c),
(516,241,l),
(549,218,o),
(570,198,o),
(570,151,cs),
(570,108,o),
(553,71,o),
(496,71,cs),
(445,71,o),
(414,112,o),
(400,200,c),
(322,200,l),
(312,103,o),
(284,71,o),
(232,71,cs),
(188,71,o),
(161,93,o),
(161,139,cs),
(161,379,ls),
(161,436,o),
(189,468,o),
(239,468,cs),
(489,468,ls),
(543,468,o),
(566,453,o),
(592,419,c),
(654,466,l),
(620,516,o),
(581,544,o),
(489,544,cs),
(233,544,ls),
(131,544,o),
(74,488,o),
(74,374,cs),
(74,140,ls),
(74,55,o),
(122,-10,o),
(223,-10,cs)
);
}
);
width = 718;
},
{
anchors = (
{
name = bottom;
pos = (586,0);
},
{
name = top;
pos = (365,544);
},
{
name = topright;
pos = (580,544);
}
);
layerId = "FD202070-6699-4318-8E83-95414ED89137";
shapes = (
{
closed = 1;
nodes = (
(307,-10,o),
(363,40,o),
(379,163,c),
(339,158,l),
(351,35,o),
(409,-10,o),
(499,-10,cs),
(622,-10,o),
(670,73,o),
(670,154,cs),
(670,239,o),
(621,290,o),
(529,326,c),
(473,227,l),
(505,209,o),
(520,191,o),
(520,164,cs),
(520,139,o),
(508,121,o),
(478,121,cs),
(446,121,o),
(427,142,o),
(416,201,c),
(313,201,l),
(304,146,o),
(287,121,o),
(250,121,cs),
(223,121,o),
(202,138,o),
(202,184,cs),
(202,354,ls),
(202,395,o),
(224,418,o),
(261,418,cs),
(461,418,ls),
(507,418,o),
(532,405,o),
(553,373,c),
(661,425,l),
(622,513,o),
(565,544,o),
(471,544,cs),
(261,544,ls),
(130,544,o),
(55,485,o),
(55,364,cs),
(55,180,ls),
(55,59,o),
(116,-10,o),
(219,-10,cs)
);
}
);
width = 718;
},
{
associatedMasterId = m01;
layerId = "6A47C4C9-638C-414F-87F0-BBDF62F37EA3";
name = "19 Feb 23 00.35";
shapes = (
{
closed = 1;
nodes = (
(343,-10,o),
(407,39,o),
(429,148,c),
(402,143,l),
(415,34,o),
(470,-10,o),
(560,-10,cs),
(674,-10,o),
(721,62,o),
(721,149,cs),
(721,233,o),
(678,289,o),
(597,316,c),
(570,260,l),
(606,235,o),
(632,206,o),
(632,154,cs),
(632,108,o),
(612,71,o),
(551,71,cs),
(494,71,o),
(463,103,o),
(446,200,c),
(392,200,l),
(375,112,o),
(343,71,o),
(278,71,cs),
(241,71,o),
(213,85,o),
(213,132,cs),
(213,360,ls),
(213,438,o),
(179,488,o),
(106,488,c),
(42,468,l),
(122,468,o),
(126,423,o),
(126,360,cs),
(126,136,ls),
(126,44,o),
(170,-10,o),
(259,-10,cs)
);
},
{
closed = 1;
nodes = (
(250,468,l),
(250,544,l),
(42,544,l),
(42,468,l)
);
}
);
width = 780;
},
{
associatedMasterId = m01;
background = {
shapes = (
{
closed = 1;
nodes = (
(291,-10,o),
(355,39,o),
(377,148,c),
(350,143,l),
(363,34,o),
(418,-10,o),
(508,-10,cs),
(622,-10,o),
(669,62,o),
(669,149,cs),
(669,233,o),
(626,289,o),
(545,316,c),
(518,260,l),
(554,235,o),
(580,206,o),
(580,154,cs),
(580,108,o),
(560,71,o),
(499,71,cs),
(442,71,o),
(411,103,o),
(394,200,c),
(340,200,l),
(323,112,o),
(291,71,o),
(226,71,cs),
(189,71,o),
(161,85,o),
(161,132,cs),
(161,360,ls),
(161,438,o),
(127,488,o),
(54,488,c),
(-10,468,l),
(70,468,o),
(74,423,o),
(74,360,cs),
(74,136,ls),
(74,44,o),
(118,-10,o),
(207,-10,cs)
);
},
{
closed = 1;
nodes = (
(198,468,l),
(198,544,l),
(-10,544,l),
(-10,468,l)
);
}
);
};
layerId = "2A6E2BCA-EEAE-4066-BCF4-51E0181F8E3D";
name = "5 Mar 23 22.48";
shapes = (
{
closed = 1;
nodes = (
(291,-10,o),
(355,39,o),
(377,148,c),
(350,143,l),
(363,34,o),
(419,-10,o),
(505,-10,cs),
(615,-10,o),
(659,62,o),
(659,145,cs),
(659,224,o),
(619,273,o),
(543,297,c),
(516,241,l),
(549,218,o),
(570,198,o),
(570,151,cs),
(570,108,o),
(553,71,o),
(496,71,cs),
(443,71,o),
(411,103,o),
(394,200,c),
(340,200,l),
(323,112,o),
(291,71,o),
(226,71,cs),
(189,71,o),
(161,85,o),
(161,132,cs),
(161,379,ls),
(161,436,o),
(189,468,o),
(239,468,cs),
(489,468,ls),
(543,468,o),
(566,453,o),
(592,419,c),
(654,466,l),
(620,516,o),
(581,544,o),
(489,544,cs),
(233,544,ls),
(131,544,o),
(74,488,o),
(74,374,cs),
(74,136,ls),
(74,44,o),
(118,-10,o),
(207,-10,cs)
);
}
);
width = 718;
}
);
metricLeft = "ka-kawi";
unicode = 73502;
},
{
glyphname = "ddha-kawi";
layers = (
{
anchors = (
{
name = bottom;
pos = (615,0);
},
{
name = top;
pos = (354,544);
},
{
name = topright;
pos = (609,544);
}
);
background = {
shapes = (
{
closed = 1;
nodes = (
(281,-10,o),
(345,39,o),
(367,148,c),
(340,143,l),
(353,34,o),
(409,-10,o),
(493,-10,cs),
(614,-10,o),
(655,80,o),
(655,186,cs),
(655,306,o),
(602,357,o),
(530,357,cs),
(469,357,o),
(429,320,o),
(429,260,cs),
(429,182,o),
(501,143,o),
(584,178,c),
(589,225,l),
(544,210,o),
(492,219,o),
(492,260,cs),
(492,280,o),
(505,292,o),
(524,292,cs),
(552,292,o),
(573,266,o),
(573,190,cs),
(573,116,o),
(553,66,o),
(486,66,cs),
(434,66,o),
(401,99,o),
(384,200,c),
(330,200,l),
(313,112,o),
(281,71,o),
(216,71,cs),
(179,71,o),
(151,85,o),
(151,132,cs),
(151,379,ls),
(151,436,o),
(179,468,o),
(229,468,cs),
(479,468,ls),
(533,468,o),
(556,453,o),
(582,419,c),
(644,466,l),
(610,516,o),
(571,544,o),
(479,544,cs),
(223,544,ls),
(121,544,o),
(64,488,o),
(64,374,cs),
(64,136,ls),
(64,44,o),
(108,-10,o),
(197,-10,cs)
);
}
);
};
layerId = m01;
shapes = (
{
closed = 1;
nodes = (
(299,-10,o),
(357,33,o),
(362,128,c),
(335,133,l),
(352,37,o),
(406,-10,o),
(493,-10,cs),
(614,-10,o),
(655,80,o),
(655,186,cs),
(655,306,o),
(602,357,o),
(530,357,cs),
(467,357,o),
(425,320,o),
(425,260,cs),
(425,178,o),
(499,138,o),
(584,168,c),
(589,225,l),
(544,210,o),
(493,219,o),
(493,260,cs),
(493,280,o),
(506,292,o),
(524,292,cs),
(552,292,o),
(573,265,o),
(573,192,cs),
(573,118,o),
(552,71,o),
(489,71,cs),
(434,71,o),
(404,107,o),
(390,185,c),
(312,185,l),
(302,99,o),
(274,71,o),
(222,71,cs),
(178,71,o),
(151,93,o),
(151,139,cs),
(151,379,ls),
(151,436,o),
(179,468,o),
(229,468,cs),
(479,468,ls),
(533,468,o),
(556,453,o),
(582,419,c),
(644,466,l),
(610,516,o),
(571,544,o),
(479,544,cs),
(223,544,ls),
(121,544,o),
(64,488,o),
(64,374,cs),
(64,140,ls),
(64,55,o),
(112,-10,o),
(213,-10,cs)
);
}
);
width = 700;
},
{
anchors = (
{
name = bottom;
pos = (600,0);
},
{
name = top;
pos = (352,544);
},
{
name = topright;
pos = (594,544);
}
);
layerId = "FD202070-6699-4318-8E83-95414ED89137";
shapes = (
{
closed = 1;
nodes = (
(307,-10,o),
(363,40,o),
(379,163,c),
(339,158,l),
(352,38,o),
(407,-10,o),
(497,-10,cs),
(620,-10,o),
(665,81,o),
(665,182,cs),
(665,297,o),
(606,344,o),
(538,344,cs),
(472,344,o),
(439,300,o),
(439,245,cs),
(439,169,o),
(504,148,o),
(564,170,c),
(560,223,l),
(527,211,o),
(508,217,o),
(508,238,cs),
(508,250,o),
(515,261,o),
(528,261,cs),
(545,261,o),
(553,244,o),
(553,200,cs),
(553,146,o),
(542,116,o),
(495,116,cs),
(455,116,o),
(429,137,o),
(416,201,c),
(313,201,l),
(304,146,o),
(287,121,o),
(250,121,cs),
(223,121,o),
(202,138,o),
(202,184,cs),
(202,354,ls),
(202,395,o),
(224,418,o),
(261,418,cs),
(461,418,ls),
(507,418,o),
(532,405,o),
(553,373,c),
(661,425,l),
(622,513,o),
(565,544,o),
(471,544,cs),
(261,544,ls),
(130,544,o),
(55,485,o),
(55,364,cs),
(55,180,ls),
(55,59,o),
(116,-10,o),
(219,-10,cs)
);
}
);
width = 700;
},
{
associatedMasterId = m01;
layerId = "6E427250-F09B-4A63-B913-EAFB2A9ED0A5";
name = "20 Feb 23 10.42";
shapes = (
{
closed = 1;
nodes = (
(434,66,o),
(401,99,o),
(384,200,c),
(330,200,l),
(313,112,o),
(281,71,o),
(216,71,cs),
(179,71,o),
(151,85,o),
(151,132,cs),
(151,379,ls),
(151,436,o),
(179,468,o),
(229,468,cs),
(479,468,ls),
(533,468,o),
(556,453,o),
(582,419,c),
(644,466,l),
(610,516,o),
(571,544,o),
(479,544,cs),
(223,544,ls),
(121,544,o),
(64,488,o),
(64,374,cs),
(64,136,ls),
(64,44,o),
(108,-10,o),
(197,-10,cs),
(281,-10,o),
(345,39,o),
(367,148,c),
(340,143,l),
(353,34,o),
(409,-10,o),
(493,-10,cs),
(614,-10,o),
(655,80,o),
(655,186,cs),
(655,306,o),
(602,357,o),
(530,357,cs),
(469,357,o),
(429,320,o),
(429,260,cs),
(429,182,o),
(501,143,o),
(584,178,c),
(589,225,l),
(544,210,o),
(492,219,o),
(492,260,cs),
(492,280,o),
(505,292,o),
(524,292,cs),
(552,292,o),
(573,266,o),
(573,190,cs),
(573,116,o),
(553,66,o),
(486,66,cs)
);
},
{
closed = 1;
nodes = (
(288,-580,o),
(347,-531,o),
(367,-422,c),
(340,-427,l),
(353,-536,o),
(409,-580,o),
(495,-580,cs),
(605,-580,o),
(649,-507,o),
(649,-428,cs),
(649,-345,o),
(600,-295,o),
(523,-276,c),
(496,-332,l),
(539,-353,o),
(560,-379,o),
(560,-422,cs),
(560,-463,o),
(543,-499,o),
(486,-499,cs),
(433,-499,o),
(401,-467,o),
(384,-370,c),
(330,-370,l),
(314,-458,o),
(285,-499,o),
(226,-499,cs),
(182,-499,o),
(151,-475,o),
(151,-388,cs),
(151,-293,o),
(187,-193,o),
(368,-145,c),
(355,-97,l),
(157,-140,o),
(64,-237,o),
(64,-394,cs),
(64,-511,o),
(123,-580,o),
(213,-580,cs)
);
}
);
width = 700;
},
{
associatedMasterId = m01;
background = {
shapes = (
{
closed = 1;
nodes = (
(288,-580,o),
(347,-531,o),
(367,-422,c),
(340,-427,l),
(353,-536,o),
(409,-580,o),
(495,-580,cs),
(605,-580,o),
(649,-507,o),
(649,-428,cs),
(649,-345,o),
(600,-295,o),
(523,-276,c),
(496,-332,l),
(539,-353,o),
(560,-379,o),
(560,-422,cs),
(560,-463,o),
(543,-499,o),
(486,-499,cs),
(433,-499,o),
(401,-467,o),
(384,-370,c),
(330,-370,l),
(314,-458,o),
(285,-499,o),
(226,-499,cs),
(182,-499,o),
(151,-475,o),
(151,-388,cs),
(151,-293,o),
(187,-193,o),
(368,-145,c),
(355,-97,l),
(157,-140,o),
(64,-237,o),
(64,-394,cs),
(64,-511,o),
(123,-580,o),
(213,-580,cs)
);
}
);
};
layerId = "FC2D0019-D602-41C1-A41C-FA45D06594F5";
name = "5 Mar 23 22.49";
shapes = (
{
closed = 1;
nodes = (
(281,-10,o),
(345,39,o),
(367,148,c),
(340,143,l),
(353,34,o),
(409,-10,o),
(493,-10,cs),
(614,-10,o),
(655,80,o),
(655,186,cs),
(655,306,o),
(602,357,o),
(530,357,cs),
(469,357,o),
(429,320,o),
(429,260,cs),
(429,182,o),
(501,143,o),
(584,178,c),
(589,225,l),
(544,210,o),
(492,219,o),
(492,260,cs),
(492,280,o),
(505,292,o),
(524,292,cs),
(552,292,o),
(573,266,o),
(573,190,cs),
(573,116,o),
(553,66,o),
(486,66,cs),
(434,66,o),
(401,99,o),
(384,200,c),
(330,200,l),
(313,112,o),
(281,71,o),
(216,71,cs),
(179,71,o),
(151,85,o),
(151,132,cs),
(151,379,ls),
(151,436,o),
(179,468,o),
(229,468,cs),
(479,468,ls),
(533,468,o),
(556,453,o),
(582,419,c),
(644,466,l),
(610,516,o),
(571,544,o),
(479,544,cs),
(223,544,ls),
(121,544,o),
(64,488,o),
(64,374,cs),
(64,136,ls),
(64,44,o),
(108,-10,o),
(197,-10,cs)
);
}
);
width = 700;
}
);
unicode = 73503;
},
{
glyphname = "dha-kawi";
layers = (
{
anchors = (
{
name = bottom;
pos = (618,0);
},
{
name = top;
pos = (357,544);
},
{
name = topright;
pos = (612,544);
}
);
background = {
shapes = (
{
closed = 1;
nodes = (
(280,-10,o),
(345,39,o),
(367,148,c),
(340,143,l),
(351,40,o),
(407,-10,o),
(492,-10,cs),
(627,-10,o),
(675,118,o),
(675,262,cs),
(675,491,o),
(553,554,o),
(413,554,cs),
(234,554,ls),
(120,554,o),
(64,494,o),
(64,386,cs),
(64,146,ls),
(64,44,o),
(107,-10,o),
(196,-10,cs)
);
},
{
closed = 1;
nodes = (
(175,71,o),
(151,88,o),
(151,142,cs),
(151,400,ls),
(151,450,o),
(179,478,o),
(229,478,cs),
(418,478,ls),
(517,478,o),
(583,435,o),
(583,259,cs),
(583,148,o),
(557,71,o),
(484,71,cs),
(433,71,o),
(399,109,o),
(384,200,c),
(330,200,l),
(313,112,o),
(276,71,o),
(215,71,cs)
);
}
);
};
layerId = m01;
shapes = (
{
closed = 1;
nodes = (
(299,-10,o),
(357,38,o),
(362,143,c),
(335,148,l),
(352,42,o),
(408,-10,o),
(496,-10,cs),
(617,-10,o),
(675,89,o),
(675,251,cs),
(675,482,o),
(556,544,o),
(413,544,cs),
(234,544,ls),
(120,544,o),
(64,484,o),
(64,376,cs),
(64,140,ls),
(64,55,o),
(112,-10,o),
(213,-10,cs)
);
},
{
closed = 1;
nodes = (
(178,71,o),
(151,93,o),
(151,139,cs),
(151,390,ls),
(151,440,o),
(179,468,o),
(229,468,cs),
(418,468,ls),
(519,468,o),
(583,427,o),
(583,253,cs),
(583,116,o),
(543,71,o),
(489,71,cs),
(436,71,o),
(404,112,o),
(390,200,c),
(312,200,l),
(302,103,o),
(274,71,o),
(222,71,cs)
);
}
);
width = 730;
},
{
anchors = (
{
name = bottom;
pos = (623,0);
},
{
name = top;
pos = (362,544);
},
{
name = topright;
pos = (617,544);
}
);
background = {
shapes = (
{
closed = 1;
nodes = (
(270,-10,o),
(335,39,o),
(357,148,c),
(330,143,l),
(341,40,o),
(397,-10,o),
(482,-10,cs),
(617,-10,o),
(665,118,o),
(665,262,cs),
(665,491,o),
(543,554,o),
(403,554,cs),
(224,554,ls),
(110,554,o),
(54,494,o),
(54,386,cs),
(54,146,ls),
(54,44,o),
(97,-10,o),
(186,-10,cs)
);
},
{
closed = 1;
nodes = (
(165,71,o),
(141,88,o),
(141,142,cs),
(141,400,ls),
(141,450,o),
(169,478,o),
(219,478,cs),
(408,478,ls),
(507,478,o),
(573,435,o),
(573,259,cs),
(573,148,o),
(547,71,o),
(474,71,cs),
(423,71,o),
(389,109,o),
(374,200,c),
(320,200,l),
(303,112,o),
(266,71,o),
(205,71,cs)
);
}
);
};
layerId = "FD202070-6699-4318-8E83-95414ED89137";
shapes = (
{
closed = 1;
nodes = (
(311,-10,o),
(374,33,o),
(390,158,c),
(330,158,l),
(351,26,o),
(434,-10,o),
(509,-10,cs),
(638,-10,o),
(707,96,o),
(707,263,cs),
(707,481,o),
(590,544,o),
(447,544,cs),
(265,544,ls),
(118,544,o),
(45,488,o),
(45,356,cs),
(45,156,ls),
(45,61,o),
(101,-10,o),
(219,-10,cs)
);
},
{
closed = 1;
nodes = (
(209,116,o),
(192,132,o),
(192,172,cs),
(192,355,ls),
(192,392,o),
(212,418,o),
(254,418,cs),
(452,418,ls),
(508,418,o),
(555,390,o),
(555,257,cs),
(555,153,o),
(526,116,o),
(486,116,cs),
(455,116,o),
(419,136,o),
(410,205,c),
(310,205,l),
(297,136,o),
(277,116,o),
(239,116,cs)
);
}
);
width = 740;
},
{
associatedMasterId = m01;
background = {
shapes = (
{
closed = 1;
nodes = (
(295,0,o),
(358,41,o),
(371,171,c),
(331,174,l),
(369,49,o),
(426,0,o),
(505,0,cs),
(608,0,o),
(675,84,o),
(675,257,cs),
(675,494,o),
(550,554,o),
(413,554,cs),
(234,554,ls),
(120,554,o),
(64,494,o),
(64,386,cs),
(64,166,ls),
(64,71,o),
(113,0,o),
(216,0,cs)
);
},
{
closed = 1;
nodes = (
(174,76,o),
(151,98,o),
(151,157,cs),
(151,400,ls),
(151,450,o),
(179,478,o),
(229,478,cs),
(418,478,ls),
(512,478,o),
(583,438,o),
(583,258,cs),
(583,109,o),
(534,76,o),
(490,76,cs),
(440,76,o),
(407,118,o),
(378,210,c),
(324,210,l),
(305,105,o),
(272,76,o),
(220,76,cs)
);
}
);
};
layerId = "F8BCB532-5FA4-4D26-884E-786EF2567877";
name = "16 Feb 23 01.02";
shapes = (
{
closed = 1;
nodes = (
(280,-10,o),
(345,39,o),
(367,148,c),
(340,143,l),
(351,40,o),
(407,-10,o),
(492,-10,cs),
(627,-10,o),
(675,118,o),
(675,262,cs),
(675,491,o),
(553,554,o),
(413,554,cs),
(234,554,ls),
(120,554,o),
(64,494,o),
(64,386,cs),
(64,146,ls),
(64,44,o),
(107,-10,o),
(196,-10,cs)
);
},
{
closed = 1;
nodes = (
(175,71,o),
(151,88,o),
(151,142,cs),
(151,400,ls),
(151,450,o),
(179,478,o),
(229,478,cs),
(418,478,ls),
(517,478,o),
(583,435,o),
(583,259,cs),
(583,148,o),
(557,71,o),
(484,71,cs),
(433,71,o),
(399,109,o),
(384,200,c),
(330,200,l),
(313,112,o),
(276,71,o),
(215,71,cs)
);
}
);
width = 730;
},
{
associatedMasterId = m01;
background = {
shapes = (
{
closed = 1;
nodes = (
(295,0,o),
(358,41,o),
(371,171,c),
(331,174,l),
(369,49,o),
(426,0,o),
(505,0,cs),
(608,0,o),
(675,84,o),
(675,257,cs),
(675,494,o),
(550,554,o),
(413,554,cs),
(234,554,ls),
(120,554,o),
(64,494,o),
(64,386,cs),
(64,166,ls),
(64,71,o),
(113,0,o),
(216,0,cs)
);
},
{
closed = 1;
nodes = (
(174,76,o),
(151,98,o),
(151,157,cs),
(151,400,ls),
(151,450,o),
(179,478,o),
(229,478,cs),
(418,478,ls),
(512,478,o),
(583,438,o),
(583,258,cs),
(583,109,o),
(534,76,o),
(490,76,cs),
(440,76,o),
(407,118,o),
(378,210,c),
(324,210,l),
(305,105,o),
(272,76,o),
(220,76,cs)
);
}
);
};
layerId = "22FB37EB-A1BF-4A81-91F0-30D7B06C2E7D";
name = "5 Mar 23 22.50";
shapes = (
{
closed = 1;
nodes = (
(280,-10,o),
(345,39,o),
(367,148,c),
(340,143,l),
(351,40,o),
(407,-10,o),
(492,-10,cs),
(627,-10,o),
(675,118,o),
(675,262,cs),
(675,491,o),
(553,554,o),
(413,554,cs),
(234,554,ls),
(120,554,o),
(64,494,o),
(64,386,cs),
(64,146,ls),
(64,44,o),
(107,-10,o),
(196,-10,cs)
);
},
{
closed = 1;
nodes = (
(175,71,o),
(151,88,o),
(151,142,cs),
(151,400,ls),
(151,450,o),
(179,478,o),
(229,478,cs),
(418,478,ls),
(517,478,o),
(583,435,o),
(583,259,cs),
(583,148,o),
(557,71,o),
(484,71,cs),
(433,71,o),
(399,109,o),
(384,200,c),
(330,200,l),
(313,112,o),
(276,71,o),
(215,71,cs)
);
}
);
width = 730;
}
);
unicode = 73508;
},
{
glyphname = "e-kawi";
layers = (
{
background = {
shapes = (
{
closed = 1;
nodes = (
(295,-426,l),
(456,-363,o),
(549,-302,o),
(549,-169,cs),
(549,87,o),
(199,39,o),
(199,299,cs),
(199,396,o),
(247,478,o),
(386,478,cs),
(483,478,o),
(534,438,o),
(534,383,cs),
(534,345,o),
(510,311,o),
(461,311,cs),
(427,311,o),
(403,328,o),
(381,357,c),
(329,320,l),
(350,284,o),
(392,242,o),
(464,242,cs),
(530,242,o),
(613,277,o),
(613,386,cs),
(613,499,o),
(521,554,o),
(390,554,cs),
(202,554,o),
(112,440,o),
(112,288,cs),
(112,-12,o),
(461,21,o),
(461,-175,cs),
(461,-252,o),
(408,-309,o),
(269,-369,c)
);
}
);
};
layerId = m01;
shapes = (
{
closed = 1;
nodes = (
(465,-518,o),
(549,-438,o),
(549,-302,cs),
(549,1,o),
(129,-125,o),
(129,235,cs),
(129,392,o),
(209,478,o),
(353,478,cs),
(493,478,o),
(564,396,o),
(564,275,cs),
(564,206,o),
(541,154,o),
(499,154,cs),
(430,154,o),
(444,302,o),
(324,302,cs),
(242,302,o),
(184,233,o),
(244,82,c),
(307,100,l),
(283,168,o),
(287,227,o),
(328,227,cs),
(393,227,o),
(378,80,o),
(499,80,cs),
(582,80,o),
(643,149,o),
(643,276,cs),
(643,449,o),
(535,554,o),
(353,554,cs),
(163,554,o),
(42,440,o),
(42,230,cs),
(42,-162,o),
(461,-78,o),
(461,-306,cs),
(461,-391,o),
(403,-468,o),
(269,-519,c),
(295,-576,l)
);
}
);
width = 681;
},
{
layerId = "FD202070-6699-4318-8E83-95414ED89137";
shapes = (
{
closed = 1;
nodes = (
(529,-516,o),
(619,-439,o),
(619,-297,cs),
(619,17,o),
(182,-113,o),
(182,216,cs),
(182,353,o),
(257,428,o),
(394,428,cs),
(520,428,o),
(584,364,o),
(584,279,cs),
(584,233,o),
(566,204,o),
(541,204,cs),
(494,204,o),
(491,312,o),
(375,312,cs),
(275,312,o),
(209,233,o),
(272,80,c),
(363,104,l),
(344,159,o),
(353,187,o),
(379,187,cs),
(429,187,o),
(430,80,o),
(548,80,cs),
(640,80,o),
(723,146,o),
(723,282,cs),
(723,446,o),
(600,554,o),
(393,554,cs),
(175,554,o),
(35,436,o),
(35,208,cs),
(35,-194,o),
(471,-120,o),
(471,-308,cs),
(471,-377,o),
(412,-433,o),
(291,-470,c),
(335,-576,l)
);
}
);
width = 760;
},
{
associatedMasterId = m01;
layerId = "21617831-3705-466B-9022-6AD3FEA62540";
name = "19 Feb 23 00.54";
shapes = (
{
closed = 1;
nodes = (
(554,-52,l),
(542,68,o),
(498,118,o),
(408,118,cs),
(321,118,o),
(292,71,o),
(223,71,cs),
(176,71,o),
(149,93,o),
(149,159,cs),
(149,193,ls),
(149,372,o),
(206,478,o),
(344,478,cs),
(449,478,o),
(489,433,o),
(489,409,cs),
(489,398,o),
(463,393,o),
(423,393,cs),
(395,393,o),
(368,436,o),
(359,500,c),
(290,493,l),
(339,430,o),
(342,324,o),
(427,324,cs),
(471,324,o),
(553,351,o),
(553,426,cs),
(553,497,o),
(474,554,o),
(341,554,cs),
(158,554,o),
(62,408,o),
(62,198,cs),
(62,159,ls),
(62,55,o),
(115,-11,o),
(224,-11,cs),
(319,-11,o),
(353,39,o),
(409,39,cs),
(445,39,o),
(473,19,o),
(483,-62,c)
);
}
);
width = 600;
},
{
associatedMasterId = m01;
background = {
shapes = (
{
closed = 1;
nodes = (
(554,-52,l),
(542,68,o),
(498,118,o),
(408,118,cs),
(321,118,o),
(292,71,o),
(223,71,cs),
(176,71,o),
(149,93,o),
(149,159,cs),
(149,193,ls),
(149,372,o),
(206,478,o),
(344,478,cs),
(449,478,o),
(489,433,o),
(489,409,cs),
(489,398,o),
(463,393,o),
(423,393,cs),
(395,393,o),
(368,436,o),
(359,500,c),
(290,493,l),
(339,430,o),
(342,324,o),
(427,324,cs),
(471,324,o),
(553,351,o),
(553,426,cs),
(553,497,o),
(474,554,o),
(341,554,cs),
(158,554,o),
(62,408,o),
(62,198,cs),
(62,159,ls),
(62,55,o),
(115,-11,o),
(224,-11,cs),
(319,-11,o),
(353,39,o),
(409,39,cs),
(445,39,o),
(473,19,o),
(483,-62,c)
);
}
);
};
layerId = "BBE85ECC-A7F4-4BB8-BF91-DCDC8E002849";
name = "19 Feb 23 01.02";
shapes = (
{
closed = 1;
nodes = (
(554,-52,l),
(542,68,o),
(498,118,o),
(408,118,cs),
(321,118,o),
(292,71,o),
(223,71,cs),
(176,71,o),
(149,93,o),
(149,159,cs),
(149,193,ls),
(149,372,o),
(206,478,o),
(344,478,cs),
(449,478,o),
(489,433,o),
(489,389,cs),
(489,346,o),
(453,314,o),
(399,314,cs),
(371,314,o),
(344,331,o),
(334,357,c),
(279,323,l),
(309,276,o),
(326,245,o),
(403,245,cs),
(459,245,o),
(563,293,o),
(563,392,cs),
(563,497,o),
(480,554,o),
(341,554,cs),
(158,554,o),
(62,408,o),
(62,198,cs),
(62,159,ls),
(62,55,o),
(115,-11,o),
(224,-11,cs),
(319,-11,o),
(353,39,o),
(409,39,cs),
(445,39,o),
(473,19,o),
(483,-62,c)
);
}
);
width = 600;
},
{
associatedMasterId = m01;
background = {
shapes = (
{
closed = 1;
nodes = (
(554,-52,l),
(542,68,o),
(498,118,o),
(408,118,cs),
(321,118,o),
(292,71,o),
(223,71,cs),
(176,71,o),
(149,93,o),
(149,159,cs),
(149,193,ls),
(149,372,o),
(206,478,o),
(344,478,cs),
(449,478,o),
(489,433,o),
(489,389,cs),
(489,346,o),
(453,314,o),
(399,314,cs),
(371,314,o),
(344,331,o),
(334,357,c),
(279,323,l),
(309,276,o),
(326,245,o),
(403,245,cs),
(459,245,o),
(563,293,o),
(563,392,cs),
(563,497,o),
(480,554,o),
(341,554,cs),
(158,554,o),
(62,408,o),
(62,198,cs),
(62,159,ls),
(62,55,o),
(115,-11,o),
(224,-11,cs),
(319,-11,o),
(353,39,o),
(409,39,cs),
(445,39,o),
(473,19,o),
(483,-62,c)
);
}
);
};
layerId = "707D2FB1-9E97-418F-BCC5-404C9860FF68";
name = "19 Feb 23 17.42";
shapes = (
{
closed = 1;
nodes = (
(458,-244,l),
(578,141,o),
(149,-6,o),
(149,293,cs),
(149,395,o),
(199,478,o),
(341,478,cs),
(445,478,o),
(484,434,o),
(484,386,cs),
(484,339,o),
(448,314,o),
(404,314,cs),
(371,314,o),
(346,328,o),
(334,357,c),
(279,323,l),
(303,286,o),
(322,245,o),
(398,245,cs),
(464,245,o),
(563,276,o),
(563,392,cs),
(563,497,o),
(483,554,o),
(344,554,cs),
(156,554,o),
(62,450,o),
(62,284,cs),
(62,-61,o),
(509,89,o),
(398,-220,c)
);
}
);
width = 600;
},
{
associatedMasterId = m01;
background = {
shapes = (
{
closed = 1;
nodes = (
(458,-244,l),
(578,141,o),
(149,-6,o),
(149,293,cs),
(149,395,o),
(199,478,o),
(341,478,cs),
(445,478,o),
(484,434,o),
(484,386,cs),
(484,339,o),
(448,314,o),
(404,314,cs),
(371,314,o),
(346,328,o),
(334,357,c),
(279,323,l),
(303,286,o),
(322,245,o),
(398,245,cs),
(464,245,o),
(563,276,o),
(563,392,cs),
(563,497,o),
(483,554,o),
(344,554,cs),
(156,554,o),
(62,450,o),
(62,284,cs),
(62,-61,o),
(509,89,o),
(398,-220,c)
);
}
);
};
layerId = "AE62DA5A-D3A0-4C72-B5B8-F50C25B94E6C";
name = "19 Feb 23 17.43";
shapes = (
{
closed = 1;
nodes = (
(240,-426,l),
(402,-365,o),
(499,-278,o),
(499,-144,cs),
(499,111,o),
(149,11,o),
(149,295,cs),
(149,391,o),
(189,478,o),
(333,478,cs),
(433,478,o),
(484,436,o),
(484,384,cs),
(484,340,o),
(448,314,o),
(404,314,cs),
(371,314,o),
(346,328,o),
(334,357,c),
(279,323,l),
(303,286,o),
(322,245,o),
(398,245,cs),
(464,245,o),
(563,277,o),
(563,390,cs),
(563,498,o),
(472,554,o),
(336,554,cs),
(146,554,o),
(62,446,o),
(62,286,cs),
(62,-39,o),
(411,36,o),
(411,-153,cs),
(411,-225,o),
(361,-309,o),
(219,-369,c)
);
}
);
width = 600;
},
{
associatedMasterId = m01;
background = {
shapes = (
{
closed = 1;
nodes = (
(240,-426,l),
(402,-365,o),
(499,-278,o),
(499,-144,cs),
(499,111,o),
(149,11,o),
(149,295,cs),
(149,391,o),
(189,478,o),
(333,478,cs),
(433,478,o),
(484,436,o),
(484,384,cs),
(484,340,o),
(448,314,o),
(404,314,cs),
(371,314,o),
(346,328,o),
(334,357,c),
(279,323,l),
(303,286,o),
(322,245,o),
(398,245,cs),
(464,245,o),
(563,277,o),
(563,390,cs),
(563,498,o),
(472,554,o),
(336,554,cs),
(146,554,o),
(62,446,o),
(62,286,cs),
(62,-39,o),
(411,36,o),
(411,-153,cs),
(411,-225,o),
(361,-309,o),
(219,-369,c)
);
}
);
};
layerId = "B1F11DF2-B6D8-4F06-990D-F3A6F13152C6";
name = "19 Feb 23 18.35";
shapes = (
{
closed = 1;
nodes = (
(245,-426,l),
(406,-363,o),
(499,-302,o),
(499,-169,cs),
(499,87,o),
(149,39,o),
(149,299,cs),
(149,396,o),
(197,478,o),
(336,478,cs),
(433,478,o),
(484,438,o),
(484,383,cs),
(484,345,o),
(460,311,o),
(411,311,cs),
(377,311,o),
(353,328,o),
(331,357,c),
(279,320,l),
(300,284,o),
(342,242,o),
(414,242,cs),
(480,242,o),
(563,277,o),
(563,386,cs),
(563,499,o),
(471,554,o),
(340,554,cs),
(152,554,o),
(62,440,o),
(62,288,cs),
(62,-12,o),
(411,21,o),
(411,-175,cs),
(411,-252,o),
(358,-309,o),
(219,-369,c)
);
}
);
width = 600;
}
);
unicode = 73486;
},
{
glyphname = "ga-kawi";
layers = (
{
anchors = (
{
name = bottom;
pos = (589,0);
},
{
name = top;
pos = (355,544);
},
{
name = topright;
pos = (583,544);
}
);
layerId = m01;
shapes = (
{
closed = 1;
nodes = (
(228,64,l),
(182,79,o),
(161,93,o),
(161,143,cs),
(161,390,ls),
(161,440,o),
(189,468,o),
(239,468,cs),
(470,468,ls),
(520,468,o),
(548,440,o),
(548,390,cs),
(548,0,l),
(635,0,l),
(635,396,ls),
(635,491,o),
(579,544,o),
(465,544,cs),
(244,544,ls),
(130,544,o),
(74,491,o),
(74,396,cs),
(74,145,ls),
(74,35,o),
(123,7,o),
(199,-10,c)
);
}
);
width = 720;
},
{
anchors = (
{
name = bottom;
pos = (601,0);
},
{
name = top;
pos = (360,544);
},
{
name = topright;
pos = (595,544);
}
);
background = {
shapes = (
{
closed = 1;
nodes = (
(242,97,l),
(214,115,o),
(202,131,o),
(202,170,cs),
(202,353,ls),
(202,395,o),
(225,418,o),
(267,418,cs),
(462,418,ls),
(504,418,o),
(527,395,o),
(527,353,cs),
(527,0,l),
(674,0,l),
(674,359,ls),
(674,478,o),
(617,544,o),
(467,544,cs),
(262,544,ls),
(110,544,o),
(55,478,o),
(55,359,cs),
(55,145,ls),
(55,51,o),
(97,24,o),
(171,-10,c)
);
}
);
};
layerId = "FD202070-6699-4318-8E83-95414ED89137";
shapes = (
{
closed = 1;
nodes = (
(249,97,l),
(213,115,o),
(202,131,o),
(202,170,cs),
(202,353,ls),
(202,395,o),
(225,418,o),
(267,418,cs),
(462,418,ls),
(504,418,o),
(527,395,o),
(527,353,cs),
(527,0,l),
(674,0,l),
(674,359,ls),
(674,478,o),
(617,544,o),
(467,544,cs),
(262,544,ls),
(110,544,o),
(55,478,o),
(55,359,cs),
(55,145,ls),
(55,51,o),
(97,24,o),
(185,-10,c)
);
}
);
width = 739;
}
);
metricLeft = "ka-kawi";
metricRight = "ka-kawi";
unicode = 73492;
},
{
glyphname = "gha-kawi";
layers = (
{
anchors = (
{
name = bottom;
pos = (997,0);
},
{
name = top;
pos = (589,544);
},
{
name = topright;
pos = (991,544);
}
);
background = {
shapes = (
{
closed = 1;
nodes = (
(172,47,l),
(152,64,o),
(143,80,o),
(143,116,cs),
(143,390,ls),
(143,440,o),
(171,468,o),
(221,468,cs),
(270,468,ls),
(320,468,o),
(348,440,o),
(348,390,cs),
(348,148,ls),
(348,53,o),
(404,0,o),
(518,0,cs),
(564,0,ls),
(635,0,o),
(705,32,o),
(705,156,c),
(679,156,l),
(679,32,o),
(752,0,o),
(822,0,cs),
(869,0,ls),
(983,0,o),
(1039,54,o),
(1039,150,cs),
(1039,360,ls),
(1039,438,o),
(1005,488,o),
(932,488,c),
(868,468,l),
(948,468,o),
(952,423,o),
(952,360,cs),
(952,156,ls),
(952,105,o),
(924,76,o),
(874,76,cs),
(816,76,ls),
(775,76,o),
(737,96,o),
(737,156,cs),
(737,360,ls),
(737,438,o),
(703,488,o),
(630,488,c),
(566,468,l),
(646,468,o),
(650,423,o),
(650,360,cs),
(650,156,ls),
(650,95,o),
(613,76,o),
(572,76,cs),
(513,76,ls),
(463,76,o),
(435,104,o),
(435,154,cs),
(435,396,ls),
(435,491,o),
(379,544,o),
(265,544,cs),
(226,544,ls),
(112,544,o),
(56,491,o),
(56,396,cs),
(56,105,ls),
(56,41,o),
(79,11,o),
(115,-10,c)
);
},
{
closed = 1;
nodes = (
(774,468,l),
(774,544,l),
(566,544,l),
(566,468,l)
);
},
{
closed = 1;
nodes = (
(1076,468,l),
(1076,544,l),
(868,544,l),
(868,468,l)
);
}
);
};
layerId = m01;
shapes = (
{
closed = 1;
nodes = (
(228,64,l),
(182,79,o),
(161,93,o),
(161,143,cs),
(161,390,ls),
(161,440,o),
(189,468,o),
(239,468,cs),
(270,468,ls),
(320,468,o),
(348,440,o),
(348,390,cs),
(348,148,ls),
(348,53,o),
(404,0,o),
(518,0,cs),
(564,0,ls),
(635,0,o),
(705,32,o),
(705,156,c),
(679,156,l),
(679,32,o),
(752,0,o),
(822,0,cs),
(869,0,ls),
(983,0,o),
(1039,54,o),
(1039,150,cs),
(1039,360,ls),
(1039,438,o),
(1005,488,o),
(932,488,c),
(868,468,l),
(948,468,o),
(952,423,o),
(952,360,cs),
(952,156,ls),
(952,105,o),
(924,76,o),
(874,76,cs),
(816,76,ls),
(775,76,o),
(737,96,o),
(737,156,cs),
(737,360,ls),
(737,438,o),
(703,488,o),
(630,488,c),
(566,468,l),
(646,468,o),
(650,423,o),
(650,360,cs),
(650,156,ls),
(650,95,o),
(613,76,o),
(572,76,cs),
(513,76,ls),
(463,76,o),
(435,104,o),
(435,154,cs),
(435,396,ls),
(435,491,o),
(380,544,o),
(266,544,cs),
(245,544,ls),
(131,544,o),
(74,491,o),
(74,396,cs),
(74,145,ls),
(74,35,o),
(123,7,o),
(199,-10,c)
);
},
{
closed = 1;
nodes = (
(774,468,l),
(774,544,l),
(566,544,l),
(566,468,l)
);
},
{
closed = 1;
nodes = (
(1076,468,l),
(1076,544,l),
(868,544,l),
(868,468,l)
);
}
);
width = 1111;
},
{
anchors = (
{
name = bottom;
pos = (995,0);
},
{
name = top;
pos = (594,544);
},
{
name = topright;
pos = (989,544);
}
);
background = {
shapes = (
{
closed = 1;
nodes = (
(242,97,l),
(214,115,o),
(202,131,o),
(202,170,cs),
(202,353,ls),
(202,395,o),
(221,418,o),
(257,418,cs),
(279,418,ls),
(315,418,o),
(334,395,o),
(334,353,cs),
(334,185,ls),
(334,66,o),
(388,0,o),
(520,0,cs),
(562,0,ls),
(677,0,o),
(724,67,o),
(724,168,c),
(687,168,l),
(687,66,o),
(739,0,o),
(848,0,cs),
(878,0,ls),
(1007,0,o),
(1071,66,o),
(1071,185,cs),
(1071,315,ls),
(1071,393,o),
(1033,443,o),
(914,443,c),
(860,423,l),
(921,423,o),
(924,378,o),
(924,315,cs),
(924,191,ls),
(924,149,o),
(901,126,o),
(859,126,cs),
(839,126,ls),
(797,126,o),
(774,149,o),
(774,191,cs),
(774,304,ls),
(774,381,o),
(752,438,o),
(633,438,c),
(561,418,l),
(611,418,o),
(627,402,o),
(627,344,cs),
(627,189,ls),
(627,150,o),
(614,126,o),
(579,126,cs),
(530,126,ls),
(495,126,o),
(481,149,o),
(481,191,cs),
(481,359,ls),
(481,478,o),
(427,544,o),
(284,544,cs),
(252,544,ls),
(126,544,o),
(55,478,o),
(55,359,cs),
(55,145,ls),
(55,51,o),
(97,24,o),
(171,-10,c)
);
},
{
closed = 1;
nodes = (
(801,418,l),
(801,544,l),
(553,544,l),
(553,418,l)
);
},
{
closed = 1;
nodes = (
(1097,423,l),
(1097,544,l),
(860,544,l),
(860,423,l)
);
}
);
};
layerId = "FD202070-6699-4318-8E83-95414ED89137";
shapes = (
{
closed = 1;
nodes = (
(249,97,l),
(213,115,o),
(202,131,o),
(202,170,cs),
(202,353,ls),
(202,395,o),
(221,418,o),
(257,418,cs),
(279,418,ls),
(315,418,o),
(334,395,o),
(334,353,cs),
(334,185,ls),
(334,66,o),
(388,0,o),
(520,0,cs),
(562,0,ls),
(677,0,o),
(724,67,o),
(724,168,c),
(687,168,l),
(687,66,o),
(739,0,o),
(848,0,cs),
(878,0,ls),
(1007,0,o),
(1071,66,o),
(1071,185,cs),
(1071,315,ls),
(1071,393,o),
(1033,443,o),
(914,443,c),
(860,423,l),
(921,423,o),
(924,378,o),
(924,315,cs),
(924,191,ls),
(924,149,o),
(901,126,o),
(859,126,cs),
(839,126,ls),
(797,126,o),
(774,149,o),
(774,191,cs),
(774,304,ls),
(774,381,o),
(752,438,o),
(633,438,c),
(561,418,l),
(611,418,o),
(627,402,o),
(627,344,cs),
(627,189,ls),
(627,150,o),
(614,126,o),
(579,126,cs),
(530,126,ls),
(495,126,o),
(481,149,o),
(481,191,cs),
(481,359,ls),
(481,478,o),
(427,544,o),
(284,544,cs),
(252,544,ls),
(126,544,o),
(55,478,o),
(55,359,cs),
(55,145,ls),
(55,51,o),
(97,24,o),
(185,-10,c)
);
},
{
closed = 1;
nodes = (
(801,418,l),
(801,544,l),
(553,544,l),
(553,418,l)
);
},
{
closed = 1;
nodes = (
(1097,423,l),
(1097,544,l),
(860,544,l),
(860,423,l)
);
}
);
width = 1132;
},
{
associatedMasterId = m01;
background = {
shapes = (
{
closed = 1;
nodes = (
(194,47,l),
(174,64,o),
(165,80,o),
(165,116,cs),
(165,390,ls),
(165,440,o),
(193,468,o),
(243,468,cs),
(292,468,ls),
(342,468,o),
(370,440,o),
(370,390,cs),
(370,148,ls),
(370,53,o),
(426,0,o),
(540,0,cs),
(589,0,ls),
(703,0,o),
(759,53,o),
(759,148,cs),
(759,384,l),
(678,488,l),
(598,468,l),
(672,374,l),
(672,154,ls),
(672,104,o),
(644,76,o),
(594,76,cs),
(535,76,ls),
(485,76,o),
(457,104,o),
(457,154,cs),
(457,396,ls),
(457,491,o),
(401,544,o),
(287,544,cs),
(248,544,ls),
(134,544,o),
(78,491,o),
(78,396,cs),
(78,105,ls),
(78,41,o),
(101,11,o),
(137,-10,c)
);
},
{
closed = 1;
nodes = (
(891,0,ls),
(1005,0,o),
(1061,53,o),
(1061,148,cs),
(1061,384,l),
(980,488,l),
(900,468,l),
(974,374,l),
(974,154,ls),
(974,104,o),
(946,76,o),
(896,76,cs),
(830,76,ls),
(794,76,o),
(766,96,o),
(746,157,c),
(694,130,l),
(723,39,o),
(768,0,o),
(842,0,cs)
);
},
{
closed = 1;
nodes = (
(800,468,l),
(800,544,l),
(598,544,l),
(598,468,l)
);
},
{
closed = 1;
nodes = (
(1102,468,l),
(1102,544,l),
(900,544,l),
(900,468,l)
);
}
);
};
layerId = "D6707604-F3CE-4CBF-81D4-99FB458A6915";
name = "9 Feb 23 21.07";
shapes = (
{
closed = 1;
nodes = (
(194,47,l),
(174,64,o),
(165,80,o),
(165,116,cs),
(165,390,ls),
(165,440,o),
(193,468,o),
(243,468,cs),
(292,468,ls),
(342,468,o),
(370,440,o),
(370,390,cs),
(370,148,ls),
(370,53,o),
(426,0,o),
(540,0,cs),
(589,0,ls),
(703,0,o),
(759,53,o),
(759,148,cs),
(759,384,l),
(678,488,l),
(598,468,l),
(672,374,l),
(672,154,ls),
(672,104,o),
(644,76,o),
(594,76,cs),
(535,76,ls),
(485,76,o),
(457,104,o),
(457,154,cs),
(457,396,ls),
(457,491,o),
(401,544,o),
(287,544,cs),
(248,544,ls),
(134,544,o),
(78,491,o),
(78,396,cs),
(78,105,ls),
(78,41,o),
(101,11,o),
(137,-10,c)
);
},
{
closed = 1;
nodes = (
(891,0,ls),
(1005,0,o),
(1061,53,o),
(1061,148,cs),
(1061,384,l),
(980,488,l),
(900,468,l),
(974,374,l),
(974,154,ls),
(974,104,o),
(946,76,o),
(896,76,cs),
(830,76,ls),
(794,76,o),
(766,96,o),
(746,157,c),
(694,130,l),
(723,39,o),
(768,0,o),
(842,0,cs)
);
},
{
closed = 1;
nodes = (
(800,468,l),
(800,544,l),
(598,544,l),
(598,468,l)
);
},
{
closed = 1;
nodes = (
(1102,468,l),
(1102,544,l),
(900,544,l),
(900,468,l)
);
}
);
width = 1180;
},
{
associatedMasterId = m01;
background = {
shapes = (
{
closed = 1;
nodes = (
(194,47,l),
(174,64,o),
(165,80,o),
(165,116,cs),
(165,390,ls),
(165,440,o),
(193,468,o),
(243,468,cs),
(292,468,ls),
(342,468,o),
(370,440,o),
(370,390,cs),
(370,148,ls),
(370,53,o),
(426,0,o),
(540,0,cs),
(589,0,ls),
(703,0,o),
(759,53,o),
(759,148,cs),
(759,384,l),
(678,488,l),
(598,468,l),
(672,374,l),
(672,154,ls),
(672,104,o),
(644,76,o),
(594,76,cs),
(535,76,ls),
(485,76,o),
(457,104,o),
(457,154,cs),
(457,396,ls),
(457,491,o),
(401,544,o),
(287,544,cs),
(248,544,ls),
(134,544,o),
(78,491,o),
(78,396,cs),
(78,105,ls),
(78,41,o),
(101,11,o),
(137,-10,c)
);
},
{
closed = 1;
nodes = (
(891,0,ls),
(1005,0,o),
(1061,53,o),
(1061,148,cs),
(1061,384,l),
(980,488,l),
(900,468,l),
(974,374,l),
(974,154,ls),
(974,104,o),
(946,76,o),
(896,76,cs),
(830,76,ls),
(794,76,o),
(766,96,o),
(746,157,c),
(694,130,l),
(723,39,o),
(768,0,o),
(842,0,cs)
);
},
{
closed = 1;
nodes = (
(800,468,l),
(800,544,l),
(598,544,l),
(598,468,l)
);
},
{
closed = 1;
nodes = (
(1102,468,l),
(1102,544,l),
(900,544,l),
(900,468,l)
);
}
);
};
layerId = "2894A91F-52FC-44BC-AFFF-D3C0A303FC70";
name = "10 Feb 23 01.56";
shapes = (
{
closed = 1;
nodes = (
(194,47,l),
(174,64,o),
(165,80,o),
(165,116,cs),
(165,390,ls),
(165,440,o),
(193,468,o),
(243,468,cs),
(292,468,ls),
(342,468,o),
(370,440,o),
(370,390,cs),
(370,148,ls),
(370,53,o),
(426,0,o),
(540,0,cs),
(586,0,ls),
(657,0,o),
(727,32,o),
(727,156,c),
(701,156,l),
(701,32,o),
(774,0,o),
(844,0,cs),
(891,0,ls),
(1005,0,o),
(1061,53,o),
(1061,148,cs),
(1061,384,l),
(980,488,l),
(900,468,l),
(974,374,l),
(974,154,ls),
(974,104,o),
(946,76,o),
(896,76,cs),
(838,76,ls),
(797,76,o),
(759,96,o),
(759,156,cs),
(759,384,l),
(678,488,l),
(598,468,l),
(672,374,l),
(672,156,ls),
(672,95,o),
(635,76,o),
(594,76,cs),
(535,76,ls),
(485,76,o),
(457,104,o),
(457,154,cs),
(457,396,ls),
(457,491,o),
(401,544,o),
(287,544,cs),
(248,544,ls),
(134,544,o),
(78,491,o),
(78,396,cs),
(78,105,ls),
(78,41,o),
(101,11,o),
(137,-10,c)
);
},
{
closed = 1;
nodes = (
(800,468,l),
(800,544,l),
(598,544,l),
(598,468,l)
);
},
{
closed = 1;
nodes = (
(1102,468,l),
(1102,544,l),
(900,544,l),
(900,468,l)
);
}
);
width = 1137;
},
{
associatedMasterId = m01;
background = {
shapes = (
{
closed = 1;
nodes = (
(194,47,l),
(174,64,o),
(165,80,o),
(165,116,cs),
(165,390,ls),
(165,440,o),
(193,468,o),
(243,468,cs),
(292,468,ls),
(342,468,o),
(370,440,o),
(370,390,cs),
(370,148,ls),
(370,53,o),
(426,0,o),
(540,0,cs),
(586,0,ls),
(657,0,o),
(727,32,o),
(727,156,c),
(701,156,l),
(701,32,o),
(774,0,o),
(844,0,cs),
(891,0,ls),
(1005,0,o),
(1061,53,o),
(1061,148,cs),
(1061,384,l),
(980,488,l),
(900,468,l),
(974,374,l),
(974,154,ls),
(974,104,o),
(946,76,o),
(896,76,cs),
(838,76,ls),
(797,76,o),
(759,96,o),
(759,156,cs),
(759,384,l),
(678,488,l),
(598,468,l),
(672,374,l),
(672,156,ls),
(672,95,o),
(635,76,o),
(594,76,cs),
(535,76,ls),
(485,76,o),
(457,104,o),
(457,154,cs),
(457,396,ls),
(457,491,o),
(401,544,o),
(287,544,cs),
(248,544,ls),
(134,544,o),
(78,491,o),
(78,396,cs),
(78,105,ls),
(78,41,o),
(101,11,o),
(137,-10,c)
);
},
{
closed = 1;
nodes = (
(800,468,l),
(800,544,l),
(598,544,l),
(598,468,l)
);
},
{
closed = 1;
nodes = (
(1102,468,l),
(1102,544,l),
(900,544,l),
(900,468,l)
);
}
);
};
layerId = "7A363327-A3CE-4AC0-902F-61362E8F8A9D";
name = "10 Feb 23 02.07";
shapes = (
{
closed = 1;
nodes = (
(194,47,l),
(174,64,o),
(165,80,o),
(165,116,cs),
(165,390,ls),
(165,440,o),
(193,468,o),
(243,468,cs),
(292,468,ls),
(342,468,o),
(370,440,o),
(370,390,cs),
(370,148,ls),
(370,53,o),
(426,0,o),
(540,0,cs),
(586,0,ls),
(657,0,o),
(727,32,o),
(727,156,c),
(701,156,l),
(701,32,o),
(774,0,o),
(844,0,cs),
(891,0,ls),
(1005,0,o),
(1061,54,o),
(1061,150,cs),
(1061,360,ls),
(1061,438,o),
(1027,488,o),
(954,488,c),
(890,468,l),
(970,468,o),
(974,423,o),
(974,360,cs),
(974,156,ls),
(974,105,o),
(946,76,o),
(896,76,cs),
(838,76,ls),
(797,76,o),
(759,96,o),
(759,156,cs),
(759,360,ls),
(759,438,o),
(725,488,o),
(652,488,c),
(588,468,l),
(668,468,o),
(672,423,o),
(672,360,cs),
(672,156,ls),
(672,95,o),
(635,76,o),
(594,76,cs),
(535,76,ls),
(485,76,o),
(457,104,o),
(457,154,cs),
(457,396,ls),
(457,491,o),
(401,544,o),
(287,544,cs),
(248,544,ls),
(134,544,o),
(78,491,o),
(78,396,cs),
(78,105,ls),
(78,41,o),
(101,11,o),
(137,-10,c)
);
},
{
closed = 1;
nodes = (
(796,468,l),
(796,544,l),
(588,544,l),
(588,468,l)
);
},
{
closed = 1;
nodes = (
(1098,468,l),
(1098,544,l),
(890,544,l),
(890,468,l)
);
}
);
width = 1157;
},
{
associatedMasterId = "FD202070-6699-4318-8E83-95414ED89137";
background = {
shapes = (
{
closed = 1;
nodes = (
(280,468,ls),
(330,468,o),
(358,440,o),
(358,390,cs),
(358,148,ls),
(358,53,o),
(414,0,o),
(528,0,cs),
(574,0,ls),
(645,0,o),
(715,32,o),
(715,156,c),
(689,156,l),
(689,32,o),
(762,0,o),
(832,0,cs),
(879,0,ls),
(993,0,o),
(1049,54,o),
(1049,150,cs),
(1049,360,ls),
(1049,438,o),
(1015,488,o),
(942,488,c),
(878,468,l),
(958,468,o),
(962,423,o),
(962,360,cs),
(962,156,ls),
(962,105,o),
(934,76,o),
(884,76,cs),
(826,76,ls),
(785,76,o),
(747,96,o),
(747,156,cs),
(747,360,ls),
(747,438,o),
(713,488,o),
(640,488,c),
(576,468,l),
(656,468,o),
(660,423,o),
(660,360,cs),
(660,156,ls),
(660,95,o),
(623,76,o),
(582,76,cs),
(523,76,ls),
(473,76,o),
(445,104,o),
(445,154,cs),
(445,396,ls),
(445,491,o),
(390,544,o),
(276,544,cs),
(255,544,ls),
(141,544,o),
(84,491,o),
(84,396,cs),
(84,145,ls),
(84,35,o),
(133,7,o),
(209,-10,c),
(238,64,l),
(192,79,o),
(171,93,o),
(171,143,cs),
(171,390,ls),
(171,440,o),
(199,468,o),
(249,468,cs)
);
},
{
closed = 1;
nodes = (
(784,468,l),
(784,544,l),
(576,544,l),
(576,468,l)
);
},
{
closed = 1;
nodes = (
(1086,468,l),
(1086,544,l),
(878,544,l),
(878,468,l)
);
}
);
};
layerId = "9EBC3957-8403-42EE-AB3E-5F6F627C0BD7";
name = "24 Feb 23 00.22";
shapes = (
{
closed = 1;
nodes = (
(242,97,l),
(214,115,o),
(202,131,o),
(202,170,cs),
(202,353,ls),
(202,395,o),
(221,418,o),
(257,418,cs),
(279,418,ls),
(315,418,o),
(334,395,o),
(334,353,cs),
(334,185,ls),
(334,66,o),
(388,0,o),
(520,0,cs),
(562,0,ls),
(677,0,o),
(724,67,o),
(724,168,c),
(687,168,l),
(687,66,o),
(739,0,o),
(848,0,cs),
(878,0,ls),
(1007,0,o),
(1071,66,o),
(1071,185,cs),
(1071,315,ls),
(1071,393,o),
(1033,443,o),
(914,443,c),
(860,423,l),
(921,423,o),
(924,378,o),
(924,315,cs),
(924,191,ls),
(924,149,o),
(901,126,o),
(859,126,cs),
(839,126,ls),
(797,126,o),
(774,149,o),
(774,191,cs),
(774,304,ls),
(774,381,o),
(752,438,o),
(633,438,c),
(561,418,l),
(611,418,o),
(627,402,o),
(627,344,cs),
(627,189,ls),
(627,150,o),
(614,126,o),
(579,126,cs),
(530,126,ls),
(495,126,o),
(481,149,o),
(481,191,cs),
(481,359,ls),
(481,478,o),
(427,544,o),
(284,544,cs),
(252,544,ls),
(126,544,o),
(55,478,o),
(55,359,cs),
(55,145,ls),
(55,51,o),
(97,24,o),
(171,-10,c)
);
},
{
closed = 1;
nodes = (
(801,418,l),
(801,544,l),
(553,544,l),
(553,418,l)
);
},
{
closed = 1;
nodes = (
(1097,423,l),
(1097,544,l),
(860,544,l),
(860,423,l)
);
}
);
width = 1131;
}
);
metricLeft = "ka-kawi";
metricRight = "ra-kawi";
unicode = 73493;
},
{
glyphname = "ha-kawi";
layers = (
{
anchors = (
{
name = bottom;
pos = (735,0);
},
{
name = top;
pos = (414,544);
},
{
name = topright;
pos = (729,544);
}
);
background = {
shapes = (
{
closed = 1;
nodes = (
(784,51,o),
(824,138,o),
(824,275,cs),
(824,472,o),
(741,544,o),
(611,544,cs),
(473,544,o),
(405,462,o),
(405,316,cs),
(405,154,ls),
(405,104,o),
(381,76,o),
(337,76,cs),
(274,76,ls),
(230,76,o),
(206,104,o),
(206,154,cs),
(206,360,ls),
(206,438,o),
(172,488,o),
(99,488,c),
(35,468,l),
(115,468,o),
(119,423,o),
(119,360,cs),
(119,148,ls),
(119,53,o),
(172,0,o),
(279,0,cs),
(332,0,ls),
(439,0,o),
(492,53,o),
(492,148,cs),
(492,310,ls),
(492,414,o),
(533,463,o),
(611,463,cs),
(673,463,o),
(732,432,o),
(732,269,cs),
(732,161,o),
(706,82,o),
(674,29,c),
(738,-10,l)
);
},
{
closed = 1;
nodes = (
(243,468,l),
(243,544,l),
(35,544,l),
(35,468,l)
);
}
);
};
layerId = m01;
shapes = (
{
closed = 1;
nodes = (
(332,0,ls),
(439,0,o),
(492,53,o),
(492,148,cs),
(492,390,ls),
(492,440,o),
(520,468,o),
(570,468,cs),
(613,468,ls),
(663,468,o),
(691,440,o),
(691,390,cs),
(691,0,l),
(778,0,l),
(778,396,ls),
(778,491,o),
(722,544,o),
(608,544,cs),
(575,544,ls),
(461,544,o),
(405,491,o),
(405,396,cs),
(405,154,ls),
(405,104,o),
(381,76,o),
(337,76,cs),
(274,76,ls),
(230,76,o),
(206,104,o),
(206,154,cs),
(206,360,ls),
(206,438,o),
(172,488,o),
(99,488,c),
(35,468,l),
(115,468,o),
(119,423,o),
(119,360,cs),
(119,148,ls),
(119,53,o),
(172,0,o),
(279,0,cs)
);
},
{
closed = 1;
nodes = (
(243,468,l),
(243,544,l),
(35,544,l),
(35,468,l)
);
}
);
width = 863;
},
{
anchors = (
{
name = bottom;
pos = (777,0);
},
{
name = top;
pos = (466,544);
},
{
name = topright;
pos = (771,544);
}
);
layerId = "FD202070-6699-4318-8E83-95414ED89137";
shapes = (
{
closed = 1;
nodes = (
(339,0,ls),
(479,0,o),
(549,66,o),
(549,184,cs),
(549,363,ls),
(549,399,o),
(564,418,o),
(592,418,cs),
(655,418,ls),
(683,418,o),
(698,399,o),
(698,363,cs),
(698,0,l),
(845,0,l),
(845,376,ls),
(845,484,o),
(785,544,o),
(664,544,cs),
(591,544,ls),
(465,544,o),
(402,484,o),
(402,376,cs),
(402,190,ls),
(402,149,o),
(385,126,o),
(351,126,cs),
(308,126,ls),
(274,126,o),
(256,149,o),
(256,190,cs),
(256,315,ls),
(256,393,o),
(216,443,o),
(89,443,c),
(35,423,l),
(105,423,o),
(109,378,o),
(109,315,cs),
(109,184,ls),
(109,66,o),
(174,0,o),
(306,0,cs)
);
},
{
closed = 1;
nodes = (
(292,423,l),
(292,544,l),
(35,544,l),
(35,423,l)
);
}
);
width = 910;
},
{
associatedMasterId = m01;
background = {
shapes = (
{
closed = 1;
nodes = (
(826,47,o),
(868,137,o),
(868,277,cs),
(868,472,o),
(782,544,o),
(648,544,cs),
(505,544,o),
(434,462,o),
(434,316,cs),
(434,154,ls),
(434,104,o),
(410,76,o),
(366,76,cs),
(303,76,ls),
(259,76,o),
(235,104,o),
(235,154,cs),
(235,428,ls),
(235,469,o),
(243,487,o),
(260,506,c),
(197,554,l),
(167,529,o),
(148,499,o),
(148,439,cs),
(148,148,ls),
(148,53,o),
(201,0,o),
(308,0,cs),
(361,0,ls),
(468,0,o),
(521,53,o),
(521,148,cs),
(521,310,ls),
(521,414,o),
(565,463,o),
(648,463,cs),
(714,463,o),
(776,432,o),
(776,269,cs),
(776,161,o),
(748,78,o),
(708,29,c),
(772,-10,l)
);
}
);
};
layerId = "C24E93F3-884F-4036-AE26-43D1309093C4";
name = "12 Feb 23 17.35";
shapes = (
{
closed = 1;
nodes = (
(826,47,o),
(868,137,o),
(868,277,cs),
(868,472,o),
(782,544,o),
(648,544,cs),
(505,544,o),
(434,462,o),
(434,316,cs),
(434,154,ls),
(434,104,o),
(410,76,o),
(366,76,cs),
(303,76,ls),
(259,76,o),
(235,104,o),
(235,154,cs),
(235,360,ls),
(235,438,o),
(201,488,o),
(128,488,c),
(64,468,l),
(144,468,o),
(148,423,o),
(148,360,cs),
(148,148,ls),
(148,53,o),
(201,0,o),
(308,0,cs),
(361,0,ls),
(468,0,o),
(521,53,o),
(521,148,cs),
(521,310,ls),
(521,414,o),
(565,463,o),
(648,463,cs),
(714,463,o),
(776,432,o),
(776,269,cs),
(776,161,o),
(748,78,o),
(708,29,c),
(772,-10,l)
);
},
{
closed = 1;
nodes = (
(272,468,l),
(272,544,l),
(64,544,l),
(64,468,l)
);
}
);
width = 938;
},
{
associatedMasterId = m01;
background = {
shapes = (
{
closed = 1;
nodes = (
(826,47,o),
(868,137,o),
(868,277,cs),
(868,472,o),
(782,544,o),
(648,544,cs),
(505,544,o),
(434,462,o),
(434,316,cs),
(434,154,ls),
(434,104,o),
(410,76,o),
(366,76,cs),
(303,76,ls),
(259,76,o),
(235,104,o),
(235,154,cs),
(235,360,ls),
(235,438,o),
(201,488,o),
(128,488,c),
(64,468,l),
(144,468,o),
(148,423,o),
(148,360,cs),
(148,148,ls),
(148,53,o),
(201,0,o),
(308,0,cs),
(361,0,ls),
(468,0,o),
(521,53,o),
(521,148,cs),
(521,310,ls),
(521,414,o),
(565,463,o),
(648,463,cs),
(714,463,o),
(776,432,o),
(776,269,cs),
(776,161,o),
(748,78,o),
(708,29,c),
(772,-10,l)
);
},
{
closed = 1;
nodes = (
(272,468,l),
(272,544,l),
(64,544,l),
(64,468,l)
);
}
);
};
layerId = "96426331-750F-45FA-B82B-C53F7B60BB06";
name = "16 Feb 23 01.07";
shapes = (
{
closed = 1;
nodes = (
(813,51,o),
(853,138,o),
(853,275,cs),
(853,472,o),
(770,544,o),
(640,544,cs),
(502,544,o),
(434,462,o),
(434,316,cs),
(434,154,ls),
(434,104,o),
(410,76,o),
(366,76,cs),
(303,76,ls),
(259,76,o),
(235,104,o),
(235,154,cs),
(235,360,ls),
(235,438,o),
(201,488,o),
(128,488,c),
(64,468,l),
(144,468,o),
(148,423,o),
(148,360,cs),
(148,148,ls),
(148,53,o),
(201,0,o),
(308,0,cs),
(361,0,ls),
(468,0,o),
(521,53,o),
(521,148,cs),
(521,310,ls),
(521,414,o),
(562,463,o),
(640,463,cs),
(702,463,o),
(761,432,o),
(761,269,cs),
(761,161,o),
(735,82,o),
(703,29,c),
(767,-10,l)
);
},
{
closed = 1;
nodes = (
(272,468,l),
(272,544,l),
(64,544,l),
(64,468,l)
);
}
);
width = 926;
}
);
metricLeft = "=|ra-kawi";
metricRight = "ka-kawi";
unicode = 73522;
},
{
glyphname = "i-kawi";
layers = (
{
background = {
shapes = (
{
closed = 1;
nodes = (
(228,64,l),
(182,79,o),
(161,93,o),
(161,143,cs),
(161,405,ls),
(161,451,o),
(180,473,o),
(221,473,cs),
(268,473,o),
(298,441,o),
(307,344,c),
(385,344,l),
(398,432,o),
(425,473,o),
(473,473,cs),
(507,473,o),
(533,457,o),
(533,405,cs),
(533,0,l),
(620,0,l),
(620,414,ls),
(620,503,o),
(573,554,o),
(486,554,cs),
(397,554,o),
(347,506,o),
(330,396,c),
(357,401,l),
(352,510,o),
(292,554,o),
(212,554,cs),
(115,554,o),
(74,493,o),
(74,414,cs),
(74,145,ls),
(74,35,o),
(123,7,o),
(199,-10,c)
);
},
{
closed = 1;
nodes = (
(303,-389,o),
(347,-364,o),
(380,-312,c),
(325,-270,l),
(305,-298,o),
(281,-316,o),
(247,-316,cs),
(199,-316,o),
(177,-281,o),
(177,-239,cs),
(177,-177,o),
(226,-148,o),
(307,-148,cs),
(448,-148,o),
(523,-235,o),
(559,-386,c),
(626,-367,l),
(589,-180,o),
(483,-76,o),
(305,-76,cs),
(168,-76,o),
(94,-143,o),
(94,-242,cs),
(94,-329,o),
(149,-389,o),
(242,-389,cs)
);
}
);
};
layerId = m01;
shapes = (
{
closed = 1;
nodes = (
(228,64,l),
(182,79,o),
(161,93,o),
(161,143,cs),
(161,405,ls),
(161,451,o),
(180,473,o),
(221,473,cs),
(268,473,o),
(298,441,o),
(307,344,c),
(385,344,l),
(398,432,o),
(425,473,o),
(473,473,cs),
(507,473,o),
(533,457,o),
(533,405,cs),
(533,0,l),
(620,0,l),
(620,414,ls),
(620,503,o),
(573,554,o),
(486,554,cs),
(397,554,o),
(347,506,o),
(330,396,c),
(357,401,l),
(352,510,o),
(292,554,o),
(212,554,cs),
(115,554,o),
(74,493,o),
(74,414,cs),
(74,145,ls),
(74,35,o),
(123,7,o),
(199,-10,c)
);
},
{
closed = 1;
nodes = (
(294,-369,o),
(339,-340,o),
(373,-279,c),
(315,-243,l),
(297,-272,o),
(278,-296,o),
(239,-296,cs),
(196,-296,o),
(177,-268,o),
(177,-232,cs),
(177,-176,o),
(224,-148,o),
(302,-148,cs),
(441,-148,o),
(526,-236,o),
(559,-366,c),
(626,-347,l),
(591,-179,o),
(475,-76,o),
(302,-76,cs),
(166,-76,o),
(94,-139,o),
(94,-233,cs),
(94,-313,o),
(145,-369,o),
(232,-369,cs)
);
}
);
width = 691;
},
{
background = {
shapes = (
{
closed = 1;
nodes = (
(295,-310,l),
(238,-294,o),
(224,-276,o),
(224,-254,cs),
(224,-226,o),
(248,-211,o),
(297,-211,cs),
(402,-211,o),
(490,-283,o),
(522,-408,c),
(644,-373,l),
(605,-192,o),
(481,-80,o),
(292,-80,cs),
(145,-80,o),
(76,-151,o),
(76,-248,cs),
(76,-333,o),
(128,-385,o),
(252,-419,c)
);
}
);
};
layerId = "FD202070-6699-4318-8E83-95414ED89137";
shapes = (
{
closed = 1;
nodes = (
(241,97,l),
(208,115,o),
(201,131,o),
(201,170,cs),
(201,362,ls),
(201,410,o),
(213,428,o),
(238,428,cs),
(269,428,o),
(279,406,o),
(286,340,c),
(389,340,l),
(396,408,o),
(410,428,o),
(436,428,cs),
(460,428,o),
(475,411,o),
(475,362,cs),
(475,0,l),
(622,0,l),
(622,388,ls),
(622,490,o),
(579,554,o),
(472,554,cs),
(374,554,o),
(322,496,o),
(301,362,c),
(374,362,l),
(356,496,o),
(309,554,o),
(209,554,cs),
(107,554,o),
(55,490,o),
(55,388,cs),
(55,145,ls),
(55,51,o),
(89,24,o),
(173,-10,c)
);
},
{
closed = 1;
nodes = (
(280,-389,o),
(325,-364,o),
(359,-302,c),
(278,-245,l),
(264,-271,o),
(250,-279,o),
(231,-279,cs),
(206,-279,o),
(194,-263,o),
(194,-243,cs),
(194,-212,o),
(223,-192,o),
(290,-192,cs),
(410,-192,o),
(486,-257,o),
(519,-382,c),
(636,-351,l),
(594,-175,o),
(473,-76,o),
(294,-76,cs),
(145,-76,o),
(74,-144,o),
(74,-243,cs),
(74,-328,o),
(126,-389,o),
(221,-389,cs)
);
}
);
width = 675;
},
{
associatedMasterId = m01;
background = {
shapes = (
{
closed = 0;
nodes = (
(387,344,l),
(396,441,o),
(426,473,o),
(473,473,cs),
(514,473,o),
(533,451,o),
(533,405,cs)
);
},
{
closed = 0;
nodes = (
(620,414,ls),
(620,493,o),
(579,554,o),
(482,554,cs),
(402,554,o),
(342,510,o),
(337,401,c),
(364,396,l)
);
}
);
};
layerId = "B3AAD5AF-2ABF-46C4-85DC-FAF678DC806C";
name = "27 Feb 23 00.06";
shapes = (
{
closed = 1;
nodes = (
(228,64,l),
(182,79,o),
(161,93,o),
(161,143,cs),
(161,405,ls),
(161,451,o),
(180,473,o),
(221,473,cs),
(268,473,o),
(298,441,o),
(307,344,c),
(385,344,l),
(398,432,o),
(425,473,o),
(473,473,cs),
(507,473,o),
(533,457,o),
(533,405,cs),
(533,0,l),
(620,0,l),
(620,414,ls),
(620,503,o),
(573,554,o),
(486,554,cs),
(397,554,o),
(347,506,o),
(330,396,c),
(357,401,l),
(352,510,o),
(292,554,o),
(212,554,cs),
(115,554,o),
(74,493,o),
(74,414,cs),
(74,145,ls),
(74,35,o),
(123,7,o),
(199,-10,c)
);
},
{
closed = 1;
nodes = (
(254,-310,l),
(197,-298,o),
(171,-269,o),
(171,-230,cs),
(171,-176,o),
(222,-157,o),
(294,-157,cs),
(439,-157,o),
(513,-234,o),
(549,-368,c),
(621,-347,l),
(584,-175,o),
(476,-76,o),
(296,-76,cs),
(151,-76,o),
(89,-140,o),
(89,-226,cs),
(89,-304,o),
(139,-352,o),
(234,-369,c)
);
}
);
width = 691;
},
{
associatedMasterId = m01;
background = {
shapes = (
{
closed = 1;
nodes = (
(228,64,l),
(182,79,o),
(161,93,o),
(161,143,cs),
(161,405,ls),
(161,451,o),
(180,473,o),
(221,473,cs),
(268,473,o),
(298,441,o),
(307,344,c),
(385,344,l),
(398,432,o),
(425,473,o),
(473,473,cs),
(507,473,o),
(533,457,o),
(533,405,cs),
(533,0,l),
(620,0,l),
(620,414,ls),
(620,503,o),
(573,554,o),
(486,554,cs),
(397,554,o),
(347,506,o),
(330,396,c),
(357,401,l),
(352,510,o),
(292,554,o),
(212,554,cs),
(115,554,o),
(74,493,o),
(74,414,cs),
(74,145,ls),
(74,35,o),
(123,7,o),
(199,-10,c)
);
},
{
closed = 1;
nodes = (
(254,-310,l),
(197,-298,o),
(171,-269,o),
(171,-230,cs),
(171,-176,o),
(222,-157,o),
(294,-157,cs),
(439,-157,o),
(513,-234,o),
(549,-368,c),
(621,-347,l),
(584,-175,o),
(476,-76,o),
(296,-76,cs),
(151,-76,o),
(89,-140,o),
(89,-226,cs),
(89,-304,o),
(139,-352,o),
(234,-369,c)
);
}
);
};
layerId = "607324A6-195B-4A1A-BC6C-04A56417F190";
name = "5 Mar 23 23.10";
shapes = (
{
closed = 1;
nodes = (
(228,64,l),
(182,79,o),
(161,93,o),
(161,143,cs),
(161,405,ls),
(161,451,o),
(180,473,o),
(221,473,cs),
(268,473,o),
(298,441,o),
(307,344,c),
(385,344,l),
(398,432,o),
(425,473,o),
(473,473,cs),
(507,473,o),
(533,457,o),
(533,405,cs),
(533,0,l),
(620,0,l),
(620,414,ls),
(620,503,o),
(573,554,o),
(486,554,cs),
(397,554,o),
(347,506,o),
(330,396,c),
(357,401,l),
(352,510,o),
(292,554,o),
(212,554,cs),
(115,554,o),
(74,493,o),
(74,414,cs),
(74,145,ls),
(74,35,o),
(123,7,o),
(199,-10,c)
);
},
{
closed = 1;
nodes = (
(303,-389,o),
(347,-364,o),
(380,-312,c),
(325,-270,l),
(305,-298,o),
(281,-316,o),
(247,-316,cs),
(199,-316,o),
(177,-281,o),
(177,-239,cs),
(177,-177,o),
(226,-148,o),
(307,-148,cs),
(448,-148,o),
(523,-235,o),
(559,-386,c),
(626,-367,l),
(589,-180,o),
(483,-76,o),
(305,-76,cs),
(168,-76,o),
(94,-143,o),
(94,-242,cs),
(94,-329,o),
(149,-389,o),
(242,-389,cs)
);
}
);
width = 691;
}
);
metricLeft = "ka-kawi";
unicode = 73478;
},
{
glyphname = "ii-kawi";
layers = (
{
background = {
shapes = (
{
closed = 1;
nodes = (
(693,-560,o),
(830,-470,o),
(830,-304,cs),
(830,-176,o),
(748,-76,o),
(575,-76,cs),
(438,-76,o),
(358,-139,o),
(358,-235,cs),
(358,-307,o),
(405,-360,o),
(514,-375,c),
(534,-318,l),
(461,-299,o),
(446,-267,o),
(446,-236,cs),
(446,-176,o),
(506,-157,o),
(572,-157,cs),
(684,-157,o),
(739,-213,o),
(739,-306,cs),
(739,-426,o),
(647,-484,o),
(493,-484,cs),
(282,-484,o),
(171,-374,o),
(171,-99,cs),
(171,443,ls),
(171,684,o),
(280,818,o),
(436,915,c),
(402,971,l),
(212,869,o),
(84,724,o),
(84,443,cs),
(84,-99,ls),
(84,-441,o),
(249,-560,o),
(486,-560,cs)
);
},
{
closed = 1;
nodes = (
(439,64,l),
(393,79,o),
(372,93,o),
(372,143,cs),
(372,405,ls),
(372,451,o),
(391,473,o),
(432,473,cs),
(479,473,o),
(509,441,o),
(518,344,c),
(596,344,l),
(609,432,o),
(636,473,o),
(684,473,cs),
(718,473,o),
(744,457,o),
(744,405,cs),
(744,0,l),
(831,0,l),
(831,414,ls),
(831,503,o),
(784,554,o),
(697,554,cs),
(608,554,o),
(558,506,o),
(541,396,c),
(568,401,l),
(563,510,o),
(503,554,o),
(423,554,cs),
(326,554,o),
(285,493,o),
(285,414,cs),
(285,145,ls),
(285,35,o),
(334,7,o),
(410,-10,c)
);
}
);
};
layerId = m01;
shapes = (
{
closed = 1;
nodes = (
(693,-560,o),
(830,-470,o),
(830,-304,cs),
(830,-176,o),
(748,-76,o),
(575,-76,cs),
(438,-76,o),
(358,-139,o),
(358,-235,cs),
(358,-310,o),
(408,-366,o),
(518,-382,c),
(534,-318,l),
(458,-302,o),
(442,-266,o),
(442,-234,cs),
(442,-172,o),
(504,-153,o),
(572,-153,cs),
(684,-153,o),
(739,-211,o),
(739,-306,cs),
(739,-426,o),
(647,-484,o),
(493,-484,cs),
(282,-484,o),
(171,-384,o),
(171,-109,cs),
(171,443,ls),
(171,694,o),
(265,809,o),
(436,915,c),
(402,971,l),
(212,869,o),
(84,734,o),
(84,443,cs),
(84,-109,ls),
(84,-451,o),
(249,-560,o),
(486,-560,cs)
);
},
{
closed = 1;
nodes = (
(439,64,l),
(393,79,o),
(372,93,o),
(372,143,cs),
(372,405,ls),
(372,451,o),
(391,473,o),
(432,473,cs),
(479,473,o),
(509,441,o),
(518,344,c),
(596,344,l),
(609,432,o),
(636,473,o),
(684,473,cs),
(718,473,o),
(744,457,o),
(744,405,cs),
(744,0,l),
(831,0,l),
(831,414,ls),
(831,503,o),
(784,554,o),
(697,554,cs),
(608,554,o),
(558,506,o),
(541,396,c),
(568,401,l),
(563,510,o),
(503,554,o),
(423,554,cs),
(326,554,o),
(285,493,o),
(285,414,cs),
(285,145,ls),
(285,35,o),
(334,7,o),
(410,-10,c)
);
}
);
width = 916;
},
{
background = {
shapes = (
{
closed = 1;
nodes = (
(762,-560,o),
(895,-472,o),
(895,-307,cs),
(895,-178,o),
(811,-76,o),
(625,-76,cs),
(476,-76,o),
(395,-141,o),
(395,-239,cs),
(395,-315,o),
(439,-368,o),
(551,-389,c),
(578,-298,l),
(546,-288,o),
(533,-271,o),
(533,-250,cs),
(533,-217,o),
(570,-207,o),
(615,-207,cs),
(706,-207,o),
(744,-242,o),
(744,-308,cs),
(744,-400,o),
(672,-434,o),
(538,-434,cs),
(319,-434,o),
(211,-342,o),
(211,-99,cs),
(211,443,ls),
(211,658,o),
(305,770,o),
(464,865,c),
(402,971,l),
(197,867,o),
(64,724,o),
(64,443,cs),
(64,-99,ls),
(64,-438,o),
(256,-560,o),
(529,-560,cs)
);
},
{
closed = 1;
nodes = (
(501,97,l),
(468,115,o),
(461,131,o),
(461,170,cs),
(461,372,ls),
(461,411,o),
(475,428,o),
(499,428,cs),
(530,428,o),
(538,401,o),
(545,330,c),
(648,330,l),
(655,397,o),
(668,428,o),
(703,428,cs),
(726,428,o),
(744,414,o),
(744,360,cs),
(744,0,l),
(891,0,l),
(891,388,ls),
(891,485,o),
(849,554,o),
(737,554,cs),
(634,554,o),
(583,493,o),
(560,352,c),
(633,352,l),
(615,493,o),
(573,554,o),
(478,554,cs),
(373,554,o),
(315,481,o),
(315,388,cs),
(315,145,ls),
(315,51,o),
(349,24,o),
(432,-10,c)
);
}
);
};
layerId = "FD202070-6699-4318-8E83-95414ED89137";
shapes = (
{
closed = 1;
nodes = (
(762,-560,o),
(895,-472,o),
(895,-307,cs),
(895,-178,o),
(811,-76,o),
(625,-76,cs),
(476,-76,o),
(395,-141,o),
(395,-239,cs),
(395,-315,o),
(439,-368,o),
(551,-389,c),
(578,-298,l),
(546,-288,o),
(533,-271,o),
(533,-250,cs),
(533,-217,o),
(570,-207,o),
(615,-207,cs),
(706,-207,o),
(744,-242,o),
(744,-308,cs),
(744,-400,o),
(672,-434,o),
(538,-434,cs),
(319,-434,o),
(211,-342,o),
(211,-99,cs),
(211,443,ls),
(211,658,o),
(290,770,o),
(464,865,c),
(402,971,l),
(182,867,o),
(64,724,o),
(64,443,cs),
(64,-99,ls),
(64,-438,o),
(256,-560,o),
(529,-560,cs)
);
},
{
closed = 1;
nodes = (
(501,97,l),
(468,115,o),
(461,131,o),
(461,170,cs),
(461,372,ls),
(461,411,o),
(475,428,o),
(499,428,cs),
(530,428,o),
(538,401,o),
(545,330,c),
(648,330,l),
(655,397,o),
(668,428,o),
(703,428,cs),
(726,428,o),
(744,414,o),
(744,360,cs),
(744,0,l),
(891,0,l),
(891,388,ls),
(891,485,o),
(849,554,o),
(737,554,cs),
(634,554,o),
(583,493,o),
(560,352,c),
(633,352,l),
(615,493,o),
(573,554,o),
(478,554,cs),
(373,554,o),
(315,481,o),
(315,388,cs),
(315,145,ls),
(315,51,o),
(349,24,o),
(432,-10,c)
);
}
);
width = 960;
},
{
associatedMasterId = m01;
layerId = "86A4FA77-B979-4C5B-B14D-9C3A0CF9EC51";
name = "15 Feb 23 01.36";
shapes = (
{
closed = 1;
nodes = (
(690,-580,o),
(824,-486,o),
(824,-318,cs),
(824,-193,o),
(749,-96,o),
(583,-96,cs),
(445,-96,o),
(374,-162,o),
(374,-262,cs),
(374,-338,o),
(414,-392,o),
(520,-413,c),
(553,-345,l),
(476,-327,o),
(462,-295,o),
(462,-261,cs),
(462,-199,o),
(515,-177,o),
(583,-177,cs),
(687,-177,o),
(737,-230,o),
(737,-320,cs),
(737,-442,o),
(646,-504,o),
(500,-504,cs),
(271,-504,o),
(130,-352,o),
(130,103,cs),
(130,509,o),
(242,740,o),
(433,920,c),
(385,971,l),
(224,820,o),
(43,609,o),
(43,104,cs),
(43,-412,o),
(239,-580,o),
(495,-580,cs)
);
},
{
closed = 1;
nodes = (
(439,64,l),
(393,79,o),
(372,93,o),
(372,143,cs),
(372,388,ls),
(372,441,o),
(391,473,o),
(434,473,cs),
(480,473,o),
(513,435,o),
(528,344,c),
(582,344,l),
(609,432,o),
(641,473,o),
(693,473,cs),
(724,473,o),
(744,460,o),
(744,417,cs),
(744,0,l),
(831,0,l),
(831,426,ls),
(831,507,o),
(791,554,o),
(715,554,cs),
(638,554,o),
(579,506,o),
(545,396,c),
(572,401,l),
(561,504,o),
(504,554,o),
(423,554,cs),
(326,554,o),
(285,483,o),
(285,388,cs),
(285,145,ls),
(285,35,o),
(334,7,o),
(410,-10,c)
);
}
);
width = 906;
},
{
associatedMasterId = m01;
background = {
shapes = (
{
closed = 1;
nodes = (
(439,64,l),
(393,79,o),
(372,93,o),
(372,143,cs),
(372,388,ls),
(372,441,o),
(391,473,o),
(434,473,cs),
(480,473,o),
(513,435,o),
(528,344,c),
(582,344,l),
(609,432,o),
(641,473,o),
(693,473,cs),
(724,473,o),
(744,460,o),
(744,417,cs),
(744,0,l),
(831,0,l),
(831,426,ls),
(831,507,o),
(791,554,o),
(715,554,cs),
(638,554,o),
(579,506,o),
(545,396,c),
(572,401,l),
(561,504,o),
(504,554,o),
(423,554,cs),
(326,554,o),
(285,483,o),
(285,388,cs),
(285,145,ls),
(285,35,o),
(334,7,o),
(410,-10,c)
);
}
);
};
layerId = "418DD4E6-2F9E-48EB-A55A-CC08DF421126";
name = "26 Feb 23 12.50";
shapes = (
{
closed = 1;
nodes = (
(689,-580,o),
(830,-487,o),
(830,-313,cs),
(830,-181,o),
(748,-76,o),
(576,-76,cs),
(438,-76,o),
(358,-141,o),
(358,-239,cs),
(358,-314,o),
(405,-369,o),
(514,-385,c),
(534,-328,l),
(461,-308,o),
(446,-273,o),
(446,-240,cs),
(446,-177,o),
(506,-157,o),
(572,-157,cs),
(684,-157,o),
(739,-217,o),
(739,-314,cs),
(739,-443,o),
(644,-504,o),
(502,-504,cs),
(277,-504,o),
(130,-352,o),
(130,107,cs),
(130,508,o),
(242,740,o),
(433,920,c),
(385,971,l),
(224,820,o),
(43,608,o),
(43,107,cs),
(43,-412,o),
(238,-580,o),
(497,-580,cs)
);
},
{
closed = 1;
nodes = (
(439,64,l),
(393,79,o),
(372,93,o),
(372,143,cs),
(372,405,ls),
(372,451,o),
(391,473,o),
(432,473,cs),
(479,473,o),
(509,441,o),
(518,344,c),
(592,344,l),
(606,432,o),
(639,473,o),
(693,473,cs),
(724,473,o),
(744,457,o),
(744,405,cs),
(744,0,l),
(831,0,l),
(831,414,ls),
(831,503,o),
(789,554,o),
(710,554,cs),
(634,554,o),
(559,506,o),
(541,396,c),
(568,401,l),
(563,510,o),
(503,554,o),
(423,554,cs),
(326,554,o),
(285,493,o),
(285,414,cs),
(285,145,ls),
(285,35,o),
(334,7,o),
(410,-10,c)
);
}
);
width = 916;
},
{
associatedMasterId = "FD202070-6699-4318-8E83-95414ED89137";
layerId = "1AECC54A-9377-4E84-9D27-674392D47644";
name = "26 Feb 23 19.39";
shapes = (
{
closed = 1;
nodes = (
(753,-580,o),
(895,-487,o),
(895,-314,cs),
(895,-181,o),
(811,-76,o),
(624,-76,cs),
(476,-76,o),
(395,-142,o),
(395,-237,cs),
(395,-315,o),
(444,-371,o),
(564,-389,c),
(594,-298,l),
(550,-288,o),
(533,-271,o),
(533,-250,cs),
(533,-217,o),
(570,-207,o),
(615,-207,cs),
(706,-207,o),
(744,-244,o),
(744,-315,cs),
(744,-412,o),
(672,-454,o),
(557,-454,cs),
(330,-454,o),
(190,-292,o),
(190,125,cs),
(190,482,o),
(293,707,o),
(529,865,c),
(445,971,l),
(246,839,o),
(43,624,o),
(43,123,cs),
(43,-386,o),
(253,-580,o),
(548,-580,cs)
);
},
{
closed = 1;
nodes = (
(501,97,l),
(468,115,o),
(461,131,o),
(461,170,cs),
(461,372,ls),
(461,411,o),
(475,428,o),
(499,428,cs),
(530,428,o),
(538,401,o),
(545,330,c),
(648,330,l),
(655,397,o),
(668,428,o),
(703,428,cs),
(726,428,o),
(744,414,o),
(744,360,cs),
(744,0,l),
(891,0,l),
(891,388,ls),
(891,485,o),
(849,554,o),
(737,554,cs),
(634,554,o),
(583,493,o),
(560,352,c),
(633,352,l),
(615,493,o),
(573,554,o),
(478,554,cs),
(373,554,o),
(315,481,o),
(315,388,cs),
(315,145,ls),
(315,51,o),
(349,24,o),
(432,-10,c)
);
}
);
width = 958;
},
{
associatedMasterId = m01;
background = {
shapes = (
{
closed = 1;
nodes = (
(689,-580,o),
(830,-487,o),
(830,-313,cs),
(830,-181,o),
(748,-76,o),
(576,-76,cs),
(438,-76,o),
(358,-141,o),
(358,-239,cs),
(358,-314,o),
(405,-369,o),
(514,-385,c),
(534,-328,l),
(461,-308,o),
(446,-273,o),
(446,-240,cs),
(446,-177,o),
(506,-157,o),
(572,-157,cs),
(684,-157,o),
(739,-217,o),
(739,-314,cs),
(739,-443,o),
(644,-504,o),
(502,-504,cs),
(277,-504,o),
(130,-352,o),
(130,107,cs),
(130,508,o),
(242,740,o),
(433,920,c),
(385,971,l),
(224,820,o),
(43,608,o),
(43,107,cs),
(43,-412,o),
(238,-580,o),
(497,-580,cs)
);
},
{
closed = 1;
nodes = (
(439,64,l),
(393,79,o),
(372,93,o),
(372,143,cs),
(372,405,ls),
(372,451,o),
(391,473,o),
(432,473,cs),
(479,473,o),
(509,441,o),
(518,344,c),
(592,344,l),
(606,432,o),
(639,473,o),
(693,473,cs),
(724,473,o),
(744,457,o),
(744,405,cs),
(744,0,l),
(831,0,l),
(831,414,ls),
(831,503,o),
(789,554,o),
(710,554,cs),
(634,554,o),
(559,506,o),
(541,396,c),
(568,401,l),
(563,510,o),
(503,554,o),
(423,554,cs),
(326,554,o),
(285,493,o),
(285,414,cs),
(285,145,ls),
(285,35,o),
(334,7,o),
(410,-10,c)
);
}
);
};
layerId = "9DB15067-1E99-4F6B-A315-7F24C35E8DC9";
name = "5 Mar 23 22.51";
shapes = (
{
closed = 1;
nodes = (
(693,-560,o),
(830,-470,o),
(830,-304,cs),
(830,-176,o),
(748,-76,o),
(575,-76,cs),
(438,-76,o),
(358,-139,o),
(358,-235,cs),
(358,-307,o),
(405,-360,o),
(514,-375,c),
(534,-318,l),
(461,-299,o),
(446,-267,o),
(446,-236,cs),
(446,-176,o),
(506,-157,o),
(572,-157,cs),
(684,-157,o),
(739,-213,o),
(739,-306,cs),
(739,-426,o),
(647,-484,o),
(493,-484,cs),
(282,-484,o),
(171,-374,o),
(171,-99,cs),
(171,443,ls),
(171,684,o),
(280,818,o),
(436,915,c),
(402,971,l),
(212,869,o),
(84,724,o),
(84,443,cs),
(84,-99,ls),
(84,-441,o),
(249,-560,o),
(486,-560,cs)
);
},
{
closed = 1;
nodes = (
(439,64,l),
(393,79,o),
(372,93,o),
(372,143,cs),
(372,405,ls),
(372,451,o),
(391,473,o),
(432,473,cs),
(479,473,o),
(509,441,o),
(518,344,c),
(592,344,l),
(606,432,o),
(639,473,o),
(693,473,cs),
(724,473,o),
(744,457,o),
(744,405,cs),
(744,0,l),
(831,0,l),
(831,414,ls),
(831,503,o),
(789,554,o),
(710,554,cs),
(634,554,o),
(559,506,o),
(541,396,c),
(568,401,l),
(563,510,o),
(503,554,o),
(423,554,cs),
(326,554,o),
(285,493,o),
(285,414,cs),
(285,145,ls),
(285,35,o),
(334,7,o),
(410,-10,c)
);
}
);
width = 916;
},
{
associatedMasterId = "FD202070-6699-4318-8E83-95414ED89137";
background = {
shapes = (
{
closed = 1;
nodes = (
(753,-580,o),
(895,-487,o),
(895,-314,cs),
(895,-181,o),
(811,-76,o),
(624,-76,cs),
(476,-76,o),
(395,-142,o),
(395,-237,cs),
(395,-315,o),
(444,-371,o),
(564,-389,c),
(594,-298,l),
(550,-288,o),
(533,-271,o),
(533,-250,cs),
(533,-217,o),
(570,-207,o),
(615,-207,cs),
(706,-207,o),
(744,-244,o),
(744,-315,cs),
(744,-412,o),
(672,-454,o),
(557,-454,cs),
(330,-454,o),
(190,-292,o),
(190,125,cs),
(190,482,o),
(293,707,o),
(529,865,c),
(445,971,l),
(246,839,o),
(43,624,o),
(43,123,cs),
(43,-386,o),
(253,-580,o),
(548,-580,cs)
);
},
{
closed = 1;
nodes = (
(501,97,l),
(468,115,o),
(461,131,o),
(461,170,cs),
(461,372,ls),
(461,411,o),
(475,428,o),
(499,428,cs),
(530,428,o),
(538,401,o),
(545,330,c),
(648,330,l),
(655,397,o),
(668,428,o),
(703,428,cs),
(726,428,o),
(744,414,o),
(744,360,cs),
(744,0,l),
(891,0,l),
(891,388,ls),
(891,485,o),
(849,554,o),
(737,554,cs),
(634,554,o),
(583,493,o),
(560,352,c),
(633,352,l),
(615,493,o),
(573,554,o),
(478,554,cs),
(373,554,o),
(315,481,o),
(315,388,cs),
(315,145,ls),
(315,51,o),
(349,24,o),
(432,-10,c)
);
}
);
};
layerId = "1C0510AF-93B9-45F7-969D-D9B95C8C6801";
name = "5 Mar 23 23.15";
shapes = (
{
closed = 1;
nodes = (
(762,-560,o),
(895,-472,o),
(895,-307,cs),
(895,-178,o),
(811,-76,o),
(625,-76,cs),
(476,-76,o),
(395,-141,o),
(395,-239,cs),
(395,-315,o),
(439,-368,o),
(551,-389,c),
(578,-298,l),
(546,-288,o),
(533,-271,o),
(533,-250,cs),
(533,-217,o),
(570,-207,o),
(615,-207,cs),
(706,-207,o),
(744,-242,o),
(744,-308,cs),
(744,-400,o),
(672,-434,o),
(538,-434,cs),
(319,-434,o),
(211,-342,o),
(211,-99,cs),
(211,443,ls),
(211,658,o),
(305,770,o),
(464,865,c),
(402,971,l),
(197,867,o),
(64,724,o),
(64,443,cs),
(64,-99,ls),
(64,-438,o),
(256,-560,o),
(529,-560,cs)
);
},
{
closed = 1;
nodes = (
(501,97,l),
(468,115,o),
(461,131,o),
(461,170,cs),
(461,372,ls),
(461,411,o),
(475,428,o),
(499,428,cs),
(530,428,o),
(538,401,o),
(545,330,c),
(648,330,l),
(655,397,o),
(668,428,o),
(703,428,cs),
(726,428,o),
(744,414,o),
(744,360,cs),
(744,0,l),
(891,0,l),
(891,388,ls),
(891,485,o),
(849,554,o),
(737,554,cs),
(634,554,o),
(583,493,o),
(560,352,c),
(633,352,l),
(615,493,o),
(573,554,o),
(478,554,cs),
(373,554,o),
(315,481,o),
(315,388,cs),
(315,145,ls),
(315,51,o),
(349,24,o),
(432,-10,c)
);
}
);
width = 960;
},
{
associatedMasterId = m01;
background = {
shapes = (
{
closed = 1;
nodes = (
(693,-560,o),
(830,-470,o),
(830,-304,cs),
(830,-176,o),
(748,-76,o),
(575,-76,cs),
(438,-76,o),
(358,-139,o),
(358,-235,cs),
(358,-307,o),
(405,-360,o),
(514,-375,c),
(534,-318,l),
(461,-299,o),
(446,-267,o),
(446,-236,cs),
(446,-176,o),
(506,-157,o),
(572,-157,cs),
(684,-157,o),
(739,-213,o),
(739,-306,cs),
(739,-426,o),
(647,-484,o),
(493,-484,cs),
(282,-484,o),
(171,-374,o),
(171,-99,cs),
(171,443,ls),
(171,684,o),
(280,818,o),
(436,915,c),
(402,971,l),
(212,869,o),
(84,724,o),
(84,443,cs),
(84,-99,ls),
(84,-441,o),
(249,-560,o),
(486,-560,cs)
);
},
{
closed = 1;
nodes = (
(439,64,l),
(393,79,o),
(372,93,o),
(372,143,cs),
(372,405,ls),
(372,451,o),
(391,473,o),
(432,473,cs),
(479,473,o),
(509,441,o),
(518,344,c),
(592,344,l),
(606,432,o),
(639,473,o),
(693,473,cs),
(724,473,o),
(744,457,o),
(744,405,cs),
(744,0,l),
(831,0,l),
(831,414,ls),
(831,503,o),
(789,554,o),
(710,554,cs),
(634,554,o),
(559,506,o),
(541,396,c),
(568,401,l),
(563,510,o),
(503,554,o),
(423,554,cs),
(326,554,o),
(285,493,o),
(285,414,cs),
(285,145,ls),
(285,35,o),
(334,7,o),
(410,-10,c)
);
}
);
};
layerId = "85FD3DA9-CD8A-4224-B049-AD853C89E170";
name = "6 Mar 23 01.25";
shapes = (
{
closed = 1;
nodes = (
(693,-560,o),
(830,-470,o),
(830,-304,cs),
(830,-176,o),
(748,-76,o),
(575,-76,cs),
(438,-76,o),
(358,-139,o),
(358,-235,cs),
(358,-307,o),
(405,-360,o),
(514,-375,c),
(534,-318,l),
(461,-299,o),
(446,-267,o),
(446,-236,cs),
(446,-176,o),
(506,-157,o),
(572,-157,cs),
(684,-157,o),
(739,-213,o),
(739,-306,cs),
(739,-426,o),
(647,-484,o),
(493,-484,cs),
(282,-484,o),
(171,-374,o),
(171,-99,cs),
(171,443,ls),
(171,684,o),
(280,818,o),
(436,915,c),
(402,971,l),
(212,869,o),
(84,724,o),
(84,443,cs),
(84,-99,ls),
(84,-441,o),
(249,-560,o),
(486,-560,cs)
);
},
{
closed = 1;
nodes = (
(439,64,l),
(393,79,o),
(372,93,o),
(372,143,cs),
(372,405,ls),
(372,451,o),
(391,473,o),
(432,473,cs),
(479,473,o),
(509,441,o),
(518,344,c),
(596,344,l),
(609,432,o),
(636,473,o),
(684,473,cs),
(718,473,o),
(744,457,o),
(744,405,cs),
(744,0,l),
(831,0,l),
(831,414,ls),
(831,503,o),
(784,554,o),
(697,554,cs),
(608,554,o),
(558,506,o),
(541,396,c),
(568,401,l),
(563,510,o),
(503,554,o),
(423,554,cs),
(326,554,o),
(285,493,o),
(285,414,cs),
(285,145,ls),
(285,35,o),
(334,7,o),
(410,-10,c)
);
}
);
width = 916;
}
);
metricRight = "ka-kawi";
unicode = 73479;
},
{
glyphname = "ja-kawi";
layers = (
{
anchors = (
{
name = bottom;
pos = (475,0);
},
{
name = top;
pos = (311,544);
},
{
name = topright;
pos = (469,544);
}
);
background = {
shapes = (
{
closed = 1;
nodes = (
(233,544,l),
(131,544,o),
(74,498,o),
(74,384,cs),
(74,160,ls),
(74,46,o),
(131,0,o),
(233,0,cs),
(499,0,l),
(499,76,l),
(239,76,ls),
(189,76,o),
(161,98,o),
(161,155,cs),
(161,389,ls),
(161,446,o),
(189,468,o),
(239,468,c)
);
},
{
closed = 1;
nodes = (
(225,317,l),
(225,241,l),
(449,241,l),
(449,317,l)
);
}
);
};
layerId = m01;
shapes = (
{
closed = 1;
nodes = (
(519,0,l),
(519,76,l),
(239,76,ls),
(189,76,o),
(161,98,o),
(161,155,cs),
(161,379,ls),
(161,436,o),
(189,468,o),
(239,468,cs),
(389,468,ls),
(443,468,o),
(466,453,o),
(492,419,c),
(554,466,l),
(520,516,o),
(481,544,o),
(389,544,cs),
(233,544,ls),
(131,544,o),
(74,488,o),
(74,374,cs),
(74,160,ls),
(74,46,o),
(131,0,o),
(233,0,cs)
);
},
{
closed = 1;
nodes = (
(449,238,l),
(449,314,l),
(225,314,l),
(225,238,l)
);
}
);
width = 579;
},
{
anchors = (
{
name = bottom;
pos = (485,0);
},
{
name = top;
pos = (327,544);
},
{
name = topright;
pos = (479,544);
}
);
background = {
shapes = (
{
closed = 1;
nodes = (
(520,0,l),
(520,126,l),
(250,126,ls),
(213,126,o),
(192,141,o),
(192,180,cs),
(192,354,ls),
(192,395,o),
(210,418,o),
(242,418,cs),
(398,418,ls),
(436,418,o),
(455,404,o),
(471,373,c),
(580,425,l),
(552,513,o),
(497,544,o),
(409,544,cs),
(244,544,ls),
(117,544,o),
(45,485,o),
(45,364,cs),
(45,170,ls),
(45,49,o),
(113,0,o),
(234,0,cs)
);
},
{
closed = 1;
nodes = (
(438,210,l),
(438,326,l),
(239,326,l),
(239,210,l)
);
}
);
};
layerId = "FD202070-6699-4318-8E83-95414ED89137";
shapes = (
{
closed = 1;
nodes = (
(530,0,l),
(530,126,l),
(260,126,ls),
(223,126,o),
(202,141,o),
(202,180,cs),
(202,354,ls),
(202,395,o),
(220,418,o),
(252,418,cs),
(388,418,ls),
(426,418,o),
(445,404,o),
(461,373,c),
(579,425,l),
(542,513,o),
(487,544,o),
(399,544,cs),
(254,544,ls),
(127,544,o),
(55,485,o),
(55,364,cs),
(55,170,ls),
(55,49,o),
(123,0,o),
(244,0,cs)
);
},
{
closed = 1;
nodes = (
(441,207,l),
(441,323,l),
(249,323,l),
(249,207,l)
);
}
);
width = 604;
},
{
associatedMasterId = m01;
background = {
shapes = (
{
closed = 1;
nodes = (
(37,519,l),
(-65,519,o),
(-122,473,o),
(-122,359,cs),
(-122,160,ls),
(-122,46,o),
(-65,0,o),
(37,0,cs),
(433,0,l),
(433,76,l),
(43,76,ls),
(-7,76,o),
(-35,98,o),
(-35,155,cs),
(-35,364,ls),
(-35,421,o),
(-7,443,o),
(43,443,c)
);
},
{
closed = 1;
nodes = (
(29,342,l),
(29,266,l),
(433,266,l),
(433,342,l)
);
}
);
};
layerId = "E0A6CD6F-C493-4827-AEA8-71564E86B09D";
name = "4 Feb 23 19.50";
shapes = (
{
closed = 1;
nodes = (
(237,544,l),
(135,544,o),
(78,498,o),
(78,384,cs),
(78,160,ls),
(78,46,o),
(135,0,o),
(237,0,cs),
(503,0,l),
(503,76,l),
(243,76,ls),
(193,76,o),
(165,98,o),
(165,155,cs),
(165,389,ls),
(165,446,o),
(193,468,o),
(243,468,c)
);
},
{
closed = 1;
nodes = (
(229,317,l),
(229,241,l),
(453,241,l),
(453,317,l)
);
}
);
width = 493;
},
{
associatedMasterId = "FD202070-6699-4318-8E83-95414ED89137";
layerId = "4F6A5758-55CC-4B6B-B4D2-7F433DA1232A";
name = "19 Feb 23 00.22";
shapes = (
{
closed = 1;
nodes = (
(533,0,l),
(533,126,l),
(263,126,ls),
(226,126,o),
(205,141,o),
(205,180,cs),
(205,354,ls),
(205,395,o),
(223,418,o),
(255,418,cs),
(411,418,ls),
(449,418,o),
(468,404,o),
(484,373,c),
(593,425,l),
(565,513,o),
(510,544,o),
(422,544,cs),
(257,544,ls),
(130,544,o),
(58,485,o),
(58,364,cs),
(58,170,ls),
(58,49,o),
(126,0,o),
(247,0,cs)
);
},
{
closed = 1;
nodes = (
(451,210,l),
(451,326,l),
(252,326,l),
(252,210,l)
);
}
);
width = 617;
}
);
metricLeft = "ka-kawi";
unicode = 73497;
},
{
glyphname = "jha-kawi";
layers = (
{
anchors = (
{
name = bottom;
pos = (855,0);
},
{
name = top;
pos = (524,544);
},
{
name = topright;
pos = (849,544);
}
);
background = {
shapes = (
{
closed = 1;
nodes = (
(208,64,l),
(162,79,o),
(141,93,o),
(141,143,cs),
(141,388,ls),
(141,441,o),
(160,473,o),
(203,473,cs),
(249,473,o),
(282,435,o),
(297,344,c),
(351,344,l),
(378,432,o),
(410,473,o),
(462,473,cs),
(493,473,o),
(513,460,o),
(513,417,cs),
(513,0,l),
(590,0,l),
(590,105,l),
(600,127,l),
(600,426,ls),
(600,507,o),
(560,554,o),
(484,554,cs),
(407,554,o),
(348,506,o),
(314,396,c),
(341,401,l),
(330,504,o),
(273,554,o),
(192,554,cs),
(95,554,o),
(54,483,o),
(54,388,cs),
(54,145,ls),
(54,35,o),
(103,7,o),
(179,-10,c)
);
},
{
closed = 1;
nodes = (
(836,-10,o),
(903,50,o),
(903,158,cs),
(903,360,ls),
(903,438,o),
(869,488,o),
(796,488,c),
(732,468,l),
(812,468,o),
(816,423,o),
(816,360,cs),
(816,164,ls),
(816,99,o),
(794,66,o),
(728,66,cs),
(665,66,o),
(621,97,o),
(597,187,c),
(555,172,l),
(575,67,o),
(626,-10,o),
(738,-10,cs)
);
},
{
closed = 1;
nodes = (
(940,468,l),
(940,544,l),
(732,544,l),
(732,468,l)
);
}
);
};
layerId = m01;
shapes = (
{
closed = 1;
nodes = (
(228,64,l),
(182,79,o),
(161,93,o),
(161,143,cs),
(161,405,ls),
(161,452,o),
(177,473,o),
(213,473,cs),
(258,473,o),
(288,441,o),
(297,344,c),
(375,344,l),
(387,432,o),
(409,473,o),
(456,473,cs),
(486,473,o),
(513,457,o),
(513,405,cs),
(513,0,l),
(590,0,l),
(590,107,l),
(600,124,l),
(600,414,ls),
(600,503,o),
(553,554,o),
(466,554,cs),
(383,554,o),
(336,506,o),
(320,396,c),
(347,401,l),
(342,510,o),
(282,554,o),
(202,554,cs),
(112,554,o),
(74,493,o),
(74,414,cs),
(74,145,ls),
(74,35,o),
(123,7,o),
(199,-10,c)
);
},
{
closed = 1;
nodes = (
(836,-10,o),
(903,50,o),
(903,158,cs),
(903,360,ls),
(903,438,o),
(869,488,o),
(796,488,c),
(732,468,l),
(812,468,o),
(816,423,o),
(816,360,cs),
(816,164,ls),
(816,99,o),
(794,66,o),
(728,66,cs),
(665,66,o),
(621,97,o),
(597,187,c),
(555,172,l),
(575,67,o),
(626,-10,o),
(738,-10,cs)
);
},
{
closed = 1;
nodes = (
(940,468,l),
(940,544,l),
(732,544,l),
(732,468,l)
);
}
);
width = 975;
},
{
anchors = (
{
name = bottom;
pos = (855,0);
},
{
name = top;
pos = (504,544);
},
{
name = topright;
pos = (849,544);
}
);
background = {
shapes = (
{
closed = 1;
nodes = (
(226,97,l),
(190,115,o),
(179,131,o),
(179,170,cs),
(178,372,ls),
(178,411,o),
(192,428,o),
(215,428,cs),
(246,428,o),
(257,400,o),
(267,316,c),
(367,316,l),
(377,395,o),
(396,428,o),
(430,428,cs),
(455,428,o),
(475,415,o),
(475,360,cs),
(475,0,l),
(602,0,l),
(602,107,l),
(622,142,l),
(622,388,ls),
(622,498,o),
(562,554,o),
(468,554,cs),
(370,554,o),
(311,489,o),
(281,338,c),
(351,338,l),
(334,503,o),
(271,554,o),
(184,554,cs),
(85,554,o),
(32,483,o),
(32,388,cs),
(32,145,ls),
(32,51,o),
(74,24,o),
(162,-10,c)
);
},
{
closed = 1;
nodes = (
(864,-10,o),
(936,43,o),
(936,178,cs),
(936,304,ls),
(936,381,o),
(914,438,o),
(795,438,c),
(723,418,l),
(773,418,o),
(789,402,o),
(789,344,cs),
(789,184,ls),
(789,146,o),
(778,126,o),
(737,126,cs),
(688,126,o),
(630,155,o),
(600,227,c),
(558,212,l),
(584,73,o),
(643,-10,o),
(766,-10,cs)
);
},
{
closed = 1;
nodes = (
(967,418,l),
(967,544,l),
(715,544,l),
(715,418,l)
);
}
);
};
layerId = "FD202070-6699-4318-8E83-95414ED89137";
shapes = (
{
closed = 1;
nodes = (
(241,97,l),
(208,115,o),
(201,131,o),
(201,170,cs),
(201,362,ls),
(201,410,o),
(213,428,o),
(238,428,cs),
(269,428,o),
(279,406,o),
(286,340,c),
(389,340,l),
(396,408,o),
(410,428,o),
(436,428,cs),
(460,428,o),
(475,411,o),
(475,362,cs),
(475,0,l),
(602,0,l),
(602,115,l),
(622,139,l),
(622,388,ls),
(622,490,o),
(579,554,o),
(472,554,cs),
(374,554,o),
(322,496,o),
(301,362,c),
(374,362,l),
(356,496,o),
(309,554,o),
(209,554,cs),
(107,554,o),
(55,490,o),
(55,388,cs),
(55,145,ls),
(55,51,o),
(89,24,o),
(173,-10,c)
);
},
{
closed = 1;
nodes = (
(864,-10,o),
(936,43,o),
(936,178,cs),
(936,304,ls),
(936,381,o),
(914,438,o),
(795,438,c),
(723,418,l),
(773,418,o),
(789,402,o),
(789,344,cs),
(789,184,ls),
(789,146,o),
(778,126,o),
(737,126,cs),
(688,126,o),
(630,155,o),
(600,227,c),
(558,212,l),
(584,73,o),
(643,-10,o),
(766,-10,cs)
);
},
{
closed = 1;
nodes = (
(967,418,l),
(967,544,l),
(715,544,l),
(715,418,l)
);
}
);
width = 1002;
},
{
associatedMasterId = m01;
layerId = "9F8275FE-7B2B-49A0-8322-D99C3D3E3D48";
name = "9 Feb 23 21.13";
shapes = (
{
closed = 1;
nodes = (
(644,0,l),
(644,397,ls),
(644,507,o),
(584,554,o),
(494,554,cs),
(419,554,o),
(348,521,o),
(348,388,c),
(374,388,l),
(374,520,o),
(303,554,o),
(231,554,cs),
(127,554,o),
(78,483,o),
(78,388,cs),
(78,105,ls),
(78,41,o),
(101,11,o),
(137,-10,c),
(194,47,l),
(174,64,o),
(165,80,o),
(165,116,cs),
(165,397,ls),
(165,454,o),
(197,478,o),
(244,478,cs),
(288,478,o),
(323,457,o),
(323,388,cs),
(323,339,l),
(400,339,l),
(400,388,ls),
(400,448,o),
(429,478,o),
(481,478,cs),
(536,478,o),
(557,445,o),
(557,388,cs),
(557,0,l)
);
},
{
closed = 1;
nodes = (
(616,156,l),
(616,32,o),
(674,0,o),
(739,0,cs),
(786,0,ls),
(890,0,o),
(946,53,o),
(946,148,cs),
(946,384,l),
(865,488,l),
(785,468,l),
(859,374,l),
(859,154,ls),
(859,104,o),
(831,76,o),
(781,76,cs),
(723,76,ls),
(682,76,o),
(644,96,o),
(644,156,c)
);
},
{
closed = 1;
nodes = (
(987,468,l),
(987,544,l),
(785,544,l),
(785,468,l)
);
}
);
width = 1022;
},
{
associatedMasterId = m01;
background = {
shapes = (
{
closed = 1;
nodes = (
(644,0,l),
(644,397,ls),
(644,507,o),
(584,554,o),
(494,554,cs),
(419,554,o),
(348,521,o),
(348,388,c),
(374,388,l),
(374,520,o),
(303,554,o),
(231,554,cs),
(127,554,o),
(78,483,o),
(78,388,cs),
(78,105,ls),
(78,41,o),
(101,11,o),
(137,-10,c),
(194,47,l),
(174,64,o),
(165,80,o),
(165,116,cs),
(165,397,ls),
(165,454,o),
(197,478,o),
(244,478,cs),
(288,478,o),
(323,457,o),
(323,388,cs),
(323,339,l),
(400,339,l),
(400,388,ls),
(400,448,o),
(429,478,o),
(481,478,cs),
(536,478,o),
(557,445,o),
(557,388,cs),
(557,0,l)
);
},
{
closed = 1;
nodes = (
(616,156,l),
(616,32,o),
(674,0,o),
(739,0,cs),
(786,0,ls),
(890,0,o),
(946,53,o),
(946,148,cs),
(946,384,l),
(865,488,l),
(785,468,l),
(859,374,l),
(859,154,ls),
(859,104,o),
(831,76,o),
(781,76,cs),
(723,76,ls),
(682,76,o),
(644,96,o),
(644,156,c)
);
},
{
closed = 1;
nodes = (
(987,468,l),
(987,544,l),
(785,544,l),
(785,468,l)
);
}
);
};
layerId = "9BDF2A06-F2F9-4B04-9CB4-F61B93D6636B";
name = "10 Feb 23 02.01";
shapes = (
{
closed = 1;
nodes = (
(634,0,l),
(634,105,l),
(644,127,l),
(644,397,ls),
(644,507,o),
(584,554,o),
(494,554,cs),
(419,554,o),
(348,521,o),
(348,388,c),
(374,388,l),
(374,520,o),
(303,554,o),
(231,554,cs),
(127,554,o),
(78,483,o),
(78,388,cs),
(78,105,ls),
(78,41,o),
(101,11,o),
(137,-10,c),
(194,47,l),
(174,64,o),
(165,80,o),
(165,116,cs),
(165,397,ls),
(165,454,o),
(197,478,o),
(244,478,cs),
(288,478,o),
(323,457,o),
(323,388,cs),
(323,339,l),
(400,339,l),
(400,388,ls),
(400,448,o),
(429,478,o),
(481,478,cs),
(536,478,o),
(557,445,o),
(557,388,cs),
(557,0,l)
);
},
{
closed = 1;
nodes = (
(987,468,l),
(987,544,l),
(785,544,l),
(785,468,l)
);
},
{
closed = 1;
nodes = (
(706,76,o),
(656,95,o),
(644,177,c),
(598,170,l),
(614,35,o),
(688,0,o),
(768,0,cs),
(884,0,o),
(946,53,o),
(946,148,cs),
(946,384,l),
(865,488,l),
(785,468,l),
(859,374,l),
(859,154,ls),
(859,104,o),
(823,76,o),
(758,76,cs)
);
}
);
width = 1022;
},
{
associatedMasterId = m01;
background = {
shapes = (
{
closed = 1;
nodes = (
(634,0,l),
(634,105,l),
(644,127,l),
(644,397,ls),
(644,507,o),
(584,554,o),
(494,554,cs),
(419,554,o),
(348,521,o),
(348,388,c),
(374,388,l),
(374,520,o),
(303,554,o),
(231,554,cs),
(127,554,o),
(78,483,o),
(78,388,cs),
(78,105,ls),
(78,41,o),
(101,11,o),
(137,-10,c),
(194,47,l),
(174,64,o),
(165,80,o),
(165,116,cs),
(165,397,ls),
(165,454,o),
(197,478,o),
(244,478,cs),
(288,478,o),
(323,457,o),
(323,388,cs),
(323,339,l),
(400,339,l),
(400,388,ls),
(400,448,o),
(429,478,o),
(481,478,cs),
(536,478,o),
(557,445,o),
(557,388,cs),
(557,0,l)
);
},
{
closed = 1;
nodes = (
(987,468,l),
(987,544,l),
(785,544,l),
(785,468,l)
);
},
{
closed = 1;
nodes = (
(706,76,o),
(656,95,o),
(644,177,c),
(598,170,l),
(614,35,o),
(688,0,o),
(768,0,cs),
(884,0,o),
(946,53,o),
(946,148,cs),
(946,384,l),
(865,488,l),
(785,468,l),
(859,374,l),
(859,154,ls),
(859,104,o),
(823,76,o),
(758,76,cs)
);
}
);
};
layerId = "01DAAA9D-AD56-4C0C-9B16-D786EF9BC754";
name = "10 Feb 23 02.07";
shapes = (
{
closed = 1;
nodes = (
(288,468,o),
(328,443,o),
(348,344,c),
(385,344,l),
(422,435,o),
(454,478,o),
(506,478,cs),
(537,478,o),
(557,464,o),
(557,417,cs),
(557,0,l),
(634,0,l),
(634,105,l),
(644,127,l),
(644,426,ls),
(644,507,o),
(604,554,o),
(528,554,cs),
(451,554,o),
(392,506,o),
(348,396,c),
(392,390,l),
(374,506,o),
(303,544,o),
(191,544,cs),
(34,544,l),
(34,468,l),
(204,468,ls)
);
},
{
closed = 1;
nodes = (
(987,468,l),
(987,544,l),
(785,544,l),
(785,468,l)
);
},
{
closed = 1;
nodes = (
(706,76,o),
(656,95,o),
(644,177,c),
(598,170,l),
(614,43,o),
(676,0,o),
(774,0,cs),
(882,0,o),
(946,53,o),
(946,148,cs),
(946,384,l),
(865,488,l),
(785,468,l),
(859,374,l),
(859,154,ls),
(859,104,o),
(823,76,o),
(758,76,cs)
);
},
{
closed = 1;
nodes = (
(214,47,l),
(194,64,o),
(185,80,o),
(185,116,cs),
(185,360,ls),
(185,438,o),
(151,488,o),
(78,488,c),
(34,468,l),
(94,468,o),
(98,423,o),
(98,360,cs),
(98,105,ls),
(98,41,o),
(124,11,o),
(164,-10,c)
);
}
);
width = 1022;
},
{
associatedMasterId = m01;
background = {
shapes = (
{
closed = 1;
nodes = (
(634,0,l),
(634,105,l),
(644,127,l),
(644,426,ls),
(644,507,o),
(604,554,o),
(528,554,cs),
(451,554,o),
(392,506,o),
(348,396,c),
(392,390,l),
(374,506,o),
(303,544,o),
(191,544,cs),
(34,544,l),
(34,468,l),
(204,468,ls),
(288,468,o),
(328,443,o),
(348,344,c),
(385,344,l),
(422,435,o),
(454,478,o),
(506,478,cs),
(537,478,o),
(557,464,o),
(557,417,cs),
(557,0,l)
);
},
{
closed = 1;
nodes = (
(214,47,l),
(194,64,o),
(185,80,o),
(185,116,cs),
(185,360,ls),
(185,438,o),
(151,488,o),
(78,488,c),
(34,468,l),
(94,468,o),
(98,423,o),
(98,360,cs),
(98,105,ls),
(98,41,o),
(124,11,o),
(164,-10,c)
);
},
{
closed = 1;
nodes = (
(882,0,o),
(946,53,o),
(946,148,cs),
(946,360,ls),
(946,438,o),
(912,488,o),
(839,488,c),
(775,468,l),
(855,468,o),
(859,423,o),
(859,360,cs),
(859,154,ls),
(859,104,o),
(823,76,o),
(758,76,cs),
(706,76,o),
(656,95,o),
(644,177,c),
(598,170,l),
(614,43,o),
(676,0,o),
(774,0,cs)
);
},
{
closed = 1;
nodes = (
(983,468,l),
(983,544,l),
(775,544,l),
(775,468,l)
);
}
);
};
layerId = "A350FEB3-8A3E-48C1-9232-17482460E7A6";
name = "10 Feb 23 02.17";
shapes = (
{
closed = 1;
nodes = (
(634,0,l),
(634,105,l),
(644,127,l),
(644,426,ls),
(644,507,o),
(604,554,o),
(528,554,cs),
(451,554,o),
(392,506,o),
(348,396,c),
(392,390,l),
(374,506,o),
(303,544,o),
(191,544,cs),
(63,544,l),
(63,468,l),
(204,468,ls),
(288,468,o),
(328,443,o),
(348,344,c),
(385,344,l),
(422,435,o),
(454,478,o),
(506,478,cs),
(537,478,o),
(557,464,o),
(557,417,cs),
(557,0,l)
);
},
{
closed = 1;
nodes = (
(882,0,o),
(946,53,o),
(946,148,cs),
(946,360,ls),
(946,438,o),
(912,488,o),
(839,488,c),
(775,468,l),
(855,468,o),
(859,423,o),
(859,360,cs),
(859,154,ls),
(859,104,o),
(823,76,o),
(758,76,cs),
(706,76,o),
(656,95,o),
(644,177,c),
(598,170,l),
(614,43,o),
(676,0,o),
(774,0,cs)
);
},
{
closed = 1;
nodes = (
(983,468,l),
(983,544,l),
(775,544,l),
(775,468,l)
);
},
{
closed = 1;
nodes = (
(272,64,l),
(226,79,o),
(205,93,o),
(205,143,cs),
(205,350,l),
(144,488,l),
(63,468,l),
(118,350,l),
(118,145,ls),
(118,35,o),
(167,7,o),
(243,-10,c)
);
}
);
width = 1018;
},
{
anchors = (
{
name = bottom;
pos = (493,0);
},
{
name = top;
pos = (493,800);
}
);
associatedMasterId = m01;
background = {
shapes = (
{
closed = 1;
nodes = (
(600,0,l),
(600,105,l),
(610,127,l),
(610,426,ls),
(610,507,o),
(570,554,o),
(494,554,cs),
(417,554,o),
(358,506,o),
(314,396,c),
(358,390,l),
(340,506,o),
(269,544,o),
(157,544,cs),
(29,544,l),
(29,468,l),
(170,468,ls),
(254,468,o),
(294,443,o),
(314,344,c),
(351,344,l),
(388,435,o),
(420,478,o),
(472,478,cs),
(503,478,o),
(523,464,o),
(523,417,cs),
(523,0,l)
);
},
{
closed = 1;
nodes = (
(848,0,o),
(912,53,o),
(912,148,cs),
(912,360,ls),
(912,438,o),
(878,488,o),
(805,488,c),
(741,468,l),
(821,468,o),
(825,423,o),
(825,360,cs),
(825,154,ls),
(825,104,o),
(789,76,o),
(724,76,cs),
(672,76,o),
(622,95,o),
(610,177,c),
(564,170,l),
(580,43,o),
(642,0,o),
(740,0,cs)
);
},
{
closed = 1;
nodes = (
(949,468,l),
(949,544,l),
(741,544,l),
(741,468,l)
);
},
{
closed = 1;
nodes = (
(238,64,l),
(192,79,o),
(171,93,o),
(171,143,cs),
(171,350,l),
(110,488,l),
(29,468,l),
(84,350,l),
(84,145,ls),
(84,35,o),
(133,7,o),
(209,-10,c)
);
}
);
};
layerId = "A8024F4B-8995-4357-BD4F-FB0F4AFA26A3";
name = "19 Feb 23 00.51";
shapes = (
{
closed = 1;
nodes = (
(218,64,l),
(172,79,o),
(151,93,o),
(151,143,cs),
(151,388,ls),
(151,441,o),
(170,473,o),
(213,473,cs),
(259,473,o),
(292,435,o),
(307,344,c),
(361,344,l),
(388,432,o),
(420,473,o),
(472,473,cs),
(503,473,o),
(523,460,o),
(523,417,cs),
(523,0,l),
(600,0,l),
(600,105,l),
(610,127,l),
(610,426,ls),
(610,507,o),
(570,554,o),
(494,554,cs),
(417,554,o),
(358,506,o),
(324,396,c),
(351,401,l),
(340,504,o),
(283,554,o),
(202,554,cs),
(105,554,o),
(64,483,o),
(64,388,cs),
(64,145,ls),
(64,35,o),
(113,7,o),
(189,-10,c)
);
},
{
closed = 1;
nodes = (
(857,-10,o),
(912,47,o),
(912,148,cs),
(912,360,ls),
(912,438,o),
(878,488,o),
(805,488,c),
(741,468,l),
(821,468,o),
(825,423,o),
(825,360,cs),
(825,154,ls),
(825,98,o),
(803,66,o),
(752,66,cs),
(700,66,o),
(641,101,o),
(606,187,c),
(564,172,l),
(589,67,o),
(662,-10,o),
(766,-10,cs)
);
},
{
closed = 1;
nodes = (
(949,468,l),
(949,544,l),
(741,544,l),
(741,468,l)
);
}
);
width = 985;
},
{
anchors = (
{
name = bottom;
pos = (521,0);
},
{
name = top;
pos = (866,544);
}
);
associatedMasterId = "FD202070-6699-4318-8E83-95414ED89137";
background = {
shapes = (
{
closed = 1;
nodes = (
(210,97,l),
(174,115,o),
(163,131,o),
(163,170,cs),
(163,372,ls),
(163,412,o),
(179,428,o),
(207,428,cs),
(243,428,o),
(260,400,o),
(271,316,c),
(371,316,l),
(385,395,o),
(408,428,o),
(448,428,cs),
(476,428,o),
(498,415,o),
(498,360,cs),
(498,0,l),
(625,0,l),
(625,58,l),
(645,81,l),
(645,388,ls),
(645,498,o),
(584,554,o),
(486,554,cs),
(385,554,o),
(323,488,o),
(291,335,c),
(351,338,l),
(334,503,o),
(268,554,o),
(178,554,cs),
(71,554,o),
(16,483,o),
(16,388,cs),
(16,145,ls),
(16,51,o),
(58,24,o),
(146,-10,c)
);
},
{
closed = 1;
nodes = (
(885,-10,o),
(959,53,o),
(959,178,cs),
(959,304,ls),
(959,381,o),
(937,438,o),
(818,438,c),
(746,418,l),
(796,418,o),
(812,402,o),
(812,344,cs),
(812,184,ls),
(812,145,o),
(793,126,o),
(749,126,cs),
(704,126,o),
(653,155,o),
(623,227,c),
(581,212,l),
(604,84,o),
(669,-10,o),
(763,-10,cs)
);
},
{
closed = 1;
nodes = (
(990,418,l),
(990,544,l),
(738,544,l),
(738,418,l)
);
}
);
};
layerId = "2AC78DAF-B271-45D0-B23A-6FA54DA9DEE6";
name = "24 Feb 23 00.32";
shapes = (
{
closed = 1;
nodes = (
(240,97,l),
(209,115,o),
(201,132,o),
(201,170,cs),
(201,372,ls),
(201,411,o),
(215,428,o),
(238,428,cs),
(269,428,o),
(280,400,o),
(290,316,c),
(390,316,l),
(400,395,o),
(419,428,o),
(453,428,cs),
(478,428,o),
(498,415,o),
(498,360,cs),
(498,0,l),
(625,0,l),
(625,107,l),
(645,142,l),
(645,388,ls),
(645,498,o),
(585,554,o),
(491,554,cs),
(393,554,o),
(334,489,o),
(304,338,c),
(374,338,l),
(357,503,o),
(294,554,o),
(207,554,cs),
(108,554,o),
(55,483,o),
(55,388,cs),
(55,145,ls),
(55,51,o),
(92,24,o),
(174,-10,c)
);
},
{
closed = 1;
nodes = (
(887,-10,o),
(959,43,o),
(959,178,cs),
(959,304,ls),
(959,381,o),
(937,438,o),
(818,438,c),
(746,418,l),
(796,418,o),
(812,402,o),
(812,344,cs),
(812,184,ls),
(812,146,o),
(801,126,o),
(760,126,cs),
(711,126,o),
(653,155,o),
(623,227,c),
(581,212,l),
(607,73,o),
(666,-10,o),
(789,-10,cs)
);
},
{
closed = 1;
nodes = (
(990,418,l),
(990,544,l),
(738,544,l),
(738,418,l)
);
}
);
width = 1024;
},
{
anchors = (
{
name = bottom;
pos = (493,0);
},
{
name = top;
pos = (493,800);
}
);
associatedMasterId = m01;
background = {
shapes = (
{
closed = 1;
nodes = (
(218,64,l),
(172,79,o),
(151,93,o),
(151,143,cs),
(151,388,ls),
(151,441,o),
(170,473,o),
(213,473,cs),
(259,473,o),
(292,435,o),
(307,344,c),
(361,344,l),
(388,432,o),
(420,473,o),
(472,473,cs),
(503,473,o),
(523,460,o),
(523,417,cs),
(523,0,l),
(600,0,l),
(600,105,l),
(610,127,l),
(610,426,ls),
(610,507,o),
(570,554,o),
(494,554,cs),
(417,554,o),
(358,506,o),
(324,396,c),
(351,401,l),
(340,504,o),
(283,554,o),
(202,554,cs),
(105,554,o),
(64,483,o),
(64,388,cs),
(64,145,ls),
(64,35,o),
(113,7,o),
(189,-10,c)
);
},
{
closed = 1;
nodes = (
(857,-10,o),
(912,47,o),
(912,148,cs),
(912,360,ls),
(912,438,o),
(878,488,o),
(805,488,c),
(741,468,l),
(821,468,o),
(825,423,o),
(825,360,cs),
(825,154,ls),
(825,98,o),
(803,66,o),
(752,66,cs),
(700,66,o),
(641,101,o),
(606,187,c),
(564,172,l),
(589,67,o),
(662,-10,o),
(766,-10,cs)
);
},
{
closed = 1;
nodes = (
(949,468,l),
(949,544,l),
(741,544,l),
(741,468,l)
);
}
);
};
layerId = "64BDAABB-8F1E-4ACC-980A-A17CCDAC1233";
name = "25 Feb 23 00.23";
shapes = (
{
closed = 1;
nodes = (
(218,64,l),
(172,79,o),
(151,93,o),
(151,143,cs),
(151,388,ls),
(151,441,o),
(170,473,o),
(213,473,cs),
(259,473,o),
(292,435,o),
(307,344,c),
(361,344,l),
(388,432,o),
(420,473,o),
(472,473,cs),
(503,473,o),
(523,460,o),
(523,417,cs),
(523,0,l),
(600,0,l),
(600,105,l),
(610,127,l),
(610,426,ls),
(610,507,o),
(570,554,o),
(494,554,cs),
(417,554,o),
(358,506,o),
(324,396,c),
(351,401,l),
(340,504,o),
(283,554,o),
(202,554,cs),
(105,554,o),
(64,483,o),
(64,388,cs),
(64,145,ls),
(64,35,o),
(113,7,o),
(189,-10,c)
);
},
{
closed = 1;
nodes = (
(846,-10,o),
(913,50,o),
(913,158,cs),
(913,360,ls),
(913,438,o),
(879,488,o),
(806,488,c),
(742,468,l),
(822,468,o),
(826,423,o),
(826,360,cs),
(826,164,ls),
(826,99,o),
(804,66,o),
(738,66,cs),
(675,66,o),
(631,97,o),
(607,187,c),
(565,172,l),
(585,67,o),
(636,-10,o),
(748,-10,cs)
);
},
{
closed = 1;
nodes = (
(950,468,l),
(950,544,l),
(742,544,l),
(742,468,l)
);
}
);
width = 985;
},
{
anchors = (
{
name = bottom;
pos = (521,0);
},
{
name = top;
pos = (866,544);
}
);
associatedMasterId = "FD202070-6699-4318-8E83-95414ED89137";
background = {
shapes = (
{
closed = 1;
nodes = (
(240,97,l),
(209,115,o),
(201,132,o),
(201,170,cs),
(201,372,ls),
(201,411,o),
(215,428,o),
(238,428,cs),
(269,428,o),
(280,400,o),
(290,316,c),
(390,316,l),
(400,395,o),
(419,428,o),
(453,428,cs),
(478,428,o),
(498,415,o),
(498,360,cs),
(498,0,l),
(625,0,l),
(625,107,l),
(645,142,l),
(645,388,ls),
(645,498,o),
(585,554,o),
(491,554,cs),
(393,554,o),
(334,489,o),
(304,338,c),
(374,338,l),
(357,503,o),
(294,554,o),
(207,554,cs),
(108,554,o),
(55,483,o),
(55,388,cs),
(55,145,ls),
(55,51,o),
(92,24,o),
(174,-10,c)
);
},
{
closed = 1;
nodes = (
(887,-10,o),
(959,43,o),
(959,178,cs),
(959,304,ls),
(959,381,o),
(937,438,o),
(818,438,c),
(746,418,l),
(796,418,o),
(812,402,o),
(812,344,cs),
(812,184,ls),
(812,146,o),
(801,126,o),
(760,126,cs),
(711,126,o),
(653,155,o),
(623,227,c),
(581,212,l),
(607,73,o),
(666,-10,o),
(789,-10,cs)
);
},
{
closed = 1;
nodes = (
(990,418,l),
(990,544,l),
(738,544,l),
(738,418,l)
);
}
);
};
layerId = "A61F024D-F59F-475F-B7C5-021C897F9EB7";
name = "25 Feb 23 00.24";
shapes = (
{
closed = 1;
nodes = (
(249,97,l),
(213,115,o),
(202,131,o),
(202,170,cs),
(201,372,ls),
(201,411,o),
(215,428,o),
(238,428,cs),
(269,428,o),
(280,400,o),
(290,316,c),
(390,316,l),
(400,395,o),
(419,428,o),
(453,428,cs),
(478,428,o),
(498,415,o),
(498,360,cs),
(498,0,l),
(625,0,l),
(625,107,l),
(645,142,l),
(645,388,ls),
(645,498,o),
(585,554,o),
(491,554,cs),
(393,554,o),
(334,489,o),
(304,338,c),
(374,338,l),
(357,503,o),
(294,554,o),
(207,554,cs),
(108,554,o),
(55,483,o),
(55,388,cs),
(55,145,ls),
(55,51,o),
(97,24,o),
(185,-10,c)
);
},
{
closed = 1;
nodes = (
(887,-10,o),
(959,43,o),
(959,178,cs),
(959,304,ls),
(959,381,o),
(937,438,o),
(818,438,c),
(746,418,l),
(796,418,o),
(812,402,o),
(812,344,cs),
(812,184,ls),
(812,146,o),
(801,126,o),
(760,126,cs),
(711,126,o),
(653,155,o),
(623,227,c),
(581,212,l),
(607,73,o),
(666,-10,o),
(789,-10,cs)
);
},
{
closed = 1;
nodes = (
(990,418,l),
(990,544,l),
(738,544,l),
(738,418,l)
);
}
);
width = 1024;
}
);
metricLeft = "ka-kawi";
metricRight = "ra-kawi";
unicode = 73498;
},
{
glyphname = "jnya-kawi";
layers = (
{
background = {
shapes = (
{
closed = 1;
nodes = (
(509,0,l),
(509,76,l),
(229,76,ls),
(179,76,o),
(151,98,o),
(151,155,cs),
(151,379,ls),
(151,436,o),
(179,468,o),
(229,468,cs),
(379,468,ls),
(433,468,o),
(456,453,o),
(482,419,c),
(544,466,l),
(510,516,o),
(471,544,o),
(379,544,cs),
(223,544,ls),
(121,544,o),
(64,488,o),
(64,374,cs),
(64,160,ls),
(64,46,o),
(121,0,o),
(223,0,cs)
);
},
{
closed = 1;
nodes = (
(439,238,l),
(439,314,l),
(215,314,l),
(215,238,l)
);
},
{
closed = 1;
nodes = (
(268,-389,o),
(309,-364,o),
(340,-312,c),
(285,-270,l),
(267,-298,o),
(246,-316,o),
(216,-316,cs),
(173,-316,o),
(153,-285,o),
(153,-244,cs),
(153,-177,o),
(198,-148,o),
(267,-148,cs),
(387,-148,o),
(446,-235,o),
(475,-386,c),
(542,-367,l),
(510,-180,o),
(422,-76,o),
(266,-76,cs),
(140,-76,o),
(70,-143,o),
(70,-244,cs),
(70,-328,o),
(122,-389,o),
(211,-389,cs)
);
}
);
};
layerId = m01;
shapes = (
{
closed = 1;
nodes = (
(509,0,l),
(509,76,l),
(229,76,ls),
(179,76,o),
(151,98,o),
(151,155,cs),
(151,379,ls),
(151,436,o),
(179,468,o),
(229,468,cs),
(379,468,ls),
(433,468,o),
(456,453,o),
(482,419,c),
(544,466,l),
(510,516,o),
(471,544,o),
(379,544,cs),
(223,544,ls),
(121,544,o),
(64,488,o),
(64,374,cs),
(64,160,ls),
(64,46,o),
(121,0,o),
(223,0,cs)
);
},
{
closed = 1;
nodes = (
(439,238,l),
(439,314,l),
(215,314,l),
(215,238,l)
);
},
{
closed = 1;
nodes = (
(268,-369,o),
(313,-340,o),
(347,-279,c),
(289,-243,l),
(271,-272,o),
(252,-296,o),
(213,-296,cs),
(170,-296,o),
(151,-268,o),
(151,-232,cs),
(151,-176,o),
(196,-148,o),
(262,-148,cs),
(379,-148,o),
(445,-234,o),
(473,-366,c),
(540,-349,l),
(505,-178,o),
(417,-76,o),
(261,-76,cs),
(138,-76,o),
(68,-139,o),
(68,-233,cs),
(68,-313,o),
(119,-369,o),
(206,-369,cs)
);
}
);
width = 569;
},
{
background = {
shapes = (
{
closed = 1;
nodes = (
(530,0,l),
(530,126,l),
(260,126,ls),
(223,126,o),
(202,141,o),
(202,180,cs),
(202,354,ls),
(202,395,o),
(220,418,o),
(252,418,cs),
(388,418,ls),
(426,418,o),
(445,404,o),
(461,373,c),
(579,425,l),
(542,513,o),
(487,544,o),
(399,544,cs),
(254,544,ls),
(127,544,o),
(55,485,o),
(55,364,cs),
(55,170,ls),
(55,49,o),
(123,0,o),
(244,0,cs)
);
},
{
closed = 1;
nodes = (
(441,207,l),
(441,323,l),
(249,323,l),
(249,207,l)
);
},
{
closed = 1;
nodes = (
(277,-409,o),
(322,-386,o),
(359,-322,c),
(275,-263,l),
(262,-288,o),
(246,-296,o),
(228,-296,cs),
(199,-296,o),
(187,-277,o),
(187,-253,cs),
(187,-217,o),
(213,-198,o),
(269,-198,cs),
(379,-198,o),
(445,-267,o),
(474,-402,c),
(591,-371,l),
(556,-179,o),
(444,-76,o),
(276,-76,cs),
(138,-76,o),
(64,-146,o),
(64,-253,cs),
(64,-344,o),
(118,-409,o),
(216,-409,cs)
);
}
);
};
layerId = "FD202070-6699-4318-8E83-95414ED89137";
shapes = (
{
closed = 1;
nodes = (
(530,0,l),
(530,126,l),
(260,126,ls),
(223,126,o),
(202,141,o),
(202,180,cs),
(202,354,ls),
(202,395,o),
(220,418,o),
(252,418,cs),
(388,418,ls),
(426,418,o),
(445,404,o),
(461,373,c),
(579,425,l),
(542,513,o),
(487,544,o),
(399,544,cs),
(254,544,ls),
(127,544,o),
(55,485,o),
(55,364,cs),
(55,170,ls),
(55,49,o),
(123,0,o),
(244,0,cs)
);
},
{
closed = 1;
nodes = (
(441,207,l),
(441,323,l),
(249,323,l),
(249,207,l)
);
},
{
closed = 1;
nodes = (
(280,-389,o),
(325,-364,o),
(359,-302,c),
(278,-245,l),
(264,-271,o),
(250,-279,o),
(231,-279,cs),
(206,-279,o),
(194,-263,o),
(194,-243,cs),
(194,-212,o),
(220,-192,o),
(274,-192,cs),
(378,-192,o),
(441,-257,o),
(469,-382,c),
(586,-351,l),
(548,-175,o),
(441,-76,o),
(277,-76,cs),
(142,-76,o),
(74,-144,o),
(74,-243,cs),
(74,-328,o),
(126,-389,o),
(221,-389,cs)
);
}
);
width = 604;
},
{
associatedMasterId = m01;
layerId = "227FEF28-A2D0-415A-AA3C-EA7E057ABA64";
name = "27 Feb 23 00.04";
shapes = (
{
closed = 1;
nodes = (
(509,0,l),
(509,76,l),
(229,76,ls),
(179,76,o),
(151,98,o),
(151,155,cs),
(151,379,ls),
(151,436,o),
(179,468,o),
(229,468,cs),
(379,468,ls),
(433,468,o),
(456,453,o),
(482,419,c),
(544,466,l),
(510,516,o),
(471,544,o),
(379,544,cs),
(223,544,ls),
(121,544,o),
(64,488,o),
(64,374,cs),
(64,160,ls),
(64,46,o),
(121,0,o),
(223,0,cs)
);
},
{
closed = 1;
nodes = (
(244,-310,l),
(187,-298,o),
(161,-269,o),
(161,-230,cs),
(161,-176,o),
(209,-157,o),
(271,-157,cs),
(391,-157,o),
(450,-234,o),
(479,-368,c),
(551,-347,l),
(518,-171,o),
(429,-76,o),
(269,-76,cs),
(141,-76,o),
(79,-140,o),
(79,-226,cs),
(79,-304,o),
(129,-352,o),
(224,-369,c)
);
},
{
closed = 1;
nodes = (
(439,238,l),
(439,314,l),
(215,314,l),
(215,238,l)
);
}
);
width = 569;
},
{
associatedMasterId = "FD202070-6699-4318-8E83-95414ED89137";
layerId = "254B4846-45C8-43ED-A122-D81FE7224EF3";
name = "27 Feb 23 00.08";
shapes = (
{
closed = 1;
nodes = (
(530,0,l),
(530,126,l),
(260,126,ls),
(223,126,o),
(202,141,o),
(202,180,cs),
(202,354,ls),
(202,395,o),
(220,418,o),
(252,418,cs),
(388,418,ls),
(426,418,o),
(445,404,o),
(461,373,c),
(579,425,l),
(542,513,o),
(487,544,o),
(399,544,cs),
(254,544,ls),
(127,544,o),
(55,485,o),
(55,364,cs),
(55,170,ls),
(55,49,o),
(123,0,o),
(244,0,cs)
);
},
{
closed = 1;
nodes = (
(286,-310,l),
(229,-294,o),
(215,-276,o),
(215,-254,cs),
(215,-226,o),
(239,-211,o),
(288,-211,cs),
(384,-211,o),
(464,-283,o),
(493,-408,c),
(615,-373,l),
(578,-192,o),
(461,-80,o),
(283,-80,cs),
(136,-80,o),
(67,-151,o),
(67,-248,cs),
(67,-333,o),
(119,-385,o),
(243,-419,c)
);
},
{
closed = 1;
nodes = (
(441,207,l),
(441,323,l),
(249,323,l),
(249,207,l)
);
}
);
width = 604;
},
{
associatedMasterId = m01;
background = {
shapes = (
{
closed = 1;
nodes = (
(509,0,l),
(509,76,l),
(229,76,ls),
(179,76,o),
(151,98,o),
(151,155,cs),
(151,379,ls),
(151,436,o),
(179,468,o),
(229,468,cs),
(379,468,ls),
(433,468,o),
(456,453,o),
(482,419,c),
(544,466,l),
(510,516,o),
(471,544,o),
(379,544,cs),
(223,544,ls),
(121,544,o),
(64,488,o),
(64,374,cs),
(64,160,ls),
(64,46,o),
(121,0,o),
(223,0,cs)
);
},
{
closed = 1;
nodes = (
(244,-310,l),
(187,-298,o),
(161,-269,o),
(161,-230,cs),
(161,-176,o),
(209,-157,o),
(271,-157,cs),
(391,-157,o),
(450,-234,o),
(479,-368,c),
(551,-347,l),
(518,-171,o),
(429,-76,o),
(269,-76,cs),
(141,-76,o),
(79,-140,o),
(79,-226,cs),
(79,-304,o),
(129,-352,o),
(224,-369,c)
);
},
{
closed = 1;
nodes = (
(439,238,l),
(439,314,l),
(215,314,l),
(215,238,l)
);
}
);
};
layerId = "4643E4D4-7DBC-4667-B2C4-222510818B89";
name = "6 Mar 23 01.17";
shapes = (
{
closed = 1;
nodes = (
(509,0,l),
(509,76,l),
(229,76,ls),
(179,76,o),
(151,98,o),
(151,155,cs),
(151,379,ls),
(151,436,o),
(179,468,o),
(229,468,cs),
(379,468,ls),
(433,468,o),
(456,453,o),
(482,419,c),
(544,466,l),
(510,516,o),
(471,544,o),
(379,544,cs),
(223,544,ls),
(121,544,o),
(64,488,o),
(64,374,cs),
(64,160,ls),
(64,46,o),
(121,0,o),
(223,0,cs)
);
},
{
closed = 1;
nodes = (
(439,238,l),
(439,314,l),
(215,314,l),
(215,238,l)
);
},
{
closed = 1;
nodes = (
(268,-389,o),
(309,-364,o),
(340,-312,c),
(285,-270,l),
(267,-298,o),
(246,-316,o),
(216,-316,cs),
(173,-316,o),
(153,-285,o),
(153,-244,cs),
(153,-177,o),
(198,-148,o),
(267,-148,cs),
(387,-148,o),
(446,-235,o),
(475,-386,c),
(542,-367,l),
(510,-180,o),
(422,-76,o),
(266,-76,cs),
(140,-76,o),
(70,-143,o),
(70,-244,cs),
(70,-328,o),
(122,-389,o),
(211,-389,cs)
);
}
);
width = 569;
},
{
associatedMasterId = "FD202070-6699-4318-8E83-95414ED89137";
background = {
shapes = (
{
closed = 1;
nodes = (
(530,0,l),
(530,126,l),
(260,126,ls),
(223,126,o),
(202,141,o),
(202,180,cs),
(202,354,ls),
(202,395,o),
(220,418,o),
(252,418,cs),
(388,418,ls),
(426,418,o),
(445,404,o),
(461,373,c),
(579,425,l),
(542,513,o),
(487,544,o),
(399,544,cs),
(254,544,ls),
(127,544,o),
(55,485,o),
(55,364,cs),
(55,170,ls),
(55,49,o),
(123,0,o),
(244,0,cs)
);
},
{
closed = 1;
nodes = (
(286,-310,l),
(229,-294,o),
(215,-276,o),
(215,-254,cs),
(215,-226,o),
(239,-211,o),
(288,-211,cs),
(384,-211,o),
(464,-283,o),
(493,-408,c),
(615,-373,l),
(578,-192,o),
(461,-80,o),
(283,-80,cs),
(136,-80,o),
(67,-151,o),
(67,-248,cs),
(67,-333,o),
(119,-385,o),
(243,-419,c)
);
},
{
closed = 1;
nodes = (
(441,207,l),
(441,323,l),
(249,323,l),
(249,207,l)
);
}
);
};
layerId = "FFD673F2-77F5-4FE0-883F-E970AFB9A63F";
name = "6 Mar 23 01.18";
shapes = (
{
closed = 1;
nodes = (
(530,0,l),
(530,126,l),
(260,126,ls),
(223,126,o),
(202,141,o),
(202,180,cs),
(202,354,ls),
(202,395,o),
(220,418,o),
(252,418,cs),
(388,418,ls),
(426,418,o),
(445,404,o),
(461,373,c),
(579,425,l),
(542,513,o),
(487,544,o),
(399,544,cs),
(254,544,ls),
(127,544,o),
(55,485,o),
(55,364,cs),
(55,170,ls),
(55,49,o),
(123,0,o),
(244,0,cs)
);
},
{
closed = 1;
nodes = (
(441,207,l),
(441,323,l),
(249,323,l),
(249,207,l)
);
},
{
closed = 1;
nodes = (
(277,-409,o),
(322,-386,o),
(359,-322,c),
(275,-263,l),
(262,-288,o),
(246,-296,o),
(228,-296,cs),
(199,-296,o),
(187,-277,o),
(187,-253,cs),
(187,-217,o),
(213,-198,o),
(269,-198,cs),
(379,-198,o),
(445,-267,o),
(474,-402,c),
(591,-371,l),
(556,-179,o),
(444,-76,o),
(276,-76,cs),
(138,-76,o),
(64,-146,o),
(64,-253,cs),
(64,-344,o),
(118,-409,o),
(216,-409,cs)
);
}
);
width = 604;
}
);
unicode = 73523;
},
{
glyphname = "ka-kawi";
layers = (
{
anchors = (
{
name = bottom;
pos = (636,0);
},
{
name = top;
pos = (365,544);
},
{
name = topright;
pos = (630,544);
}
);
background = {
shapes = (
{
closed = 1;
nodes = (
(686,474,l),
(810,474,o),
(878,384,o),
(878,236,cs),
(878,0,l),
(959,0,l),
(959,466,l),
(1001,466,ls),
(1049,466,o),
(1074,440,o),
(1074,387,cs),
(1074,0,l),
(1155,0,l),
(1155,383,ls),
(1155,485,o),
(1105,536,o),
(1003,536,cs),
(890,536,l),
(890,442,l),
(865,502,o),
(795,546,o),
(687,546,c),
(683,513,l)
);
},
{
closed = 1;
nodes = (
(606,151,o),
(654,119,o),
(654,86,cs),
(654,69,o),
(641,56,o),
(618,56,cs),
(573,56,o),
(520,105,o),
(506,167,c)
);
},
{
closed = 1;
nodes = (
(449,179,l),
(449,244,l),
(329,244,l),
(329,179,l)
);
},
{
closed = 1;
nodes = (
(419,153,o),
(450,94,o),
(480,59,cs),
(518,15,o),
(570,-10,o),
(621,-10,cs),
(679,-10,o),
(728,23,o),
(728,84,cs),
(728,178,o),
(634,214,o),
(497,235,c),
(497,389,o),
(561,474,o),
(686,474,c),
(698,511,l),
(687,546,l),
(509,546,o),
(419,428,o),
(419,251,cs)
);
},
{
closed = 1;
nodes = (
(212,135,o),
(235,160,o),
(281,172,c),
(281,98,ls),
(281,72,o),
(271,57,o),
(249,57,cs),
(222,57,o),
(212,80,o),
(212,102,cs)
);
},
{
closed = 1;
nodes = (
(70,347,o),
(84,297,o),
(113,242,c),
(170,269,l),
(154,313,o),
(146,354,o),
(146,387,cs),
(146,442,o),
(169,474,o),
(217,474,cs),
(261,474,o),
(281,447,o),
(281,384,cs),
(281,240,l),
(203,230,o),
(141,180,o),
(141,101,cs),
(141,37,o),
(181,-10,o),
(253,-10,cs),
(321,-10,o),
(358,33,o),
(358,104,cs),
(358,380,ls),
(358,492,o),
(313,546,o),
(220,546,cs),
(118,546,o),
(70,482,o),
(70,394,cs)
);
},
{
closed = 1;
nodes = (
(1150,-537,l),
(1150,-353,l),
(1069,-353,l),
(1069,-537,l)
);
},
{
closed = 1;
nodes = (
(564,-471,o),
(543,-484,o),
(518,-484,cs),
(492,-484,o),
(480,-467,o),
(480,-447,cs),
(480,-405,o),
(530,-389,o),
(577,-385,c),
(580,-322,l),
(476,-327,o),
(410,-371,o),
(410,-444,cs),
(410,-503,o),
(455,-547,o),
(523,-547,cs),
(594,-547,o),
(643,-503,o),
(643,-401,cs),
(643,-236,ls),
(643,-139,o),
(591,-92,o),
(508,-92,cs),
(431,-92,o),
(375,-135,o),
(375,-214,cs),
(375,-252,o),
(388,-285,o),
(402,-310,c),
(454,-287,l),
(448,-272,o),
(443,-250,o),
(443,-229,cs),
(443,-189,o),
(464,-163,o),
(502,-163,cs),
(542,-163,o),
(564,-188,o),
(564,-246,cs),
(564,-411,ls)
);
},
{
closed = 1;
nodes = (
(630,-317,l),
(630,-381,l),
(707,-381,l),
(703,-317,l)
);
},
{
closed = 1;
nodes = (
(1150,-297,ls),
(1150,-162,o),
(1048,-92,o),
(930,-92,cs),
(771,-92,o),
(692,-218,o),
(692,-345,cs),
(692,-478,o),
(780,-547,o),
(874,-547,cs),
(946,-547,o),
(994,-507,o),
(994,-441,cs),
(994,-343,o),
(897,-316,o),
(768,-316,cs),
(738,-316,l),
(745,-383,l),
(786,-383,ls),
(882,-383,o),
(919,-409,o),
(919,-442,cs),
(919,-463,o),
(905,-483,o),
(868,-483,cs),
(808,-483,o),
(762,-428,o),
(762,-341,cs),
(762,-243,o),
(819,-164,o),
(927,-164,cs),
(1014,-164,o),
(1069,-210,o),
(1069,-303,cs),
(1069,-375,l),
(1150,-375,l)
);
},
{
closed = 1;
nodes = (
(270,-995,o),
(333,-1058,o),
(420,-1058,cs),
(483,-1058,o),
(526,-1025,o),
(555,-936,c),
(503,-912,l),
(483,-962,o),
(458,-988,o),
(422,-988,cs),
(375,-988,o),
(348,-947,o),
(348,-846,cs),
(348,-733,o),
(384,-672,o),
(447,-672,cs),
(506,-672,o),
(533,-731,o),
(567,-839,cs),
(590,-912,ls),
(620,-1006,o),
(672,-1057,o),
(757,-1057,cs),
(857,-1057,o),
(920,-989,o),
(920,-871,cs),
(920,-682,l),
(995,-682,ls),
(1044,-682,o),
(1069,-704,o),
(1069,-750,cs),
(1069,-1047,l),
(1150,-1047,l),
(1150,-754,ls),
(1150,-652,o),
(1094,-612,o),
(982,-612,cs),
(839,-612,l),
(839,-865,ls),
(839,-944,o),
(812,-985,o),
(756,-985,cs),
(708,-985,o),
(685,-953,o),
(664,-886,cs),
(638,-801,ls),
(597,-667,o),
(548,-602,o),
(449,-602,cs),
(338,-602,o),
(270,-687,o),
(270,-845,cs)
);
}
);
};
layerId = m01;
shapes = (
{
closed = 1;
nodes = (
(228,64,l),
(182,79,o),
(161,93,o),
(161,143,cs),
(161,390,ls),
(161,440,o),
(189,468,o),
(239,468,cs),
(510,468,ls),
(560,468,o),
(588,440,o),
(588,390,cs),
(588,0,l),
(675,0,l),
(675,396,ls),
(675,491,o),
(619,544,o),
(505,544,cs),
(244,544,ls),
(130,544,o),
(74,491,o),
(74,396,cs),
(74,145,ls),
(74,35,o),
(123,7,o),
(199,-10,c)
);
},
{
closed = 1;
nodes = (
(429,0,l),
(429,280,ls),
(429,355,o),
(416,388,o),
(324,420,c),
(289,350,l),
(340,331,o),
(342,313,o),
(342,267,cs),
(342,0,l)
);
}
);
width = 760;
},
{
anchors = (
{
name = bottom;
pos = (645,0);
},
{
name = top;
pos = (374,544);
},
{
name = topright;
pos = (639,544);
}
);
background = {
shapes = (
{
closed = 0;
nodes = (
(267,418,ls),
(225,418,o),
(202,395,o),
(202,353,cs)
);
},
{
closed = 0;
nodes = (
(55,359,ls),
(55,478,o),
(120,544,o),
(252,544,cs)
);
}
);
};
layerId = "FD202070-6699-4318-8E83-95414ED89137";
shapes = (
{
closed = 1;
nodes = (
(249,97,l),
(213,115,o),
(202,131,o),
(202,170,cs),
(202,353,ls),
(202,395,o),
(225,418,o),
(267,418,cs),
(510,418,ls),
(552,418,o),
(575,395,o),
(575,353,cs),
(575,0,l),
(722,0,l),
(722,359,ls),
(722,478,o),
(655,544,o),
(515,544,cs),
(265,544,ls),
(120,544,o),
(55,478,o),
(55,359,cs),
(55,145,ls),
(55,51,o),
(97,24,o),
(185,-10,c)
);
},
{
closed = 1;
nodes = (
(475,0,l),
(475,210,ls),
(475,305,o),
(455,345,o),
(330,381,c),
(286,276,l),
(326,259,o),
(328,241,o),
(328,210,cs),
(328,0,l)
);
}
);
width = 787;
},
{
anchors = (
{
name = bottom;
pos = (654,0);
},
{
name = top;
pos = (654,544);
}
);
associatedMasterId = m01;
background = {
shapes = (
{
closed = 1;
nodes = (
(350,68,l),
(300,76,o),
(275,104,o),
(275,154,cs),
(275,391,ls),
(275,444,o),
(300,470,o),
(348,470,cs),
(396,470,o),
(420,445,o),
(420,394,cs),
(420,156,ls),
(420,52,o),
(470,0,o),
(562,0,cs),
(607,0,o),
(640,21,o),
(660,63,c),
(680,21,o),
(714,0,o),
(759,0,cs),
(851,0,o),
(901,52,o),
(901,156,cs),
(901,321,ls),
(901,404,o),
(874,454,o),
(818,470,c),
(928,470,ls),
(976,470,o),
(1001,444,o),
(1001,391,cs),
(1001,0,l),
(1088,0,l),
(1088,387,ls),
(1088,492,o),
(1034,546,o),
(928,546,cs),
(673,546,l),
(673,479,l),
(767,473,o),
(814,415,o),
(814,305,cs),
(814,133,ls),
(814,93,o),
(795,72,o),
(759,72,cs),
(723,72,o),
(704,93,o),
(704,133,cs),
(704,213,l),
(617,213,l),
(617,134,ls),
(617,94,o),
(597,72,o),
(562,72,cs),
(526,72,o),
(506,94,o),
(506,134,cs),
(506,393,ls),
(506,495,o),
(454,546,o),
(348,546,cs),
(242,546,o),
(188,493,o),
(188,388,cs),
(188,150,ls),
(188,57,o),
(242,10,o),
(332,0,c)
);
},
{
closed = 1;
nodes = (
(-147,466,l),
(-110,466,ls),
(-61,466,o),
(-36,440,o),
(-36,387,cs),
(-36,0,l),
(45,0,l),
(45,383,ls),
(45,485,o),
(-5,536,o),
(-107,536,cs),
(-228,536,l),
(-228,243,l),
(-147,243,l)
);
},
{
closed = 1;
nodes = (
(-637,333,l),
(-619,421,o),
(-593,465,o),
(-541,465,cs),
(-512,465,l),
(-512,461,l),
(-555,447,o),
(-568,411,o),
(-568,380,cs),
(-568,327,o),
(-529,295,o),
(-467,283,c),
(-467,276,l),
(-538,261,o),
(-586,226,o),
(-586,143,cs),
(-586,43,o),
(-515,-10,o),
(-371,-10,cs),
(-210,-10,o),
(-147,54,o),
(-147,178,cs),
(-147,250,l),
(-228,250,l),
(-228,189,ls),
(-228,104,o),
(-263,62,o),
(-369,62,cs),
(-467,62,o),
(-505,97,o),
(-505,150,cs),
(-505,218,o),
(-443,246,o),
(-360,246,cs),
(-326,246,l),
(-326,313,l),
(-357,313,ls),
(-446,313,o),
(-492,338,o),
(-492,387,cs),
(-492,439,o),
(-442,465,o),
(-375,465,cs),
(-309,465,l),
(-309,536,l),
(-543,536,ls),
(-645,536,o),
(-692,456,o),
(-692,338,c)
);
},
{
closed = 1;
nodes = (
(1753,714,l),
(1663,714,l),
(1663,412,l),
(1297,412,l),
(1297,714,l),
(1207,714,l),
(1207,0,l),
(1297,0,l),
(1297,333,l),
(1663,333,l),
(1663,0,l),
(1753,0,l)
);
}
);
};
layerId = "671290E1-38C8-4088-8904-C7C202AB8886";
name = "4 Feb 23 20.26";
shapes = (
{
closed = 1;
nodes = (
(190,47,l),
(174,64,o),
(165,79,o),
(165,116,cs),
(165,390,ls),
(165,440,o),
(193,468,o),
(243,468,cs),
(532,468,ls),
(582,468,o),
(610,440,o),
(610,390,cs),
(610,0,l),
(697,0,l),
(697,396,ls),
(697,491,o),
(641,544,o),
(527,544,cs),
(248,544,ls),
(134,544,o),
(78,491,o),
(78,396,cs),
(78,105,ls),
(78,45,o),
(98,15,o),
(127,-10,c)
);
},
{
closed = 1;
nodes = (
(431,0,l),
(431,404,l),
(344,404,l),
(344,0,l)
);
}
);
width = 775;
},
{
anchors = (
{
name = bottom;
pos = (654,0);
},
{
name = top;
pos = (654,544);
}
);
associatedMasterId = m01;
layerId = "5DDA0346-2089-45D1-A762-4EF3914DABE9";
name = "10 Feb 23 01.59";
shapes = (
{
closed = 1;
nodes = (
(194,47,l),
(174,64,o),
(165,80,o),
(165,116,cs),
(165,390,ls),
(165,440,o),
(193,468,o),
(243,468,cs),
(532,468,ls),
(582,468,o),
(610,440,o),
(610,390,cs),
(610,0,l),
(697,0,l),
(697,396,ls),
(697,491,o),
(641,544,o),
(527,544,cs),
(248,544,ls),
(134,544,o),
(78,491,o),
(78,396,cs),
(78,105,ls),
(78,41,o),
(101,11,o),
(137,-10,c)
);
},
{
closed = 1;
nodes = (
(431,0,l),
(431,404,l),
(344,404,l),
(344,0,l)
);
}
);
width = 775;
},
{
anchors = (
{
name = bottom;
pos = (674,0);
},
{
name = top;
pos = (674,544);
}
);
associatedMasterId = m01;
background = {
shapes = (
{
closed = 1;
nodes = (
(214,47,l),
(194,64,o),
(185,80,o),
(185,116,cs),
(185,390,ls),
(185,440,o),
(213,468,o),
(263,468,cs),
(552,468,ls),
(602,468,o),
(630,440,o),
(630,390,cs),
(630,0,l),
(717,0,l),
(717,396,ls),
(717,491,o),
(661,544,o),
(547,544,cs),
(268,544,ls),
(154,544,o),
(98,491,o),
(98,396,cs),
(98,105,ls),
(98,41,o),
(121,11,o),
(157,-10,c)
);
},
{
closed = 1;
nodes = (
(451,0,l),
(451,404,l),
(364,404,l),
(364,0,l)
);
}
);
};
layerId = "B591EB76-3696-4879-9F41-6578BA341F6C";
name = "10 Feb 23 02.08";
shapes = (
{
closed = 1;
nodes = (
(717,0,l),
(717,396,ls),
(717,491,o),
(661,544,o),
(547,544,cs),
(34,544,l),
(34,468,l),
(552,468,ls),
(602,468,o),
(630,440,o),
(630,390,cs),
(630,0,l)
);
},
{
closed = 1;
nodes = (
(234,47,l),
(214,64,o),
(205,80,o),
(205,116,cs),
(205,360,ls),
(205,438,o),
(171,488,o),
(98,488,c),
(34,468,l),
(114,468,o),
(118,423,o),
(118,360,cs),
(118,105,ls),
(118,41,o),
(143,11,o),
(182,-10,c)
);
},
{
closed = 1;
nodes = (
(466,0,l),
(466,280,ls),
(466,358,o),
(451,391,o),
(358,421,c),
(335,371,l),
(377,353,o),
(379,326,o),
(379,280,cs),
(379,0,l)
);
}
);
width = 792;
},
{
anchors = (
{
name = bottom;
pos = (674,0);
},
{
name = top;
pos = (674,544);
}
);
associatedMasterId = m01;
background = {
shapes = (
{
closed = 1;
nodes = (
(717,0,l),
(717,396,ls),
(717,491,o),
(661,544,o),
(547,544,cs),
(34,544,l),
(34,468,l),
(552,468,ls),
(602,468,o),
(630,440,o),
(630,390,cs),
(630,0,l)
);
},
{
closed = 1;
nodes = (
(234,47,l),
(214,64,o),
(205,80,o),
(205,116,cs),
(205,360,ls),
(205,438,o),
(171,488,o),
(98,488,c),
(34,468,l),
(114,468,o),
(118,423,o),
(118,360,cs),
(118,105,ls),
(118,41,o),
(143,11,o),
(182,-10,c)
);
},
{
closed = 1;
nodes = (
(466,0,l),
(466,280,ls),
(466,358,o),
(451,391,o),
(358,421,c),
(335,371,l),
(377,353,o),
(379,326,o),
(379,280,cs),
(379,0,l)
);
}
);
};
layerId = "8C2A2C62-04CD-4F01-8465-AF8850A50FF2";
name = "10 Feb 23 02.15";
shapes = (
{
closed = 1;
nodes = (
(717,0,l),
(717,396,ls),
(717,491,o),
(661,544,o),
(547,544,cs),
(63,544,l),
(63,468,l),
(552,468,ls),
(602,468,o),
(630,440,o),
(630,390,cs),
(630,0,l)
);
},
{
closed = 1;
nodes = (
(272,64,l),
(226,79,o),
(205,93,o),
(205,143,cs),
(205,350,l),
(145,488,l),
(63,468,l),
(118,350,l),
(118,145,ls),
(118,35,o),
(167,7,o),
(243,-10,c)
);
},
{
closed = 1;
nodes = (
(470,0,l),
(470,280,ls),
(470,358,o),
(455,391,o),
(362,421,c),
(339,371,l),
(381,353,o),
(383,326,o),
(383,280,cs),
(383,0,l)
);
}
);
width = 792;
},
{
anchors = (
{
name = bottom;
pos = (622,0);
},
{
name = top;
pos = (622,544);
}
);
associatedMasterId = m01;
background = {
shapes = (
{
closed = 1;
nodes = (
(665,0,l),
(665,396,ls),
(665,491,o),
(609,544,o),
(495,544,cs),
(11,544,l),
(11,468,l),
(500,468,ls),
(550,468,o),
(578,440,o),
(578,390,cs),
(578,0,l)
);
},
{
closed = 1;
nodes = (
(220,64,l),
(174,79,o),
(153,93,o),
(153,143,cs),
(153,350,l),
(93,488,l),
(11,468,l),
(66,350,l),
(66,145,ls),
(66,35,o),
(115,7,o),
(191,-10,c)
);
},
{
closed = 1;
nodes = (
(418,0,l),
(418,280,ls),
(418,358,o),
(403,391,o),
(310,421,c),
(287,371,l),
(329,353,o),
(331,326,o),
(331,280,cs),
(331,0,l)
);
}
);
};
layerId = "DFFDCBD5-3B9C-4F04-A4B5-65C81781E8F9";
name = "19 Feb 23 00.59";
shapes = (
{
closed = 1;
nodes = (
(218,64,l),
(172,79,o),
(151,93,o),
(151,143,cs),
(151,390,ls),
(151,440,o),
(179,468,o),
(229,468,cs),
(500,468,ls),
(550,468,o),
(578,440,o),
(578,390,cs),
(578,0,l),
(665,0,l),
(665,396,ls),
(665,491,o),
(609,544,o),
(495,544,cs),
(234,544,ls),
(120,544,o),
(64,491,o),
(64,396,cs),
(64,145,ls),
(64,35,o),
(113,7,o),
(189,-10,c)
);
},
{
closed = 1;
nodes = (
(419,0,l),
(419,280,ls),
(419,358,o),
(404,391,o),
(311,421,c),
(288,371,l),
(330,353,o),
(332,326,o),
(332,280,cs),
(332,0,l)
);
}
);
width = 740;
}
);
unicode = 73490;
},
{
glyphname = "kha-kawi";
layers = (
{
anchors = (
{
name = bottom;
pos = (647,0);
},
{
name = top;
pos = (376,544);
},
{
name = topright;
pos = (641,544);
}
);
background = {
shapes = (
{
closed = 1;
nodes = (
(186,47,l),
(170,64,o),
(161,79,o),
(161,116,cs),
(161,390,ls),
(161,440,o),
(189,468,o),
(239,468,cs),
(468,468,ls),
(548,468,o),
(606,439,o),
(606,317,cs),
(606,195,ls),
(606,97,o),
(570,66,o),
(512,66,cs),
(454,66,o),
(427,97,o),
(427,164,cs),
(427,504,l),
(340,504,l),
(340,158,ls),
(340,48,o),
(397,-10,o),
(509,-10,cs),
(623,-10,o),
(693,49,o),
(693,195,cs),
(693,317,ls),
(693,485,o),
(609,544,o),
(463,544,cs),
(244,544,ls),
(130,544,o),
(74,491,o),
(74,396,cs),
(74,105,ls),
(74,45,o),
(94,15,o),
(123,-10,c)
);
}
);
};
layerId = m01;
shapes = (
{
closed = 1;
nodes = (
(228,64,l),
(182,79,o),
(161,93,o),
(161,143,cs),
(161,390,ls),
(161,440,o),
(189,468,o),
(239,468,cs),
(528,468,ls),
(578,468,o),
(606,440,o),
(606,390,cs),
(606,195,ls),
(606,97,o),
(570,66,o),
(512,66,cs),
(454,66,o),
(427,97,o),
(427,164,cs),
(427,504,l),
(340,504,l),
(340,158,ls),
(340,48,o),
(397,-10,o),
(509,-10,cs),
(623,-10,o),
(693,49,o),
(693,195,cs),
(693,396,ls),
(693,491,o),
(637,544,o),
(523,544,cs),
(244,544,ls),
(130,544,o),
(74,491,o),
(74,396,cs),
(74,145,ls),
(74,35,o),
(123,7,o),
(199,-10,c)
);
}
);
width = 767;
},
{
anchors = (
{
name = bottom;
pos = (661,0);
},
{
name = top;
pos = (390,544);
},
{
name = topright;
pos = (655,544);
}
);
background = {
shapes = (
{
closed = 1;
nodes = (
(249,97,l),
(213,115,o),
(202,131,o),
(202,170,cs),
(202,353,ls),
(202,395,o),
(225,418,o),
(267,418,cs),
(509,418,ls),
(557,418,o),
(592,399,o),
(592,317,cs),
(592,240,ls),
(592,146,o),
(568,116,o),
(527,116,cs),
(491,116,o),
(473,139,o),
(473,189,cs),
(473,504,l),
(326,504,l),
(326,158,ls),
(326,48,o),
(394,-10,o),
(524,-10,cs),
(659,-10,o),
(739,55,o),
(739,215,cs),
(739,317,ls),
(739,485,o),
(644,544,o),
(479,544,cs),
(262,544,ls),
(130,544,o),
(55,478,o),
(55,359,cs),
(55,145,ls),
(55,51,o),
(97,24,o),
(185,-10,c)
);
}
);
};
layerId = "FD202070-6699-4318-8E83-95414ED89137";
shapes = (
{
closed = 1;
nodes = (
(249,97,l),
(213,115,o),
(202,131,o),
(202,170,cs),
(202,353,ls),
(202,395,o),
(225,418,o),
(267,418,cs),
(527,418,ls),
(569,418,o),
(592,395,o),
(592,353,cs),
(592,180,ls),
(592,132,o),
(570,116,o),
(534,116,cs),
(493,116,o),
(473,136,o),
(473,180,cs),
(473,504,l),
(326,504,l),
(326,178,ls),
(326,55,o),
(392,-10,o),
(528,-10,cs),
(658,-10,o),
(739,49,o),
(739,195,cs),
(739,359,ls),
(739,478,o),
(664,544,o),
(532,544,cs),
(262,544,ls),
(130,544,o),
(55,478,o),
(55,359,cs),
(55,145,ls),
(55,51,o),
(97,24,o),
(185,-10,c)
);
}
);
width = 794;
},
{
anchors = (
{
name = bottom;
pos = (639,0);
},
{
name = top;
pos = (639,544);
}
);
associatedMasterId = m01;
background = {
shapes = (
{
closed = 1;
nodes = (
(175,47,l),
(159,64,o),
(150,79,o),
(150,116,cs),
(150,390,ls),
(150,440,o),
(178,468,o),
(228,468,cs),
(457,468,ls),
(537,468,o),
(595,439,o),
(595,317,cs),
(595,195,ls),
(595,97,o),
(559,66,o),
(501,66,cs),
(443,66,o),
(416,97,o),
(416,164,cs),
(416,504,l),
(329,504,l),
(329,158,ls),
(329,48,o),
(386,-10,o),
(498,-10,cs),
(612,-10,o),
(682,49,o),
(682,195,cs),
(682,317,ls),
(682,485,o),
(598,544,o),
(452,544,cs),
(233,544,ls),
(119,544,o),
(63,491,o),
(63,396,cs),
(63,105,ls),
(63,45,o),
(83,15,o),
(112,-10,c)
);
}
);
};
layerId = "70C7F390-FBAA-47D9-A466-00130D49F873";
name = "10 Feb 23 02.28";
shapes = (
{
closed = 1;
nodes = (
(175,47,l),
(159,64,o),
(150,79,o),
(150,116,cs),
(150,390,ls),
(150,440,o),
(178,468,o),
(228,468,cs),
(457,468,ls),
(537,468,o),
(595,439,o),
(595,317,cs),
(595,195,ls),
(595,97,o),
(559,66,o),
(501,66,cs),
(443,66,o),
(416,97,o),
(416,164,cs),
(416,504,l),
(329,504,l),
(329,158,ls),
(329,48,o),
(386,-10,o),
(498,-10,cs),
(612,-10,o),
(682,49,o),
(682,195,cs),
(682,317,ls),
(682,485,o),
(598,544,o),
(452,544,cs),
(233,544,ls),
(119,544,o),
(63,491,o),
(63,396,cs),
(63,105,ls),
(63,45,o),
(83,15,o),
(112,-10,c)
);
}
);
width = 745;
},
{
anchors = (
{
name = bottom;
pos = (669,0);
},
{
name = top;
pos = (669,544);
}
);
associatedMasterId = "FD202070-6699-4318-8E83-95414ED89137";
background = {
shapes = (
{
closed = 1;
nodes = (
(508,468,ls),
(588,468,o),
(646,439,o),
(646,317,cs),
(646,195,ls),
(646,97,o),
(610,66,o),
(552,66,cs),
(494,66,o),
(467,97,o),
(467,164,cs),
(467,504,l),
(380,504,l),
(380,158,ls),
(380,48,o),
(437,-10,o),
(549,-10,cs),
(663,-10,o),
(733,49,o),
(733,195,cs),
(733,317,ls),
(733,485,o),
(649,544,o),
(503,544,cs),
(284,544,ls),
(170,544,o),
(114,491,o),
(114,396,cs),
(114,145,ls),
(114,35,o),
(163,7,o),
(239,-10,c),
(268,64,l),
(222,79,o),
(201,93,o),
(201,143,cs),
(201,390,ls),
(201,440,o),
(229,468,o),
(279,468,cs)
);
}
);
};
layerId = "F751B0ED-1EE8-42F1-9FA4-7568447EA4E0";
name = "10 Feb 23 03.06";
shapes = (
{
closed = 1;
nodes = (
(245,97,l),
(217,115,o),
(205,131,o),
(205,170,cs),
(205,353,ls),
(205,395,o),
(228,418,o),
(270,418,cs),
(512,418,ls),
(560,418,o),
(595,399,o),
(595,317,cs),
(595,240,ls),
(595,146,o),
(571,116,o),
(530,116,cs),
(494,116,o),
(476,139,o),
(476,189,cs),
(476,504,l),
(329,504,l),
(329,158,ls),
(329,48,o),
(397,-10,o),
(527,-10,cs),
(662,-10,o),
(742,55,o),
(742,215,cs),
(742,317,ls),
(742,485,o),
(647,544,o),
(482,544,cs),
(265,544,ls),
(133,544,o),
(58,478,o),
(58,359,cs),
(58,145,ls),
(58,51,o),
(100,24,o),
(174,-10,c)
);
}
);
width = 800;
},
{
anchors = (
{
name = bottom;
pos = (666,0);
},
{
name = top;
pos = (666,544);
}
);
associatedMasterId = "FD202070-6699-4318-8E83-95414ED89137";
background = {
shapes = (
{
closed = 1;
nodes = (
(505,468,ls),
(585,468,o),
(643,439,o),
(643,317,cs),
(643,195,ls),
(643,97,o),
(607,66,o),
(549,66,cs),
(491,66,o),
(464,97,o),
(464,164,cs),
(464,504,l),
(377,504,l),
(377,158,ls),
(377,48,o),
(434,-10,o),
(546,-10,cs),
(660,-10,o),
(730,49,o),
(730,195,cs),
(730,317,ls),
(730,485,o),
(646,544,o),
(500,544,cs),
(281,544,ls),
(167,544,o),
(111,491,o),
(111,396,cs),
(111,145,ls),
(111,35,o),
(160,7,o),
(236,-10,c),
(265,64,l),
(219,79,o),
(198,93,o),
(198,143,cs),
(198,390,ls),
(198,440,o),
(226,468,o),
(276,468,cs)
);
}
);
};
layerId = "D9B25EAB-CEB5-41B3-8801-F630AFDD1C66";
name = "24 Feb 23 00.32";
shapes = (
{
closed = 1;
nodes = (
(265,97,l),
(221,120,o),
(202,140,o),
(202,190,cs),
(202,353,ls),
(202,395,o),
(225,418,o),
(267,418,cs),
(509,418,ls),
(557,418,o),
(592,399,o),
(592,317,cs),
(592,240,ls),
(592,146,o),
(568,116,o),
(527,116,cs),
(491,116,o),
(473,139,o),
(473,189,cs),
(473,504,l),
(326,504,l),
(326,158,ls),
(326,48,o),
(394,-10,o),
(524,-10,cs),
(659,-10,o),
(739,55,o),
(739,215,cs),
(739,317,ls),
(739,485,o),
(644,544,o),
(479,544,cs),
(262,544,ls),
(130,544,o),
(55,478,o),
(55,359,cs),
(55,175,ls),
(55,63,o),
(111,25,o),
(204,-10,c)
);
}
);
width = 794;
}
);
metricLeft = "ka-kawi";
metricRight = "=|";
unicode = 73491;
},
{
glyphname = "lVocalic-kawi";
layers = (
{
background = {
shapes = (
{
closed = 1;
nodes = (
(488,-580,o),
(610,-424,o),
(610,-184,cs),
(610,414,ls),
(610,503,o),
(563,554,o),
(476,554,cs),
(387,554,o),
(337,506,o),
(320,396,c),
(347,401,l),
(342,510,o),
(282,554,o),
(202,554,cs),
(105,554,o),
(64,493,o),
(64,414,cs),
(64,145,ls),
(64,35,o),
(113,7,o),
(189,-10,c),
(218,64,l),
(172,79,o),
(151,93,o),
(151,143,cs),
(151,405,ls),
(151,451,o),
(170,473,o),
(211,473,cs),
(258,473,o),
(288,441,o),
(297,344,c),
(375,344,l),
(388,432,o),
(415,473,o),
(463,473,cs),
(497,473,o),
(523,457,o),
(523,405,cs),
(523,-198,ls),
(523,-362,o),
(454,-503,o),
(313,-503,cs),
(218,-503,o),
(164,-440,o),
(164,-343,cs),
(164,-259,o),
(204,-173,o),
(324,-173,cs),
(452,-173,o),
(542,-270,o),
(608,-570,c),
(666,-558,l),
(611,-256,o),
(519,-96,o),
(324,-96,cs),
(163,-96,o),
(77,-206,o),
(77,-343,cs),
(77,-486,o),
(172,-580,o),
(310,-580,cs)
);
}
);
};
layerId = m01;
shapes = (
{
closed = 1;
nodes = (
(488,-580,o),
(610,-424,o),
(610,-184,cs),
(610,414,ls),
(610,503,o),
(563,554,o),
(476,554,cs),
(387,554,o),
(337,506,o),
(320,396,c),
(347,401,l),
(342,510,o),
(282,554,o),
(202,554,cs),
(105,554,o),
(64,493,o),
(64,414,cs),
(64,145,ls),
(64,35,o),
(113,7,o),
(189,-10,c),
(218,64,l),
(172,79,o),
(151,93,o),
(151,143,cs),
(151,405,ls),
(151,451,o),
(170,473,o),
(211,473,cs),
(258,473,o),
(288,441,o),
(297,344,c),
(375,344,l),
(388,432,o),
(415,473,o),
(463,473,cs),
(497,473,o),
(523,457,o),
(523,405,cs),
(523,-198,ls),
(523,-362,o),
(454,-503,o),
(313,-503,cs),
(218,-503,o),
(164,-440,o),
(164,-343,cs),
(164,-259,o),
(204,-173,o),
(324,-173,cs),
(452,-173,o),
(542,-270,o),
(608,-570,c),
(666,-558,l),
(611,-256,o),
(519,-96,o),
(324,-96,cs),
(163,-96,o),
(77,-206,o),
(77,-343,cs),
(77,-486,o),
(172,-580,o),
(310,-580,cs)
);
}
);
width = 681;
},
{
background = {
shapes = (
{
closed = 1;
nodes = (
(509,-580,o),
(645,-400,o),
(645,-124,cs),
(645,388,ls),
(645,439,o),
(630,554,o),
(490,554,cs),
(389,554,o),
(333,494,o),
(304,358,c),
(374,358,l),
(358,505,o),
(298,554,o),
(212,554,cs),
(106,554,o),
(55,481,o),
(55,388,cs),
(55,145,ls),
(55,51,o),
(97,24,o),
(185,-10,c),
(249,97,l),
(213,115,o),
(202,131,o),
(202,170,cs),
(202,372,ls),
(202,411,o),
(216,428,o),
(238,428,cs),
(268,428,o),
(279,403,o),
(288,336,c),
(391,336,l),
(401,396,o),
(418,428,o),
(455,428,cs),
(478,428,o),
(498,415,o),
(498,360,cs),
(498,-168,ls),
(498,-321,o),
(444,-453,o),
(319,-453,cs),
(247,-453,o),
(214,-410,o),
(214,-339,cs),
(214,-278,o),
(238,-223,o),
(331,-223,cs),
(457,-223,o),
(556,-325,o),
(618,-570,c),
(731,-541,l),
(664,-249,o),
(527,-96,o),
(323,-96,cs),
(157,-96,o),
(67,-198,o),
(67,-339,cs),
(67,-487,o),
(166,-580,o),
(310,-580,cs)
);
}
);
};
layerId = "FD202070-6699-4318-8E83-95414ED89137";
shapes = (
{
closed = 1;
nodes = (
(509,-580,o),
(645,-400,o),
(645,-124,cs),
(645,388,ls),
(645,490,o),
(602,554,o),
(495,554,cs),
(397,554,o),
(345,496,o),
(324,362,c),
(397,362,l),
(379,496,o),
(332,554,o),
(232,554,cs),
(130,554,o),
(78,490,o),
(78,388,cs),
(78,145,ls),
(78,51,o),
(112,24,o),
(196,-10,c),
(264,97,l),
(231,115,o),
(224,131,o),
(224,170,cs),
(224,362,ls),
(224,410,o),
(236,428,o),
(261,428,cs),
(292,428,o),
(302,406,o),
(309,340,c),
(412,340,l),
(419,408,o),
(433,428,o),
(459,428,cs),
(483,428,o),
(498,411,o),
(498,362,cs),
(498,-168,ls),
(498,-321,o),
(443,-453,o),
(322,-453,cs),
(253,-453,o),
(214,-410,o),
(214,-341,cs),
(214,-278,o),
(246,-223,o),
(335,-223,cs),
(456,-223,o),
(556,-325,o),
(618,-570,c),
(731,-541,l),
(664,-249,o),
(527,-96,o),
(323,-96,cs),
(157,-96,o),
(67,-198,o),
(67,-339,cs),
(67,-487,o),
(166,-580,o),
(310,-580,cs)
);
}
);
width = 699;
},
{
associatedMasterId = m01;
background = {
shapes = (
{
closed = 1;
nodes = (
(218,64,l),
(172,79,o),
(151,93,o),
(151,143,cs),
(151,388,ls),
(151,441,o),
(170,473,o),
(213,473,cs),
(259,473,o),
(292,435,o),
(307,344,c),
(361,344,l),
(388,432,o),
(420,473,o),
(472,473,cs),
(503,473,o),
(523,460,o),
(523,417,cs),
(523,0,l),
(610,0,l),
(610,426,ls),
(610,507,o),
(570,554,o),
(494,554,cs),
(417,554,o),
(358,506,o),
(324,396,c),
(351,401,l),
(340,504,o),
(283,554,o),
(202,554,cs),
(105,554,o),
(64,483,o),
(64,388,cs),
(64,145,ls),
(64,35,o),
(113,7,o),
(189,-10,c)
);
}
);
};
layerId = "CEAE8B2C-ECF0-4ED8-B704-69230D5AD620";
name = "25 Feb 23 00.23";
shapes = (
{
closed = 1;
nodes = (
(488,-580,o),
(610,-424,o),
(610,-184,cs),
(610,414,ls),
(610,502,o),
(571,554,o),
(491,554,cs),
(412,554,o),
(345,506,o),
(320,396,c),
(347,401,l),
(342,510,o),
(282,554,o),
(202,554,cs),
(105,554,o),
(64,493,o),
(64,414,cs),
(64,145,ls),
(64,35,o),
(113,7,o),
(189,-10,c),
(218,64,l),
(172,79,o),
(151,93,o),
(151,143,cs),
(151,405,ls),
(151,454,o),
(170,477,o),
(211,477,cs),
(258,477,o),
(288,444,o),
(297,344,c),
(371,344,l),
(385,435,o),
(418,477,o),
(472,477,cs),
(503,477,o),
(523,460,o),
(523,405,cs),
(523,-198,ls),
(523,-362,o),
(454,-503,o),
(313,-503,cs),
(218,-503,o),
(164,-440,o),
(164,-343,cs),
(164,-259,o),
(204,-173,o),
(324,-173,cs),
(452,-173,o),
(542,-270,o),
(608,-570,c),
(666,-558,l),
(611,-256,o),
(519,-96,o),
(324,-96,cs),
(163,-96,o),
(77,-206,o),
(77,-343,cs),
(77,-486,o),
(172,-580,o),
(310,-580,cs)
);
}
);
width = 681;
},
{
associatedMasterId = "FD202070-6699-4318-8E83-95414ED89137";
background = {
shapes = (
{
closed = 1;
nodes = (
(509,-580,o),
(645,-400,o),
(645,-124,cs),
(645,388,ls),
(645,439,o),
(630,554,o),
(490,554,cs),
(389,554,o),
(333,494,o),
(304,358,c),
(374,358,l),
(358,505,o),
(298,554,o),
(212,554,cs),
(106,554,o),
(55,481,o),
(55,388,cs),
(55,145,ls),
(55,51,o),
(92,24,o),
(174,-10,c),
(240,97,l),
(209,115,o),
(201,132,o),
(201,170,cs),
(201,372,ls),
(201,411,o),
(215,428,o),
(238,428,cs),
(268,428,o),
(279,403,o),
(288,336,c),
(391,336,l),
(401,396,o),
(418,428,o),
(455,428,cs),
(478,428,o),
(498,415,o),
(498,360,cs),
(498,-168,ls),
(498,-321,o),
(444,-453,o),
(319,-453,cs),
(247,-453,o),
(214,-410,o),
(214,-339,cs),
(214,-278,o),
(238,-223,o),
(331,-223,cs),
(457,-223,o),
(556,-325,o),
(618,-570,c),
(731,-541,l),
(664,-249,o),
(527,-96,o),
(323,-96,cs),
(157,-96,o),
(67,-198,o),
(67,-339,cs),
(67,-487,o),
(166,-580,o),
(310,-580,cs)
);
}
);
};
layerId = "EC7F2537-9308-4FB0-8860-B5CD911A7E38";
name = "25 Feb 23 00.24";
shapes = (
{
closed = 1;
nodes = (
(509,-580,o),
(645,-400,o),
(645,-124,cs),
(645,388,ls),
(645,439,o),
(630,554,o),
(490,554,cs),
(389,554,o),
(333,494,o),
(304,358,c),
(374,358,l),
(358,505,o),
(298,554,o),
(212,554,cs),
(106,554,o),
(55,481,o),
(55,388,cs),
(55,145,ls),
(55,51,o),
(97,24,o),
(185,-10,c),
(249,97,l),
(213,115,o),
(202,131,o),
(202,170,cs),
(202,372,ls),
(202,411,o),
(216,428,o),
(238,428,cs),
(268,428,o),
(279,403,o),
(288,336,c),
(391,336,l),
(401,396,o),
(418,428,o),
(455,428,cs),
(478,428,o),
(498,415,o),
(498,360,cs),
(498,-168,ls),
(498,-321,o),
(444,-453,o),
(319,-453,cs),
(247,-453,o),
(214,-410,o),
(214,-339,cs),
(214,-278,o),
(238,-223,o),
(331,-223,cs),
(457,-223,o),
(556,-325,o),
(618,-570,c),
(731,-541,l),
(664,-249,o),
(527,-96,o),
(323,-96,cs),
(157,-96,o),
(67,-198,o),
(67,-339,cs),
(67,-487,o),
(166,-580,o),
(310,-580,cs)
);
}
);
width = 699;
},
{
associatedMasterId = m01;
background = {
shapes = (
{
closed = 1;
nodes = (
(488,-580,o),
(610,-424,o),
(610,-184,cs),
(610,414,ls),
(610,502,o),
(571,554,o),
(491,554,cs),
(412,554,o),
(345,506,o),
(320,396,c),
(347,401,l),
(342,510,o),
(282,554,o),
(202,554,cs),
(105,554,o),
(64,493,o),
(64,414,cs),
(64,145,ls),
(64,35,o),
(113,7,o),
(189,-10,c),
(218,64,l),
(172,79,o),
(151,93,o),
(151,143,cs),
(151,405,ls),
(151,454,o),
(170,477,o),
(211,477,cs),
(258,477,o),
(288,444,o),
(297,344,c),
(371,344,l),
(385,435,o),
(418,477,o),
(472,477,cs),
(503,477,o),
(523,460,o),
(523,405,cs),
(523,-198,ls),
(523,-362,o),
(454,-503,o),
(313,-503,cs),
(218,-503,o),
(164,-440,o),
(164,-343,cs),
(164,-259,o),
(204,-173,o),
(324,-173,cs),
(452,-173,o),
(542,-270,o),
(608,-570,c),
(666,-558,l),
(611,-256,o),
(519,-96,o),
(324,-96,cs),
(163,-96,o),
(77,-206,o),
(77,-343,cs),
(77,-486,o),
(172,-580,o),
(310,-580,cs)
);
}
);
};
layerId = "F0049C33-5EE7-4FF5-9225-FEF4466418C2";
name = "5 Mar 23 22.52";
shapes = (
{
closed = 1;
nodes = (
(488,-580,o),
(610,-424,o),
(610,-184,cs),
(610,414,ls),
(610,503,o),
(563,554,o),
(476,554,cs),
(387,554,o),
(337,506,o),
(320,396,c),
(347,401,l),
(342,510,o),
(282,554,o),
(202,554,cs),
(105,554,o),
(64,493,o),
(64,414,cs),
(64,145,ls),
(64,35,o),
(113,7,o),
(189,-10,c),
(218,64,l),
(172,79,o),
(151,93,o),
(151,143,cs),
(151,405,ls),
(151,451,o),
(170,473,o),
(211,473,cs),
(258,473,o),
(288,441,o),
(297,344,c),
(375,344,l),
(388,432,o),
(415,473,o),
(463,473,cs),
(497,473,o),
(523,457,o),
(523,405,cs),
(523,-198,ls),
(523,-362,o),
(454,-503,o),
(313,-503,cs),
(218,-503,o),
(164,-440,o),
(164,-343,cs),
(164,-259,o),
(204,-173,o),
(324,-173,cs),
(452,-173,o),
(542,-270,o),
(608,-570,c),
(666,-558,l),
(611,-256,o),
(519,-96,o),
(324,-96,cs),
(163,-96,o),
(77,-206,o),
(77,-343,cs),
(77,-486,o),
(172,-580,o),
(310,-580,cs)
);
}
);
width = 681;
}
);
unicode = 73484;
},
{
glyphname = "la-kawi";
layers = (
{
anchors = (
{
name = bottom;
pos = (685,0);
},
{
name = top;
pos = (414,544);
},
{
name = topright;
pos = (679,544);
}
);
background = {
shapes = (
{
closed = 1;
nodes = (
(218,64,l),
(172,79,o),
(151,93,o),
(151,143,cs),
(151,390,ls),
(151,440,o),
(179,468,o),
(229,468,cs),
(300,468,ls),
(350,468,o),
(378,440,o),
(378,390,cs),
(378,0,l),
(465,0,l),
(465,396,ls),
(465,491,o),
(409,544,o),
(295,544,cs),
(234,544,ls),
(120,544,o),
(64,491,o),
(64,396,cs),
(64,145,ls),
(64,35,o),
(113,7,o),
(189,-10,c)
);
}
);
};
layerId = m01;
shapes = (
{
closed = 1;
nodes = (
(218,64,l),
(172,79,o),
(151,93,o),
(151,143,cs),
(151,390,ls),
(151,440,o),
(179,468,o),
(229,468,cs),
(260,468,ls),
(310,468,o),
(338,440,o),
(338,390,cs),
(338,148,ls),
(338,53,o),
(394,0,o),
(508,0,cs),
(554,0,ls),
(645,0,o),
(727,32,o),
(727,156,cs),
(727,360,ls),
(727,438,o),
(693,488,o),
(620,488,c),
(556,468,l),
(636,468,o),
(640,423,o),
(640,360,cs),
(640,156,ls),
(640,95,o),
(603,76,o),
(562,76,cs),
(503,76,ls),
(453,76,o),
(425,104,o),
(425,154,cs),
(425,396,ls),
(425,491,o),
(370,544,o),
(256,544,cs),
(235,544,ls),
(121,544,o),
(64,491,o),
(64,396,cs),
(64,145,ls),
(64,35,o),
(113,7,o),
(189,-10,c)
);
},
{
closed = 1;
nodes = (
(764,468,l),
(764,544,l),
(556,544,l),
(556,468,l)
);
}
);
width = 799;
},
{
anchors = (
{
name = bottom;
pos = (675,0);
},
{
name = top;
pos = (404,544);
},
{
name = topright;
pos = (669,544);
}
);
background = {
shapes = (
{
closed = 1;
nodes = (
(237,97,l),
(201,115,o),
(190,131,o),
(190,170,cs),
(190,353,ls),
(190,395,o),
(209,418,o),
(245,418,cs),
(267,418,ls),
(303,418,o),
(322,395,o),
(322,353,cs),
(322,185,ls),
(322,66,o),
(387,0,o),
(519,0,cs),
(564,0,ls),
(696,0,o),
(761,66,o),
(761,185,cs),
(761,315,ls),
(761,393,o),
(721,443,o),
(594,443,c),
(540,423,l),
(610,423,o),
(614,378,o),
(614,315,cs),
(614,187,ls),
(614,146,o),
(593,126,o),
(556,126,cs),
(526,126,ls),
(489,126,o),
(469,146,o),
(469,187,cs),
(469,359,ls),
(469,478,o),
(404,544,o),
(272,544,cs),
(240,544,ls),
(114,544,o),
(43,478,o),
(43,359,cs),
(43,145,ls),
(43,51,o),
(85,24,o),
(173,-10,c)
);
},
{
closed = 1;
nodes = (
(797,423,l),
(797,544,l),
(530,544,l),
(530,423,l)
);
}
);
};
layerId = "FD202070-6699-4318-8E83-95414ED89137";
shapes = (
{
closed = 1;
nodes = (
(237,97,l),
(201,115,o),
(190,131,o),
(190,170,cs),
(190,353,ls),
(190,395,o),
(209,418,o),
(245,418,cs),
(267,418,ls),
(303,418,o),
(322,395,o),
(322,353,cs),
(322,185,ls),
(322,66,o),
(387,0,o),
(519,0,cs),
(564,0,ls),
(696,0,o),
(761,66,o),
(761,185,cs),
(761,315,ls),
(761,393,o),
(721,443,o),
(594,443,c),
(540,423,l),
(610,423,o),
(614,378,o),
(614,315,cs),
(614,187,ls),
(614,146,o),
(593,126,o),
(556,126,cs),
(526,126,ls),
(489,126,o),
(469,146,o),
(469,187,cs),
(469,359,ls),
(469,478,o),
(404,544,o),
(272,544,cs),
(240,544,ls),
(114,544,o),
(43,478,o),
(43,359,cs),
(43,145,ls),
(43,51,o),
(85,24,o),
(173,-10,c)
);
},
{
closed = 1;
nodes = (
(797,423,l),
(797,544,l),
(530,544,l),
(530,423,l)
);
}
);
width = 832;
},
{
associatedMasterId = "FD202070-6699-4318-8E83-95414ED89137";
background = {
shapes = (
{
closed = 1;
nodes = (
(260,468,ls),
(310,468,o),
(338,440,o),
(338,390,cs),
(338,148,ls),
(338,53,o),
(394,0,o),
(508,0,cs),
(554,0,ls),
(645,0,o),
(727,32,o),
(727,156,cs),
(727,360,ls),
(727,438,o),
(693,488,o),
(620,488,c),
(556,468,l),
(636,468,o),
(640,423,o),
(640,360,cs),
(640,156,ls),
(640,95,o),
(603,76,o),
(562,76,cs),
(503,76,ls),
(453,76,o),
(425,104,o),
(425,154,cs),
(425,396,ls),
(425,491,o),
(370,544,o),
(256,544,cs),
(235,544,ls),
(121,544,o),
(64,491,o),
(64,396,cs),
(64,145,ls),
(64,35,o),
(113,7,o),
(189,-10,c),
(218,64,l),
(172,79,o),
(151,93,o),
(151,143,cs),
(151,390,ls),
(151,440,o),
(179,468,o),
(229,468,cs)
);
},
{
closed = 1;
nodes = (
(764,468,l),
(764,544,l),
(556,544,l),
(556,468,l)
);
}
);
};
layerId = "68C439FB-C299-4974-B544-8B65318D7EAB";
name = "24 Feb 23 00.32";
shapes = (
{
closed = 1;
nodes = (
(237,97,l),
(201,115,o),
(190,131,o),
(190,170,cs),
(190,353,ls),
(190,395,o),
(209,418,o),
(245,418,cs),
(267,418,ls),
(303,418,o),
(322,395,o),
(322,353,cs),
(322,185,ls),
(322,66,o),
(387,0,o),
(519,0,cs),
(564,0,ls),
(696,0,o),
(761,66,o),
(761,185,cs),
(761,315,ls),
(761,393,o),
(721,443,o),
(594,443,c),
(540,423,l),
(610,423,o),
(614,378,o),
(614,315,cs),
(614,187,ls),
(614,146,o),
(593,126,o),
(556,126,cs),
(526,126,ls),
(489,126,o),
(469,146,o),
(469,187,cs),
(469,359,ls),
(469,478,o),
(404,544,o),
(272,544,cs),
(240,544,ls),
(114,544,o),
(43,478,o),
(43,359,cs),
(43,145,ls),
(43,51,o),
(85,24,o),
(173,-10,c)
);
},
{
closed = 1;
nodes = (
(797,423,l),
(797,544,l),
(530,544,l),
(530,423,l)
);
}
);
width = 831;
}
);
metricRight = "ra-kawi";
unicode = 73517;
},
{
glyphname = "llVocalic-kawi";
layers = (
{
background = {
shapes = (
{
closed = 1;
nodes = (
(545,-579,o),
(673,-480,o),
(673,-331,cs),
(673,-191,o),
(560,-76,o),
(382,-76,cs),
(249,-76,o),
(183,-140,o),
(183,-231,cs),
(183,-329,o),
(258,-385,o),
(356,-385,cs),
(497,-385,o),
(610,-269,o),
(610,-24,cs),
(610,414,ls),
(610,507,o),
(568,554,o),
(490,554,cs),
(412,554,o),
(339,507,o),
(320,396,c),
(347,401,l),
(342,510,o),
(282,554,o),
(202,554,cs),
(105,554,o),
(64,493,o),
(64,414,cs),
(64,145,ls),
(64,35,o),
(113,7,o),
(189,-10,c),
(218,64,l),
(172,79,o),
(151,93,o),
(151,143,cs),
(151,405,ls),
(151,451,o),
(170,473,o),
(211,473,cs),
(258,473,o),
(288,441,o),
(297,344,c),
(371,344,l),
(385,432,o),
(417,473,o),
(469,473,cs),
(503,473,o),
(523,456,o),
(523,405,cs),
(523,-48,ls),
(523,-244,o),
(455,-304,o),
(364,-304,cs),
(303,-304,o),
(270,-277,o),
(270,-232,cs),
(270,-190,o),
(298,-157,o),
(388,-157,cs),
(518,-157,o),
(597,-225,o),
(597,-329,cs),
(597,-445,o),
(498,-498,o),
(382,-498,cs),
(244,-498,o),
(111,-424,o),
(54,-206,c),
(-5,-223,l),
(47,-448,o),
(177,-579,o),
(374,-579,cs)
);
}
);
};
layerId = m01;
shapes = (
{
closed = 1;
nodes = (
(545,-579,o),
(673,-480,o),
(673,-331,cs),
(673,-191,o),
(560,-76,o),
(382,-76,cs),
(249,-76,o),
(183,-140,o),
(183,-231,cs),
(183,-329,o),
(258,-385,o),
(356,-385,cs),
(497,-385,o),
(610,-269,o),
(610,-24,cs),
(610,414,ls),
(610,503,o),
(563,554,o),
(476,554,cs),
(387,554,o),
(337,506,o),
(320,396,c),
(347,401,l),
(342,510,o),
(282,554,o),
(202,554,cs),
(105,554,o),
(64,493,o),
(64,414,cs),
(64,145,ls),
(64,35,o),
(113,7,o),
(189,-10,c),
(218,64,l),
(172,79,o),
(151,93,o),
(151,143,cs),
(151,405,ls),
(151,451,o),
(170,473,o),
(211,473,cs),
(258,473,o),
(288,441,o),
(297,344,c),
(375,344,l),
(388,432,o),
(415,473,o),
(463,473,cs),
(497,473,o),
(523,457,o),
(523,405,cs),
(523,-48,ls),
(523,-244,o),
(455,-304,o),
(364,-304,cs),
(303,-304,o),
(270,-277,o),
(270,-232,cs),
(270,-190,o),
(298,-157,o),
(388,-157,cs),
(518,-157,o),
(597,-225,o),
(597,-329,cs),
(597,-445,o),
(498,-498,o),
(382,-498,cs),
(244,-498,o),
(111,-424,o),
(54,-206,c),
(-5,-223,l),
(47,-448,o),
(177,-579,o),
(374,-579,cs)
);
}
);
width = 690;
},
{
layerId = "FD202070-6699-4318-8E83-95414ED89137";
shapes = (
{
closed = 1;
nodes = (
(541,-579,o),
(666,-482,o),
(666,-327,cs),
(666,-173,o),
(542,-56,o),
(366,-56,cs),
(233,-56,o),
(156,-121,o),
(156,-224,cs),
(156,-323,o),
(228,-385,o),
(333,-385,cs),
(487,-385,o),
(618,-260,o),
(618,-14,cs),
(618,388,ls),
(618,490,o),
(575,554,o),
(468,554,cs),
(370,554,o),
(318,496,o),
(297,362,c),
(370,362,l),
(352,496,o),
(305,554,o),
(205,554,cs),
(103,554,o),
(51,490,o),
(51,388,cs),
(51,145,ls),
(51,51,o),
(85,24,o),
(169,-10,c),
(237,97,l),
(204,115,o),
(197,131,o),
(197,170,cs),
(197,362,ls),
(197,410,o),
(209,428,o),
(234,428,cs),
(265,428,o),
(275,406,o),
(282,340,c),
(385,340,l),
(392,408,o),
(406,428,o),
(432,428,cs),
(456,428,o),
(471,411,o),
(471,362,cs),
(471,-78,ls),
(471,-220,o),
(414,-264,o),
(343,-264,cs),
(301,-264,o),
(283,-249,o),
(283,-223,cs),
(283,-197,o),
(301,-177,o),
(363,-177,cs),
(471,-177,o),
(539,-234,o),
(539,-320,cs),
(539,-416,o),
(455,-458,o),
(355,-458,cs),
(238,-458,o),
(126,-400,o),
(77,-191,c),
(-32,-223,l),
(28,-457,o),
(154,-579,o),
(359,-579,cs)
);
}
);
width = 678;
},
{
associatedMasterId = m01;
layerId = "F56FDCBD-8A56-448C-B17B-4C655E6A823A";
name = "25 Feb 23 00.23";
shapes = (
{
closed = 1;
nodes = (
(545,-579,o),
(673,-480,o),
(673,-331,cs),
(673,-191,o),
(560,-76,o),
(382,-76,cs),
(249,-76,o),
(183,-140,o),
(183,-231,cs),
(183,-329,o),
(258,-385,o),
(356,-385,cs),
(497,-385,o),
(610,-269,o),
(610,-24,cs),
(610,414,ls),
(610,507,o),
(568,554,o),
(490,554,cs),
(412,554,o),
(339,507,o),
(320,396,c),
(347,401,l),
(342,510,o),
(282,554,o),
(202,554,cs),
(105,554,o),
(64,493,o),
(64,414,cs),
(64,145,ls),
(64,35,o),
(113,7,o),
(189,-10,c),
(218,64,l),
(172,79,o),
(151,93,o),
(151,143,cs),
(151,405,ls),
(151,451,o),
(170,473,o),
(211,473,cs),
(258,473,o),
(288,441,o),
(297,344,c),
(371,344,l),
(385,432,o),
(417,473,o),
(469,473,cs),
(503,473,o),
(523,456,o),
(523,405,cs),
(523,-48,ls),
(523,-244,o),
(455,-304,o),
(364,-304,cs),
(303,-304,o),
(270,-277,o),
(270,-232,cs),
(270,-190,o),
(298,-157,o),
(388,-157,cs),
(518,-157,o),
(597,-225,o),
(597,-329,cs),
(597,-445,o),
(498,-498,o),
(382,-498,cs),
(244,-498,o),
(111,-424,o),
(54,-206,c),
(-5,-223,l),
(47,-448,o),
(177,-579,o),
(374,-579,cs)
);
}
);
width = 690;
}
);
unicode = 73485;
},
